<svg xmlns="http://www.w3.org/2000/svg" xmlns:xlink="http://www.w3.org/1999/xlink" viewBox="0 0 244 93"><defs><style>.cls-1{fill:#fff;}.cls-2{mask:url(#mask);}.cls-3{fill:#777778;}.cls-4{fill:#f37826;}.cls-5{fill:#989798;}.cls-6{fill:#707171;}.cls-7{fill:#4f4f4f;}.cls-8,.cls-9{isolation:isolate;}.cls-9{font-size:10px;fill:#767676;font-family:MyriadPro-Bold, Myriad Pro;font-weight:700;letter-spacing:0.2em;}.cls-10{letter-spacing:0.19em;}.cls-11{letter-spacing:0.17em;}.cls-12{fill:none;stroke:#4e4e4e;stroke-width:4px;}</style><mask id="mask" x="0" y="0" width="244" height="93" maskUnits="userSpaceOnUse"><g id="mask-2"><rect id="path-1" class="cls-1" x="2" y="2" width="240" height="89" rx="8" ry="8"/></g></mask></defs><title>Asset 3</title><g id="Layer_2" data-name="Layer 2"><g id="Layer_1-2" data-name="Layer 1"><g id="Page-1"><g class="cls-2"><g id="PoweredbyJupyter-darkborder-2"><g id="Group-2"><g id="fulllogo-greytext-orangebody-greymoons"><g id="logo.svg"><g id="Canvas"><g id="logo"><g id="g"><g id="path"><g id="path7-fill"><g id="path7_fill-link" data-name="path7 fill-link"><path id="path7_fill" data-name="path7 fill" class="cls-3" d="M58.84,21.46a3.29,3.29,0,0,1-.47,1.84A3.25,3.25,0,0,1,57,24.56,3.22,3.22,0,0,1,53.42,24a3.28,3.28,0,0,1,.28-5,3.22,3.22,0,0,1,4.1.23,3.28,3.28,0,0,1,1,2.26Z"/></g></g></g><g id="path-2" data-name="path"><g id="path8-fill"><g id="path8_fill-link" data-name="path8 fill-link"><path id="path8_fill" data-name="path8 fill" class="cls-4" d="M40,59.85c-8.62,0-16.15-3.16-20.06-7.83a21.42,21.42,0,0,0,7.76,10.4,21.11,21.11,0,0,0,24.6,0A21.42,21.42,0,0,0,60,52C56.11,56.69,48.59,59.85,40,59.85Z"/></g></g></g><g id="path-3" data-name="path"><g id="path9-fill"><g id="path9_fill-link" data-name="path9 fill-link"><path id="path9_fill" data-name="path9 fill" class="cls-4" d="M40,29.44c8.62,0,16.15,3.16,20.06,7.83a21.42,21.42,0,0,0-7.76-10.4,21.11,21.11,0,0,0-24.6,0,21.42,21.42,0,0,0-7.76,10.4c3.92-4.67,11.45-7.83,20.06-7.83Z"/></g></g></g><g id="path-4" data-name="path"><g id="path10-fill"><g id="path10_fill-link" data-name="path10 fill-link"><path id="path10_fill" data-name="path10 fill" class="cls-5" d="M28.13,68.94a4.14,4.14,0,0,1-.59,2.32,4.09,4.09,0,0,1-1.77,1.59,4.05,4.05,0,0,1-4.48-.7,4.14,4.14,0,0,1,.36-6.35,4.05,4.05,0,0,1,5.17.29,4.13,4.13,0,0,1,1.32,2.85Z"/></g></g></g><g id="path-5" data-name="path"><g id="path11-fill"><g id="path11_fill-link" data-name="path11 fill-link"><path id="path11_fill" data-name="path11 fill" class="cls-6" d="M20.89,28.38A2.38,2.38,0,0,1,19.55,28a2.41,2.41,0,0,1-.93-1A2.43,2.43,0,0,1,19,24.34a2.38,2.38,0,0,1,3.7.21,2.43,2.43,0,0,1-.17,3.06,2.39,2.39,0,0,1-1.66.78Z"/></g></g></g></g><g id="Group-3"><g id="Group-4"><g id="Group"><g id="g-2" data-name="g"><g id="path-6" data-name="path"><g id="path0-fill"><g id="path0_fill-link" data-name="path0 fill-link"><path id="path0_fill" data-name="path0 fill" class="cls-7" d="M80,55.21c0,5.65-.43,7.5-1.58,8.86a6.75,6.75,0,0,1-4.6,1.8l.43,3.36a10.58,10.58,0,0,0,7.17-2.68c2.06-2.14,2.78-5.11,2.78-9.66V35.53H80V55.21Z"/></g></g></g><g id="path-7" data-name="path"><g id="path1-fill"><g id="path1_fill-link" data-name="path1 fill-link"><path id="path1_fill" data-name="path1 fill" class="cls-7" d="M111.47,52.64c0,2.43,0,4.58.19,6.42H108l-.24-3.86h-.1a8.74,8.74,0,0,1-3.24,3.24A8.65,8.65,0,0,1,100,59.57c-3.64,0-8-2-8-10.32V35.48H96.2V48.55c0,4.48,1.34,7.5,5.16,7.5A6.05,6.05,0,0,0,104.71,55a6.13,6.13,0,0,0,2.19-2.78,6.35,6.35,0,0,0,.38-2.19V35.5h4.21V52.64Z"/></g></g></g><g id="path-8" data-name="path"><g id="path2-fill"><g id="path2_fill-link" data-name="path2 fill-link"><path id="path2_fill" data-name="path2 fill" class="cls-7" d="M119.41,43.19c0-3-.1-5.45-.19-7.73H123l.19,4h.1a9.13,9.13,0,0,1,3.48-3.44,9,9,0,0,1,4.75-1.13c5.59,0,9.81,4.83,9.81,12,0,8.47-5.07,12.65-10.54,12.65a8,8,0,0,1-4-.9,8.13,8.13,0,0,1-3.08-2.8h-.1v12.8H119.4V43.19Zm4.17,6.28a9.74,9.74,0,0,0,.19,1.75,6.56,6.56,0,0,0,2.3,3.61,6.47,6.47,0,0,0,4,1.41c4.45,0,7-3.7,7-9.1,0-4.72-2.44-8.76-6.89-8.76a6.67,6.67,0,0,0-4.08,1.55,6.77,6.77,0,0,0-2.27,3.76,7.06,7.06,0,0,0-.29,1.75v4Z"/></g></g></g><g id="path-9" data-name="path"><g id="path3-fill"><g id="path3_fill-link" data-name="path3 fill-link"><path id="path3_fill" data-name="path3 fill" class="cls-7" d="M148.78,35.51l5.07,13.92c.53,1.56,1.1,3.41,1.48,4.83h.1c.43-1.41.91-3.22,1.48-4.92l4.6-13.82H166l-6.31,16.8c-3,8.08-5.07,12.22-7.94,14.75a11.35,11.35,0,0,1-5.16,2.77l-1.05-3.6a11.09,11.09,0,0,0,3.69-2.1,13,13,0,0,0,3.54-4.77,3.11,3.11,0,0,0,.34-1,3.78,3.78,0,0,0-.29-1.12l-8.56-21.7h4.57Z"/></g></g></g><g id="path-10" data-name="path"><g id="path4-fill"><g id="path4_fill-link" data-name="path4 fill-link"><path id="path4_fill" data-name="path4 fill" class="cls-7" d="M177,28.73v6.76h6v3.26h-6V51.45c0,2.9.81,4.58,3.16,4.58a9.22,9.22,0,0,0,2.44-.29l.19,3.22a10.14,10.14,0,0,1-3.74.58,5.78,5.78,0,0,1-4.55-1.8c-1.2-1.27-1.63-3.36-1.63-6.13V38.76h-3.59V35.49h3.59V29.84L177,28.73Z"/></g></g></g><g id="path-11" data-name="path"><g id="path5-fill"><g id="path5_fill-link" data-name="path5 fill-link"><path id="path5_fill" data-name="path5 fill" class="cls-7" d="M190.81,48.05c.1,5.8,3.74,8.18,7.94,8.18A15,15,0,0,0,205.15,55l.72,3.06a18.47,18.47,0,0,1-7.66,1.46c-7.13,0-11.39-4.77-11.39-11.88S190.94,35,197.68,35c7.56,0,9.58,6.76,9.58,11.1a16.41,16.41,0,0,1-.14,2H190.81ZM203.15,45c0-2.72-1.1-7-5.83-7-4.26,0-6.12,4-6.46,7h12.29Z"/></g></g></g><g id="path-12" data-name="path"><g id="path6-fill"><g id="path6_fill-link" data-name="path6 fill-link"><path id="path6_fill" data-name="path6 fill" class="cls-7" d="M213.39,42.85c0-2.77,0-5.16-.19-7.35h3.69l.14,4.63h.19C218.27,37,220.81,35,223.63,35a4.47,4.47,0,0,1,1.2.14v4a6.24,6.24,0,0,0-1.44-.14c-3,0-5.07,2.29-5.64,5.5a12.23,12.23,0,0,0-.19,2V59.06h-4.17V42.85Z"/></g></g></g></g></g><g id="POWERED-BY" class="cls-8"><text class="cls-9" transform="translate(80 29)">P<tspan class="cls-10" x="7.81" y="0">O</tspan><tspan x="16.91" y="0">WERED </tspan><tspan class="cls-11" x="63.38" y="0">B</tspan><tspan x="71.08" y="0">Y</tspan></text></g></g></g></g></g></g></g></g><g id="Rectangle"><rect id="path-1-2" data-name="path-1" class="cls-12" x="2" y="2" width="240" height="89" rx="8" ry="8"/></g></g></g></g></g></g></svg>