<?xml version="1.0" encoding="UTF-8" standalone="no"?>
<svg width="240px" height="89px" viewBox="0 0 240 89" version="1.1" xmlns="http://www.w3.org/2000/svg" xmlns:xlink="http://www.w3.org/1999/xlink">
    <!-- Generator: Sketch 40.3 (33839) - http://www.bohemiancoding.com/sketch -->
    <title>PoweredbyJupyter-darkbg-2</title>
    <desc>Created with Sketch.</desc>
    <defs></defs>
    <g id="Page-1" stroke="none" stroke-width="1" fill="none" fill-rule="evenodd">
        <g id="PoweredbyJupyter-darkbg-2">
            <rect id="Rectangle" fill="#4D4D4D" x="0" y="0" width="240" height="89" rx="8"></rect>
            <g id="Group-2" transform="translate(16.000000, 16.000000)">
                <g id="fulllogo-greytext-orangebody-greymoons">
                    <g id="logo.svg">
                        <g id="Canvas">
                            <g id="logo">
                                <g id="g">
                                    <g id="path" transform="translate(34.039216, 0.000000)" fill="#FFFFFF">
                                        <g id="path7-fill">
                                            <g id="path7_fill-link" transform="translate(0.329412, 0.340392)">
                                                <path d="M6.47132706,3.12282353 C6.49917333,3.76808627 6.33661961,4.40716706 6.00424314,4.95923922 C5.67186667,5.51130039 5.1845898,5.95153725 4.60406745,6.22424627 C4.0235451,6.49696627 3.37585569,6.58989333 2.74295686,6.49128941 C2.11005804,6.39267451 1.52037804,6.10696471 1.04851545,5.67028549 C0.576657255,5.23361725 0.243826196,4.66560157 0.0921295529,4.03811608 C-0.0595667608,3.41063059 -0.0233113725,2.75187294 0.196308549,2.14517333 C0.415929569,1.53846275 0.809045176,1.01109318 1.32592627,0.629767216 C1.84279529,0.248441255 2.46021176,0.0302969882 3.1000502,0.00293427922 C3.95721255,-0.0337224314 4.79374275,0.274278118 5.42587294,0.859271686 C6.05800314,1.44426196 6.43402667,2.25840314 6.47132706,3.12282353 L6.47132706,3.12282353 Z" id="path7_fill"></path>
                                            </g>
                                        </g>
                                    </g>
                                    <g id="path" transform="translate(1.098039, 32.941176)" fill="#F37726">
                                        <g id="path8-fill">
                                            <g id="path8_fill-link" transform="translate(0.812549, 1.076078)">
                                                <path d="M20.0552471,7.83353255 C11.4355294,7.83353255 3.90761412,4.67501176 0,0 C1.4553302,4.19494902 4.16767373,7.82990902 7.7616,10.4017584 C11.3555922,12.9735529 15.6533176,14.3551059 20.0600784,14.3551059 C24.4668392,14.3551059 28.7645647,12.9735529 32.3585569,10.4017584 C35.9524392,7.82990902 38.6648157,4.19494902 40.1201569,0 C36.202902,4.67501176 28.6750745,7.83353255 20.0552471,7.83353255 L20.0552471,7.83353255 Z" id="path8_fill"></path>
                                            </g>
                                        </g>
                                    </g>
                                    <g id="path" transform="translate(1.098039, 4.392157)" fill="#F37726">
                                        <g id="path9-fill">
                                            <g id="path9_fill-link" transform="translate(0.801569, 0.527059)">
                                                <path d="M20.0648,6.52159529 C28.6846275,6.52159529 36.2125647,9.68012706 40.1201569,14.3551059 C38.6648157,10.1601898 35.9524392,6.5252298 32.3585569,3.95338039 C28.7645647,1.38153098 24.4668392,0 20.0600784,0 C15.6533176,0 11.3555922,1.38153098 7.7616,3.95338039 C4.16767373,6.5252298 1.4553302,10.1601898 0,14.3551059 C3.9172,9.6897898 11.4450824,6.52159529 20.0648,6.52159529 L20.0648,6.52159529 Z" id="path9_fill"></path>
                                            </g>
                                        </g>
                                    </g>
                                    <g id="path" transform="translate(1.098039, 46.117647)" fill="#FFFFFF">
                                        <g id="path10-fill">
                                            <g id="path10_fill-link" transform="translate(0.878431, 0.889412)">
                                                <path d="M8.15611451,3.93469176 C8.19146039,4.74825098 7.98664314,5.55409098 7.56760941,6.25018196 C7.14857569,6.94627294 6.53415686,7.50132078 5.80216,7.84505098 C5.07016314,8.1887702 4.25348549,8.30572235 3.45555137,8.18108392 C2.65760627,8.05644549 1.91427765,7.69582745 1.31966745,7.14488627 C0.725066039,6.5939451 0.305924706,5.87745255 0.115312784,5.08613961 C-0.0752988078,4.29481569 -0.0288082667,3.46424784 0.248898039,2.69959529 C0.526605333,1.93493176 1.02303984,1.27057412 1.67534431,0.790624471 C2.32765647,0.310673725 3.10650667,0.0367178824 3.91329098,0.00344064 C4.99242196,-0.0410702902 6.04502431,0.347755608 6.84035608,1.08468157 C7.63568784,1.82160314 8.10884392,2.84650196 8.15611451,3.93469176 L8.15611451,3.93469176 L8.15611451,3.93469176 Z" id="path10_fill"></path>
                                            </g>
                                        </g>
                                    </g>
                                    <g id="path" transform="translate(0.000000, 5.490196)" fill="#FFFFFF">
                                        <g id="path11-fill">
                                            <g id="path11_fill-link" transform="translate(0.395294, 0.065882)">
                                                <path d="M2.49772078,4.82729882 C2.02437804,4.84793098 1.55560314,4.7264549 1.15073412,4.47827608 C0.745862902,4.23008627 0.423105255,3.8663498 0.223309333,3.43308549 C0.0235129725,2.99982118 -0.0443386039,2.51651922 0.028342149,2.04434039 C0.101023012,1.57217255 0.310969098,1.13236392 0.631606431,0.780577412 C0.952243765,0.428795294 1.36915608,0.180855843 1.8295749,0.0681434353 C2.28999373,-0.0445690824 2.77321882,-0.0169882039 3.21808941,0.147395294 C3.66296,0.311778353 4.04948078,0.605574118 4.32871216,0.991595294 C4.60794353,1.37762196 4.76734588,1.83851294 4.78673725,2.31594039 C4.8126949,2.95490039 4.58626824,3.57816941 4.15714353,4.04897569 C3.72801882,4.51979294 3.13123451,4.7997051 2.49772078,4.82729882 L2.49772078,4.82729882 L2.49772078,4.82729882 Z" id="path11_fill"></path>
                                            </g>
                                        </g>
                                    </g>
                                </g>
                                <g id="Group-3" transform="translate(54.000000, 3.000000)">
                                    <g id="Group-4">
                                        <g id="Group" transform="translate(0.901961, 7.686275)" fill="#FFFFFF">
                                            <g id="g">
                                                <g id="path" transform="translate(0.000000, 6.588235)">
                                                    <g id="path0-fill">
                                                        <g id="path0_fill-link" transform="translate(0.955294, 0.252549)">
                                                            <path d="M4.59719373,28.542651 C3.34260706,29.7020706 1.70164235,30.3433255 0,30.3392627 L0.43098698,33.7005804 C3.06849255,33.7371451 5.62527686,32.783498 7.60453647,31.025098 C9.66368941,28.8807373 10.3820047,25.9153725 10.3820047,21.3659765 L10.3820047,0 L6.16790588,0 L6.16790588,19.7141961 C6.17748078,25.3358275 5.74650039,27.1807529 4.59719373,28.542651 Z" id="path0_fill"></path>
                                                        </g>
                                                    </g>
                                                </g>
                                                <g id="path" transform="translate(18.666667, 6.588235)">
                                                    <g id="path1-fill">
                                                        <g id="path1_fill-link" transform="translate(0.417255, 0.208627)">
                                                            <path d="M19.6721412,23.5778667 L15.9848157,23.5778667 L15.7454431,19.7141961 L15.6495843,19.7141961 C14.8733804,21.0645647 13.7542588,22.1818196 12.4075137,22.9508863 C11.0607686,23.7200627 9.53512,24.1131608 7.98763137,24.0897725 C4.34818039,24.0897725 0,22.0420392 0,13.7739137 L0,0 L4.21409882,0 L4.21409882,13.0687529 C4.21409882,17.5506196 5.55494745,20.5641882 9.37636549,20.5641882 C10.5751278,20.5421176 11.7407843,20.1637333 12.7271529,19.4763608 C13.7136314,18.789098 14.4769882,17.8234824 14.9216941,16.7006275 C15.1773176,15.9984314 15.3071059,15.2559373 15.3048,14.5079529 L15.3048,0.0193182431 L19.5189647,0.0193182431 L19.5189647,17.1545569 C19.4806431,19.5886902 19.4806431,21.7329412 19.6721412,23.5778667 Z" id="path1_fill"></path>
                                                        </g>
                                                    </g>
                                                </g>
                                                <g id="path" transform="translate(46.117647, 5.490196)">
                                                    <g id="path2-fill">
                                                        <g id="path2_fill-link" transform="translate(0.197647, 0.735686)">
                                                            <path d="M0.191549647,8.2751749 C0.191549647,5.26152941 0.0957749333,2.82744 0,0.547886431 L3.78310745,0.547886431 L3.97466039,4.5853898 L4.07043137,4.5853898 C4.89806745,3.13877804 6.10185882,1.94769098 7.55180863,1.14078588 C9.00174745,0.333888471 10.6427231,-0.0581643451 12.2974902,0.00697628235 C17.8907922,0.00697628235 22.1048471,4.83653333 22.1048471,11.9842196 C22.1048471,20.4552627 17.0383843,24.6376941 11.5696,24.6376941 C10.1657788,24.697098 8.77076392,24.3872314 7.52150275,23.7387294 C6.27224157,23.0901176 5.21168941,22.125051 4.44396235,20.9382902 L4.34818039,20.9382902 L4.34818039,33.7365961 L0.181972549,33.7365961 L0.181972549,8.2365349 L0.191549647,8.2751749 L0.191549647,8.2751749 Z M4.35776627,14.5536314 C4.36875765,15.1409725 4.43287216,15.7262275 4.54930824,16.3019294 C4.89257725,17.7297098 5.70126118,18.9999216 6.84571451,19.9088784 C7.99017882,20.8179451 9.40411294,21.313051 10.8608816,21.3149176 C15.3144627,21.3149176 17.8907922,17.6155137 17.8907922,12.2161255 C17.8907922,7.49277804 15.4485333,3.45527686 11.004549,3.45527686 C9.50999686,3.49745255 8.07232314,4.04225569 6.92005176,5.00308392 C5.76776941,5.96392314 4.96702431,7.28563294 4.6450902,8.75812549 C4.47628863,9.32627294 4.37973804,9.9137349 4.35776627,10.5064235 L4.35776627,14.5439686 L4.35776627,14.5536314 L4.35776627,14.5536314 Z" id="path2_fill"></path>
                                                        </g>
                                                    </g>
                                                </g>
                                                <g id="path" transform="translate(71.274510, 6.588235)">
                                                    <g id="path3-fill">
                                                        <g id="path3_fill-link" transform="translate(0.032157, 0.230588)">
                                                            <path d="M4.56846902,0 L9.63496471,13.9187451 C10.1617271,15.473898 10.7363749,17.3284863 11.1195137,18.7483608 L11.2152627,18.7483608 C11.6462431,17.338149 12.125098,15.5318745 12.6998118,13.8318902 L17.2969725,0.00965911059 L21.7505098,0.00965911059 L15.4388706,16.8068078 C12.4220078,24.881898 10.3724298,29.0255686 7.49917961,31.5563294 C6.04731922,32.9182275 4.26777098,33.873851 2.33691294,34.3284392 L1.28338824,30.7256627 C2.63432784,30.2717333 3.88615843,29.5600941 4.97072471,28.6296157 C6.50323608,27.338102 7.71649255,25.7044392 8.51439373,23.8579765 C8.68474353,23.5391059 8.7982149,23.1925647 8.84960314,22.8341647 C8.81177569,22.4478745 8.71485176,22.0699294 8.56227922,21.7136157 L0,0.00965911059 L4.59719373,0.00965911059 L4.56846902,0 L4.56846902,0 Z" id="path3_fill"></path>
                                                        </g>
                                                    </g>
                                                </g>
                                                <g id="path" transform="translate(95.529412, 0.000000)">
                                                    <g id="path4-fill">
                                                        <g id="path4_fill-link" transform="translate(0.878431, 0.043922)">
                                                            <path d="M7.70988235,6.76137412 L13.7341647,6.76137412 L13.7341647,10.0261522 L7.70988235,10.0261522 L7.70988235,22.7182118 C7.70988235,25.6159373 8.52396863,27.2965961 10.8704565,27.2965961 C11.6936784,27.3095529 12.514902,27.2120471 13.3127373,27.0068235 L13.5042353,30.2233098 C12.3057255,30.6490196 11.0390275,30.8455686 9.76904627,30.8028549 C8.92683922,30.854902 8.08351216,30.7211608 7.2978102,30.4108549 C6.51211922,30.100549 5.80296157,29.6212549 5.21973804,29.0062431 C4.02254588,27.7409725 3.59156549,25.6449255 3.59156549,22.8728157 L3.59156549,10.0261522 L0,10.0261522 L0,6.76137412 L3.59156549,6.76137412 L3.59156549,1.11079843 L7.70988235,0 L7.70988235,6.76137412 Z" id="path4_fill"></path>
                                                        </g>
                                                    </g>
                                                </g>
                                                <g id="path" transform="translate(113.098039, 5.490196)">
                                                    <g id="path5-fill">
                                                        <g id="path5_fill-link" transform="translate(0.823529, 0.779608)">
                                                            <path d="M3.98423529,13.0977412 C4.08001725,18.8931922 7.71945725,21.2790118 11.9239373,21.2790118 C14.122102,21.3486275 16.3088471,20.9332392 18.3313255,20.0619451 L19.0496627,23.1239373 C16.6264,24.1502745 14.0151529,24.6473569 11.3876549,24.5824627 C4.26198431,24.5824627 0,19.8108235 0,12.7016784 C0,5.59262118 4.11832784,0 10.8608816,0 C18.4175216,0 20.4383529,6.76137412 20.4383529,11.0983216 C20.4312157,11.7671373 20.3833412,12.4348549 20.2947294,13.0977412 L4.01297098,13.0977412 L3.98423529,13.0977412 L3.98423529,13.0977412 Z M16.3296,10.0358149 C16.3774745,7.31194196 15.2282667,3.0716 10.4969365,3.0716 C6.23495216,3.0716 4.37691608,7.06080941 4.04170667,10.0358149 L16.3391529,10.0358149 L16.3296,10.0358149 L16.3296,10.0358149 Z" id="path5_fill"></path>
                                                        </g>
                                                    </g>
                                                </g>
                                                <g id="path" transform="translate(139.450980, 5.490196)">
                                                    <g id="path6-fill">
                                                        <g id="path6_fill-link" transform="translate(0.845490, 0.790588)">
                                                            <path d="M0,0.531737569 L3.68733647,0.531737569 L3.83099294,5.15844549 L4.02254588,5.15844549 C5.07607059,1.99026196 7.61411137,0.000486244706 10.4298902,0.000486244706 C10.8335843,-0.00546669804 11.2362353,0.0432640627 11.6270275,0.145372706 L11.6270275,4.18288157 C11.1553098,4.0791498 10.6732596,4.03053961 10.1904518,4.03799529 C7.22143059,4.03799529 5.12395608,6.32719843 4.54930824,9.53402196 C4.43076392,10.1940204 4.36669333,10.8627812 4.35775529,11.5334745 L4.35775529,24.0903216 L0.191549647,24.0903216 L0.191549647,7.88231843 C0.191549647,5.11015373 0.143661961,2.72435608 0,0.531737569 Z" id="path6_fill"></path>
                                                        </g>
                                                    </g>
                                                </g>
                                            </g>
                                        </g>
                                        <text id="POWERED-BY" font-family="MyriadPro-Bold, Myriad Pro" font-size="10" font-weight="bold" letter-spacing="2" fill="#F37726">
                                            <tspan x="8" y="8">POWERED BY</tspan>
                                        </text>
                                    </g>
                                </g>
                            </g>
                        </g>
                    </g>
                </g>
            </g>
        </g>
    </g>
</svg>