<?xml version="1.0" encoding="utf-8"?>
<!-- Generator: Adobe Illustrator 16.0.0, SVG Export Plug-In . SVG Version: 6.00 Build 0)  -->
<!DOCTYPE svg PUBLIC "-//W3C//DTD SVG 1.1//EN" "http://www.w3.org/Graphics/SVG/1.1/DTD/svg11.dtd">
<svg version="1.1" id="Layer_1" xmlns="http://www.w3.org/2000/svg" xmlns:xlink="http://www.w3.org/1999/xlink" x="0px" y="0px"
	 width="1000px" height="1000px" viewBox="0 0 1000 1000" enable-background="new 0 0 1000 1000" xml:space="preserve">
<path d="M709.338,585.109l-147.32-86.035l146.327-87.643c15.126-9.088,19.944-28.105,10.528-43.127
	c-9.447-15.022-29.323-19.37-44.427-10.28L529,444.962V279.417C529,263.169,515.645,250,499,250c-16.646,0-30,13.169-30,29.416
	v165.428l-145.342-84.925c-15.25-8.901-34.772-4.332-44.061,10.77c-9.266,15.143-4.103,34.084,11.135,42.987l147.394,86.076
	l-146.38,87.681c-15.167,9.062-20.06,28.092-10.666,43.145c9.475,14.992,29.03,19.324,44.133,10.281L469,554.691V720.59
	c0,16.254,13.354,29.41,30,29.41c16.645,0,30-13.156,30-29.41V553.174l147.069,85.715c15.245,8.871,34.941,4.295,44.235-10.83
	C729.59,612.951,724.579,593.984,709.338,585.109z"/>
</svg>
