<?xml version="1.0" encoding="utf-8"?>
<!-- Generator: Adobe Illustrator 16.0.0, SVG Export Plug-In . SVG Version: 6.00 Build 0)  -->
<!DOCTYPE svg PUBLIC "-//W3C//DTD SVG 1.1//EN" "http://www.w3.org/Graphics/SVG/1.1/DTD/svg11.dtd">
<svg version="1.1" id="Layer_1" xmlns="http://www.w3.org/2000/svg" xmlns:xlink="http://www.w3.org/1999/xlink" x="0px" y="0px"
	 width="1000px" height="1000px" viewBox="0 0 1000 1000" enable-background="new 0 0 1000 1000" xml:space="preserve">
<g>
	<g>
		<path fill="#D66661" d="M245.323,519.972c107.962,0,195.462,87.525,195.462,195.463c0,107.961-87.5,195.462-195.462,195.462
			c-107.938,0-195.463-87.501-195.463-195.462C49.86,607.497,137.386,519.972,245.323,519.972z"/>
		<path fill="#C93D39" d="M245.323,948.396c-62.222,0-120.722-24.23-164.723-68.228c-44.005-44.001-68.24-102.505-68.24-164.734
			c0-62.22,24.234-120.721,68.238-164.725c44.004-44.004,102.504-68.238,164.725-68.238c62.23,0,120.733,24.234,164.734,68.239
			c43.998,44.002,68.228,102.502,68.228,164.724c0,62.231-24.231,120.734-68.229,164.732
			C366.059,924.166,307.555,948.396,245.323,948.396z M245.323,557.472c-87.101,0-157.963,70.862-157.963,157.963
			s70.862,157.962,157.963,157.962c87.101,0,157.962-70.861,157.962-157.962S332.424,557.472,245.323,557.472z"/>
	</g>
	<g>
		<path fill="#6BAB5B" d="M498.539,89.104c107.938,0,195.438,87.511,195.438,195.45c0,107.95-87.501,195.451-195.438,195.451
			c-107.961,0-195.462-87.501-195.462-195.451C303.077,176.614,390.578,89.104,498.539,89.104z"/>
		<path fill="#3B972E" d="M498.539,517.505c-62.231,0-120.734-24.23-164.733-68.227c-43.999-43.997-68.229-102.497-68.229-164.724
			c0-62.223,24.231-120.721,68.229-164.719c44-44,102.503-68.231,164.733-68.231c62.22,0,120.717,24.232,164.713,68.232
			c43.996,43.999,68.226,102.497,68.226,164.718c0,62.225-24.229,120.725-68.226,164.723
			C619.256,493.274,560.76,517.505,498.539,517.505z M498.539,126.604c-87.101,0-157.962,70.856-157.962,157.95
			c0,87.095,70.862,157.951,157.962,157.951c87.088,0,157.938-70.856,157.938-157.951
			C656.478,197.459,585.627,126.604,498.539,126.604z"/>
	</g>
	<g>
		<path fill="#AA7DC0" d="M754.676,517.025c107.963,0,195.464,87.523,195.464,195.438c0,107.961-87.501,195.462-195.464,195.462
			c-107.938,0-195.438-87.501-195.438-195.462C559.237,604.549,646.738,517.025,754.676,517.025z"/>
		<path fill="#945BB0" d="M754.676,945.426c-62.222,0-120.718-24.231-164.714-68.23c-43.995-43.999-68.225-102.502-68.225-164.731
			c0-62.211,24.229-120.704,68.226-164.703c43.998-44.002,102.495-68.235,164.713-68.235c62.229,0,120.732,24.232,164.734,68.234
			c43.998,43.998,68.229,102.491,68.229,164.704c0,62.231-24.231,120.734-68.229,164.732
			C875.412,921.195,816.908,945.426,754.676,945.426z M754.676,554.525c-87.088,0-157.938,70.851-157.938,157.938
			c0,87.101,70.851,157.962,157.938,157.962c87.102,0,157.964-70.861,157.964-157.962
			C912.64,625.376,841.777,554.525,754.676,554.525z"/>
	</g>
</g>
</svg>
