<?xml version="1.0" encoding="utf-8"?>
<!-- Generator: Adobe Illustrator 16.0.0, SVG Export Plug-In . SVG Version: 6.00 Build 0)  -->
<!DOCTYPE svg PUBLIC "-//W3C//DTD SVG 1.1//EN" "http://www.w3.org/Graphics/SVG/1.1/DTD/svg11.dtd">
<svg version="1.1" id="Layer_1" xmlns="http://www.w3.org/2000/svg" xmlns:xlink="http://www.w3.org/1999/xlink" x="0px" y="0px"
	 width="1000px" height="1000px" viewBox="0 0 1000 1000" enable-background="new 0 0 1000 1000" xml:space="preserve">
<g>
	
		<linearGradient id="path1948_1_" gradientUnits="userSpaceOnUse" x1="-347.8608" y1="1117.7334" x2="609.0181" y2="294.4668" gradientTransform="matrix(0.5625 0 0 -0.568 184.7222 668.0195)">
		<stop  offset="0" style="stop-color:#5A9FD4"/>
		<stop  offset="1" style="stop-color:#306998"/>
	</linearGradient>
	<path id="path1948" fill="url(#path1948_1_)" d="M494.997,5.099c-40.233,0.188-78.65,3.617-112.455,9.6
		c-99.585,17.597-117.666,54.419-117.666,122.33v89.689h235.331v29.896H264.876h-88.319c-68.394,0-128.281,41.108-147.013,119.312
		c-21.608,89.638-22.568,145.574,0,239.172c16.726,69.676,56.677,119.311,125.072,119.311h80.913V626.892
		c0-77.672,67.207-146.192,147.013-146.192h235.054c65.432,0,117.665-53.869,117.665-119.586V137.028
		c0-63.771-53.793-111.684-117.665-122.33C577.174,7.971,535.227,4.911,494.997,5.099z M367.731,77.235
		c24.308,0,44.159,20.176,44.159,44.982c0,24.719-19.851,44.707-44.159,44.707c-24.398,0-44.159-19.988-44.159-44.707
		C323.572,97.411,343.333,77.235,367.731,77.235z"/>
	
		<linearGradient id="path1950_1_" gradientUnits="userSpaceOnUse" x1="978.9404" y1="-203.7383" x2="637.2578" y2="279.6833" gradientTransform="matrix(0.5625 0 0 -0.568 184.7222 668.0195)">
		<stop  offset="0" style="stop-color:#FFD43B"/>
		<stop  offset="1" style="stop-color:#FFE873"/>
	</linearGradient>
	<path id="path1950" fill="url(#path1950_1_)" d="M764.608,256.613v104.5c0,81.024-68.69,149.208-147.013,149.208H382.542
		c-64.387,0-117.666,55.104-117.666,119.586v224.087c0,63.778,55.456,101.295,117.666,119.585
		c74.493,21.907,145.931,25.868,235.054,0c59.244-17.151,117.665-51.676,117.665-119.585v-89.689H500.207v-29.897h235.054h117.667
		c68.398,0,93.89-47.707,117.666-119.311c24.573-73.714,23.527-144.605,0-239.172c-16.903-68.082-49.182-119.312-117.666-119.312
		H764.608z M632.406,824.099c24.395,0,44.159,19.988,44.159,44.707c0,24.805-19.765,44.981-44.159,44.981
		c-24.308,0-44.158-20.177-44.158-44.981C588.248,844.087,608.099,824.099,632.406,824.099z"/>
</g>
</svg>
