<?xml version="1.0" encoding="utf-8"?>
<!-- Generator: Adobe Illustrator 18.0.0, SVG Export Plug-In . SVG Version: 6.00 Build 0)  -->
<!DOCTYPE svg PUBLIC "-//W3C//DTD SVG 1.1//EN" "http://www.w3.org/Graphics/SVG/1.1/DTD/svg11.dtd">
<svg version="1.1" id="Layer_1" xmlns="http://www.w3.org/2000/svg" xmlns:xlink="http://www.w3.org/1999/xlink" x="0px" y="0px"
	 viewBox="0 0 792 612" enable-background="new 0 0 792 612" xml:space="preserve">
<g>
	<path fill="#414042" d="M-2551.7-1055.8c0,12.7-1,16.9-3.6,20c-2.3,2.5-6.1,3.7-10.5,4.1l1,7.6c5.2,0,12.2-1.8,16.5-6
		c4.7-4.8,6.4-11.5,6.4-21.9v-48.2h-9.7V-1055.8z"/>
	<path fill="#414042" d="M-2479.5-1061.7c0,5.5,0.1,10.3,0.4,14.5h-8.6l-0.5-8.7h-0.2c-2.5,4.3-8.1,9.9-17.6,9.9
		c-8.3,0-18.3-4.6-18.3-23.3v-31.1h9.7v29.4c0,10.1,3.1,16.9,11.9,16.9c6.5,0,11-4.5,12.7-8.8c0.5-1.4,0.9-3.2,0.9-4.9v-32.6h9.7
		V-1061.7z"/>
	<path fill="#414042" d="M-2461.3-1083c0-6.8-0.2-12.3-0.4-17.3h8.7l0.4,9.1h0.2c4-6.5,10.2-10.3,18.9-10.3
		c12.8,0,22.5,10.9,22.5,27c0,19.1-11.6,28.5-24.2,28.5c-7,0-13.2-3.1-16.4-8.3h-0.2v28.9h-9.6V-1083z M-2451.7-1068.8
		c0,1.4,0.2,2.7,0.4,4c1.8,6.7,7.6,11.3,14.5,11.3c10.2,0,16.1-8.3,16.1-20.5c0-10.7-5.6-19.8-15.8-19.8c-6.6,0-12.7,4.7-14.6,12
		c-0.3,1.2-0.7,2.6-0.7,4V-1068.8z"/>
	<path fill="#414042" d="M-2393.9-1100.3l11.6,31.4c1.2,3.5,2.5,7.7,3.4,10.9h0.2c1-3.2,2.1-7.2,3.4-11.1l10.5-31.2h10.2l-14.5,37.9
		c-6.9,18.2-11.6,27.6-18.2,33.3c-4.7,4.2-9.4,5.8-11.9,6.3l-2.4-8.1c2.4-0.8,5.6-2.3,8.5-4.7c2.6-2.1,5.9-5.8,8.1-10.8
		c0.4-1,0.8-1.8,0.8-2.3c0-0.5-0.2-1.3-0.7-2.5l-19.7-49H-2393.9z"/>
	<path fill="#414042" d="M-2329-1115.6v15.3h13.8v7.4h-13.8v28.7c0,6.6,1.9,10.3,7.2,10.3c2.5,0,4.4-0.3,5.6-0.7l0.4,7.2
		c-1.9,0.8-4.8,1.3-8.6,1.3c-4.5,0-8.1-1.4-10.4-4.1c-2.7-2.9-3.7-7.6-3.7-13.8v-29h-8.2v-7.4h8.2v-12.7L-2329-1115.6z"/>
	<path fill="#414042" d="M-2297.4-1072c0.2,13.1,8.6,18.4,18.2,18.4c6.9,0,11.1-1.2,14.7-2.7l1.6,6.9c-3.4,1.5-9.2,3.3-17.7,3.3
		c-16.4,0-26.1-10.8-26.1-26.8s9.4-28.7,24.9-28.7c17.3,0,22,15.3,22,25c0,2-0.2,3.5-0.3,4.5H-2297.4z M-2269.1-1078.9
		c0.1-6.1-2.5-15.7-13.4-15.7c-9.8,0-14.1,9-14.8,15.7H-2269.1z"/>
	<path fill="#414042" d="M-2245.6-1083.7c0-6.3-0.1-11.6-0.4-16.6h8.5l0.3,10.4h0.4c2.4-7.1,8.2-11.6,14.7-11.6
		c1.1,0,1.9,0.1,2.7,0.3v9.1c-1-0.2-2-0.3-3.3-0.3c-6.8,0-11.6,5.2-13,12.4c-0.2,1.3-0.4,2.9-0.4,4.5v28.3h-9.6V-1083.7z"/>
</g>
<linearGradient id="SVGID_1_" gradientUnits="userSpaceOnUse" x1="-2304.229" y1="-1247.236" x2="-2261.3936" y2="-1247.236">
	<stop  offset="0" style="stop-color:#808285"/>
	<stop  offset="9.314537e-02" style="stop-color:#797B7E"/>
	<stop  offset="0.4706" style="stop-color:#606163"/>
	<stop  offset="0.7864" style="stop-color:#4F4F51"/>
	<stop  offset="1" style="stop-color:#48484A"/>
</linearGradient>
<circle fill="url(#SVGID_1_)" cx="-2282.8" cy="-1247.2" r="21.4"/>
<g>
	<linearGradient id="SVGID_2_" gradientUnits="userSpaceOnUse" x1="-2544.8279" y1="-966.3202" x2="-2240.3093" y2="-966.3202">
		<stop  offset="5.220520e-02" style="stop-color:#F78D26"/>
		<stop  offset="0.2056" style="stop-color:#F68826"/>
		<stop  offset="0.4323" style="stop-color:#F37A25"/>
		<stop  offset="0.4766" style="stop-color:#F37625"/>
		<stop  offset="0.6159" style="stop-color:#E76623"/>
		<stop  offset="0.8356" style="stop-color:#DC5221"/>
		<stop  offset="0.9873" style="stop-color:#D84B21"/>
	</linearGradient>
	<path fill="url(#SVGID_2_)" d="M-2392.6-961.5c-65.5,0-122.6-23.5-152.3-58.3c22.5,62.4,82.2,106.9,152.3,106.9
		s129.8-44.6,152.3-106.9C-2270-985-2327.1-961.5-2392.6-961.5z"/>
	<linearGradient id="SVGID_3_" gradientUnits="userSpaceOnUse" x1="-2544.8279" y1="-1182.9955" x2="-2240.3093" y2="-1182.9955">
		<stop  offset="5.220520e-02" style="stop-color:#F78D26"/>
		<stop  offset="0.2056" style="stop-color:#F68826"/>
		<stop  offset="0.4323" style="stop-color:#F37A25"/>
		<stop  offset="0.4766" style="stop-color:#F37625"/>
		<stop  offset="0.6159" style="stop-color:#E76623"/>
		<stop  offset="0.8356" style="stop-color:#DC5221"/>
		<stop  offset="0.9873" style="stop-color:#D84B21"/>
	</linearGradient>
	<path fill="url(#SVGID_3_)" d="M-2392.6-1187.9c65.5,0,122.6,23.5,152.3,58.3c-22.5-62.4-82.2-106.9-152.3-106.9
		s-129.8,44.6-152.3,106.9C-2515.1-1164.3-2458.1-1187.9-2392.6-1187.9z"/>
</g>
<linearGradient id="SVGID_4_" gradientUnits="userSpaceOnUse" x1="-2527.8525" y1="-893.4588" x2="-2476.2976" y2="-893.4588">
	<stop  offset="1.435499e-02" style="stop-color:#BCBEC0"/>
	<stop  offset="1" style="stop-color:#6D6E71"/>
</linearGradient>
<circle fill="url(#SVGID_4_)" cx="-2502.1" cy="-893.5" r="25.8"/>
<linearGradient id="SVGID_5_" gradientUnits="userSpaceOnUse" x1="-2543.2227" y1="-1217.896" x2="-2511.8098" y2="-1217.896">
	<stop  offset="0" style="stop-color:#6D6E71"/>
	<stop  offset="0.39" style="stop-color:#555658"/>
	<stop  offset="0.752" style="stop-color:#434244"/>
	<stop  offset="0.9969" style="stop-color:#383839"/>
</linearGradient>
<circle fill="url(#SVGID_5_)" cx="-2527.5" cy="-1217.9" r="15.7"/>
<linearGradient id="SVGID_6_" gradientUnits="userSpaceOnUse" x1="-2304.229" y1="126.9316" x2="-2261.3936" y2="126.9316">
	<stop  offset="0" style="stop-color:#808285"/>
	<stop  offset="9.314537e-02" style="stop-color:#797B7E"/>
	<stop  offset="0.4706" style="stop-color:#606163"/>
	<stop  offset="0.7864" style="stop-color:#4F4F51"/>
	<stop  offset="1" style="stop-color:#48484A"/>
</linearGradient>
<circle fill="url(#SVGID_6_)" cx="-2282.8" cy="126.9" r="21.4"/>
<g>
	<linearGradient id="SVGID_7_" gradientUnits="userSpaceOnUse" x1="-2544.8279" y1="407.8473" x2="-2240.3093" y2="407.8473">
		<stop  offset="5.220520e-02" style="stop-color:#F78D26"/>
		<stop  offset="0.2056" style="stop-color:#F68826"/>
		<stop  offset="0.4323" style="stop-color:#F37A25"/>
		<stop  offset="0.4766" style="stop-color:#F37625"/>
		<stop  offset="0.6159" style="stop-color:#E76623"/>
		<stop  offset="0.8356" style="stop-color:#DC5221"/>
		<stop  offset="0.9873" style="stop-color:#D84B21"/>
	</linearGradient>
	<path fill="url(#SVGID_7_)" d="M-2392.6,412.7c-65.5,0-122.6-23.5-152.3-58.3c22.5,62.4,82.2,106.9,152.3,106.9
		s129.8-44.6,152.3-106.9C-2270,389.2-2327.1,412.7-2392.6,412.7z"/>
	<linearGradient id="SVGID_8_" gradientUnits="userSpaceOnUse" x1="-2544.8279" y1="191.172" x2="-2240.3093" y2="191.172">
		<stop  offset="5.220520e-02" style="stop-color:#F78D26"/>
		<stop  offset="0.2056" style="stop-color:#F68826"/>
		<stop  offset="0.4323" style="stop-color:#F37A25"/>
		<stop  offset="0.4766" style="stop-color:#F37625"/>
		<stop  offset="0.6159" style="stop-color:#E76623"/>
		<stop  offset="0.8356" style="stop-color:#DC5221"/>
		<stop  offset="0.9873" style="stop-color:#D84B21"/>
	</linearGradient>
	<path fill="url(#SVGID_8_)" d="M-2392.6,186.3c65.5,0,122.6,23.5,152.3,58.3c-22.5-62.4-82.2-106.9-152.3-106.9
		s-129.8,44.6-152.3,106.9C-2515.1,209.9-2458.1,186.3-2392.6,186.3z"/>
</g>
<linearGradient id="SVGID_9_" gradientUnits="userSpaceOnUse" x1="-2527.8525" y1="480.7087" x2="-2476.2976" y2="480.7087">
	<stop  offset="1.435499e-02" style="stop-color:#BCBEC0"/>
	<stop  offset="1" style="stop-color:#6D6E71"/>
</linearGradient>
<circle fill="url(#SVGID_9_)" cx="-2502.1" cy="480.7" r="25.8"/>
<linearGradient id="SVGID_10_" gradientUnits="userSpaceOnUse" x1="-2543.2227" y1="156.2715" x2="-2511.8098" y2="156.2715">
	<stop  offset="0" style="stop-color:#6D6E71"/>
	<stop  offset="0.39" style="stop-color:#555658"/>
	<stop  offset="0.752" style="stop-color:#434244"/>
	<stop  offset="0.9969" style="stop-color:#383839"/>
</linearGradient>
<circle fill="url(#SVGID_10_)" cx="-2527.5" cy="156.3" r="15.7"/>
<g>
	<path fill="#414042" d="M-1591.7-1055.8c0,12.7-1,16.9-3.6,20c-2.3,2.5-6.1,3.7-10.5,4.1l1,7.6c5.2,0,12.2-1.8,16.5-6
		c4.7-4.8,6.4-11.5,6.4-21.9v-48.2h-9.7V-1055.8z"/>
	<path fill="#414042" d="M-1519.6-1061.7c0,5.5,0.1,10.3,0.4,14.5h-8.6l-0.5-8.7h-0.2c-2.5,4.3-8.1,9.9-17.6,9.9
		c-8.3,0-18.3-4.6-18.3-23.3v-31.1h9.7v29.4c0,10.1,3.1,16.9,11.9,16.9c6.5,0,11-4.5,12.7-8.8c0.5-1.4,0.9-3.2,0.9-4.9v-32.6h9.7
		V-1061.7z"/>
	<path fill="#414042" d="M-1501.4-1083c0-6.8-0.2-12.3-0.4-17.3h8.7l0.4,9.1h0.2c4-6.5,10.2-10.3,18.9-10.3
		c12.8,0,22.5,10.9,22.5,27c0,19.1-11.6,28.5-24.2,28.5c-7,0-13.2-3.1-16.4-8.3h-0.2v28.9h-9.6V-1083z M-1491.8-1068.8
		c0,1.4,0.2,2.7,0.4,4c1.8,6.7,7.6,11.3,14.5,11.3c10.2,0,16.1-8.3,16.1-20.5c0-10.7-5.6-19.8-15.8-19.8c-6.6,0-12.7,4.7-14.6,12
		c-0.3,1.2-0.7,2.6-0.7,4V-1068.8z"/>
	<path fill="#414042" d="M-1434-1100.3l11.6,31.4c1.2,3.5,2.5,7.7,3.4,10.9h0.2c1-3.2,2.1-7.2,3.4-11.1l10.5-31.2h10.2l-14.5,37.9
		c-6.9,18.2-11.6,27.6-18.2,33.3c-4.7,4.2-9.4,5.8-11.9,6.3l-2.4-8.1c2.4-0.8,5.6-2.3,8.5-4.7c2.6-2.1,5.9-5.8,8.1-10.8
		c0.4-1,0.8-1.8,0.8-2.3c0-0.5-0.2-1.3-0.7-2.5l-19.7-49H-1434z"/>
	<path fill="#414042" d="M-1369.1-1115.6v15.3h13.8v7.4h-13.8v28.7c0,6.6,1.9,10.3,7.2,10.3c2.5,0,4.4-0.3,5.6-0.7l0.4,7.2
		c-1.9,0.8-4.8,1.3-8.6,1.3c-4.5,0-8.1-1.4-10.4-4.1c-2.7-2.9-3.7-7.6-3.7-13.8v-29h-8.2v-7.4h8.2v-12.7L-1369.1-1115.6z"/>
	<path fill="#414042" d="M-1337.5-1072c0.2,13.1,8.6,18.4,18.2,18.4c6.9,0,11.1-1.2,14.7-2.7l1.6,6.9c-3.4,1.5-9.2,3.3-17.7,3.3
		c-16.4,0-26.1-10.8-26.1-26.8s9.4-28.7,24.9-28.7c17.3,0,22,15.3,22,25c0,2-0.2,3.5-0.3,4.5H-1337.5z M-1309.2-1078.9
		c0.1-6.1-2.5-15.7-13.4-15.7c-9.8,0-14.1,9-14.8,15.7H-1309.2z"/>
	<path fill="#414042" d="M-1285.7-1083.7c0-6.3-0.1-11.6-0.4-16.6h8.5l0.3,10.4h0.4c2.4-7.1,8.2-11.6,14.7-11.6
		c1.1,0,1.9,0.1,2.7,0.3v9.1c-1-0.2-2-0.3-3.3-0.3c-6.8,0-11.6,5.2-13,12.4c-0.2,1.3-0.4,2.9-0.4,4.5v28.3h-9.6V-1083.7z"/>
</g>
<linearGradient id="SVGID_11_" gradientUnits="userSpaceOnUse" x1="-1344.3137" y1="-1247.236" x2="-1301.4784" y2="-1247.236">
	<stop  offset="0" style="stop-color:#808285"/>
	<stop  offset="9.314537e-02" style="stop-color:#797B7E"/>
	<stop  offset="0.4706" style="stop-color:#606163"/>
	<stop  offset="0.7864" style="stop-color:#4F4F51"/>
	<stop  offset="1" style="stop-color:#48484A"/>
</linearGradient>
<circle fill="url(#SVGID_11_)" cx="-1322.9" cy="-1247.2" r="21.4"/>
<g>
	<linearGradient id="SVGID_12_" gradientUnits="userSpaceOnUse" x1="-1584.9127" y1="-966.3202" x2="-1280.394" y2="-966.3202">
		<stop  offset="7.414178e-02" style="stop-color:#BCBEC0"/>
		<stop  offset="0.3771" style="stop-color:#6D6E71"/>
		<stop  offset="0.4846" style="stop-color:#5E5F61"/>
		<stop  offset="0.697" style="stop-color:#414143"/>
		<stop  offset="0.8764" style="stop-color:#1A191A"/>
		<stop  offset="1" style="stop-color:#000000"/>
	</linearGradient>
	<path fill="url(#SVGID_12_)" d="M-1432.7-961.5c-65.5,0-122.6-23.5-152.3-58.3c22.5,62.4,82.2,106.9,152.3,106.9
		c70.1,0,129.8-44.6,152.3-106.9C-1310.1-985-1367.1-961.5-1432.7-961.5z"/>
	<linearGradient id="SVGID_13_" gradientUnits="userSpaceOnUse" x1="-1584.9127" y1="-1182.9955" x2="-1280.394" y2="-1182.9955">
		<stop  offset="7.414178e-02" style="stop-color:#BCBEC0"/>
		<stop  offset="0.3771" style="stop-color:#6D6E71"/>
		<stop  offset="0.4846" style="stop-color:#5E5F61"/>
		<stop  offset="0.697" style="stop-color:#414143"/>
		<stop  offset="0.8764" style="stop-color:#1A191A"/>
		<stop  offset="1" style="stop-color:#000000"/>
	</linearGradient>
	<path fill="url(#SVGID_13_)" d="M-1432.7-1187.9c65.5,0,122.6,23.5,152.3,58.3c-22.5-62.4-82.2-106.9-152.3-106.9
		c-70.1,0-129.8,44.6-152.3,106.9C-1555.2-1164.3-1498.2-1187.9-1432.7-1187.9z"/>
</g>
<linearGradient id="SVGID_14_" gradientUnits="userSpaceOnUse" x1="-1567.9373" y1="-893.4588" x2="-1516.3824" y2="-893.4588">
	<stop  offset="1.435499e-02" style="stop-color:#BCBEC0"/>
	<stop  offset="1" style="stop-color:#6D6E71"/>
</linearGradient>
<circle fill="url(#SVGID_14_)" cx="-1542.2" cy="-893.5" r="25.8"/>
<linearGradient id="SVGID_15_" gradientUnits="userSpaceOnUse" x1="-1583.3074" y1="-1217.896" x2="-1551.8947" y2="-1217.896">
	<stop  offset="0" style="stop-color:#6D6E71"/>
	<stop  offset="0.39" style="stop-color:#555658"/>
	<stop  offset="0.752" style="stop-color:#434244"/>
	<stop  offset="0.9969" style="stop-color:#383839"/>
</linearGradient>
<circle fill="url(#SVGID_15_)" cx="-1567.6" cy="-1217.9" r="15.7"/>
<linearGradient id="SVGID_16_" gradientUnits="userSpaceOnUse" x1="-1344.3137" y1="126.9316" x2="-1301.4784" y2="126.9316">
	<stop  offset="0" style="stop-color:#808285"/>
	<stop  offset="9.314537e-02" style="stop-color:#797B7E"/>
	<stop  offset="0.4706" style="stop-color:#606163"/>
	<stop  offset="0.7864" style="stop-color:#4F4F51"/>
	<stop  offset="1" style="stop-color:#48484A"/>
</linearGradient>
<circle fill="url(#SVGID_16_)" cx="-1322.9" cy="126.9" r="21.4"/>
<g>
	<linearGradient id="SVGID_17_" gradientUnits="userSpaceOnUse" x1="-1584.9127" y1="407.8473" x2="-1280.394" y2="407.8473">
		<stop  offset="7.414178e-02" style="stop-color:#BCBEC0"/>
		<stop  offset="0.3771" style="stop-color:#6D6E71"/>
		<stop  offset="0.4846" style="stop-color:#5E5F61"/>
		<stop  offset="0.697" style="stop-color:#414143"/>
		<stop  offset="0.8764" style="stop-color:#1A191A"/>
		<stop  offset="1" style="stop-color:#000000"/>
	</linearGradient>
	<path fill="url(#SVGID_17_)" d="M-1432.7,412.7c-65.5,0-122.6-23.5-152.3-58.3c22.5,62.4,82.2,106.9,152.3,106.9
		c70.1,0,129.8-44.6,152.3-106.9C-1310.1,389.2-1367.1,412.7-1432.7,412.7z"/>
	<linearGradient id="SVGID_18_" gradientUnits="userSpaceOnUse" x1="-1584.9127" y1="191.172" x2="-1280.394" y2="191.172">
		<stop  offset="7.414178e-02" style="stop-color:#BCBEC0"/>
		<stop  offset="0.3771" style="stop-color:#6D6E71"/>
		<stop  offset="0.4846" style="stop-color:#5E5F61"/>
		<stop  offset="0.697" style="stop-color:#414143"/>
		<stop  offset="0.8764" style="stop-color:#1A191A"/>
		<stop  offset="1" style="stop-color:#000000"/>
	</linearGradient>
	<path fill="url(#SVGID_18_)" d="M-1432.7,186.3c65.5,0,122.6,23.5,152.3,58.3c-22.5-62.4-82.2-106.9-152.3-106.9
		c-70.1,0-129.8,44.6-152.3,106.9C-1555.2,209.9-1498.2,186.3-1432.7,186.3z"/>
</g>
<linearGradient id="SVGID_19_" gradientUnits="userSpaceOnUse" x1="-1567.9373" y1="480.7087" x2="-1516.3824" y2="480.7087">
	<stop  offset="1.435499e-02" style="stop-color:#BCBEC0"/>
	<stop  offset="1" style="stop-color:#6D6E71"/>
</linearGradient>
<circle fill="url(#SVGID_19_)" cx="-1542.2" cy="480.7" r="25.8"/>
<linearGradient id="SVGID_20_" gradientUnits="userSpaceOnUse" x1="-1583.3074" y1="156.2715" x2="-1551.8947" y2="156.2715">
	<stop  offset="0" style="stop-color:#6D6E71"/>
	<stop  offset="0.39" style="stop-color:#555658"/>
	<stop  offset="0.752" style="stop-color:#434244"/>
	<stop  offset="0.9969" style="stop-color:#383839"/>
</linearGradient>
<circle fill="url(#SVGID_20_)" cx="-1567.6" cy="156.3" r="15.7"/>
<g>
	<path fill="#414042" d="M-654.4-1055.8c0,12.7-1,16.9-3.6,20c-2.3,2.5-6.1,3.7-10.5,4.1l1,7.6c5.2,0,12.2-1.8,16.5-6
		c4.7-4.8,6.4-11.5,6.4-21.9v-48.2h-9.7V-1055.8z"/>
	<path fill="#414042" d="M-582.3-1061.7c0,5.5,0.1,10.3,0.4,14.5h-8.6l-0.5-8.7h-0.2c-2.5,4.3-8.1,9.9-17.6,9.9
		c-8.3,0-18.3-4.6-18.3-23.3v-31.1h9.7v29.4c0,10.1,3.1,16.9,11.9,16.9c6.5,0,11-4.5,12.7-8.8c0.5-1.4,0.9-3.2,0.9-4.9v-32.6h9.7
		V-1061.7z"/>
	<path fill="#414042" d="M-564.1-1083c0-6.8-0.2-12.3-0.4-17.3h8.7l0.4,9.1h0.2c4-6.5,10.2-10.3,18.9-10.3c12.8,0,22.5,10.9,22.5,27
		c0,19.1-11.6,28.5-24.2,28.5c-7,0-13.2-3.1-16.4-8.3h-0.2v28.9h-9.6V-1083z M-554.5-1068.8c0,1.4,0.2,2.7,0.4,4
		c1.8,6.7,7.6,11.3,14.5,11.3c10.2,0,16.1-8.3,16.1-20.5c0-10.7-5.6-19.8-15.8-19.8c-6.6,0-12.7,4.7-14.6,12c-0.3,1.2-0.7,2.6-0.7,4
		V-1068.8z"/>
	<path fill="#414042" d="M-496.6-1100.3l11.6,31.4c1.2,3.5,2.5,7.7,3.4,10.9h0.2c1-3.2,2.1-7.2,3.4-11.1l10.5-31.2h10.2l-14.5,37.9
		c-6.9,18.2-11.6,27.6-18.2,33.3c-4.7,4.2-9.4,5.8-11.9,6.3l-2.4-8.1c2.4-0.8,5.6-2.3,8.5-4.7c2.6-2.1,5.9-5.8,8.1-10.8
		c0.4-1,0.8-1.8,0.8-2.3c0-0.5-0.2-1.3-0.7-2.5l-19.7-49H-496.6z"/>
	<path fill="#414042" d="M-431.8-1115.6v15.3h13.8v7.4h-13.8v28.7c0,6.6,1.9,10.3,7.2,10.3c2.5,0,4.4-0.3,5.6-0.7l0.4,7.2
		c-1.9,0.8-4.8,1.3-8.6,1.3c-4.5,0-8.1-1.4-10.4-4.1c-2.7-2.9-3.7-7.6-3.7-13.8v-29h-8.2v-7.4h8.2v-12.7L-431.8-1115.6z"/>
	<path fill="#414042" d="M-400.2-1072c0.2,13.1,8.6,18.4,18.2,18.4c6.9,0,11.1-1.2,14.7-2.7l1.6,6.9c-3.4,1.5-9.2,3.3-17.7,3.3
		c-16.4,0-26.1-10.8-26.1-26.8s9.4-28.7,24.9-28.7c17.3,0,22,15.3,22,25c0,2-0.2,3.5-0.3,4.5H-400.2z M-371.9-1078.9
		c0.1-6.1-2.5-15.7-13.4-15.7c-9.8,0-14.1,9-14.8,15.7H-371.9z"/>
	<path fill="#414042" d="M-348.4-1083.7c0-6.3-0.1-11.6-0.4-16.6h8.5l0.3,10.4h0.4c2.4-7.1,8.2-11.6,14.7-11.6
		c1.1,0,1.9,0.1,2.7,0.3v9.1c-1-0.2-2-0.3-3.3-0.3c-6.8,0-11.6,5.2-13,12.4c-0.2,1.3-0.4,2.9-0.4,4.5v28.3h-9.6V-1083.7z"/>
</g>
<circle fill="#6D6E71" cx="-385.6" cy="-1247.2" r="21.4"/>
<g>
	<path fill="#F37625" d="M-495.3-961.5c-65.5,0-122.6-23.5-152.3-58.3c22.5,62.4,82.2,106.9,152.3,106.9s129.8-44.6,152.3-106.9
		C-372.8-985-429.8-961.5-495.3-961.5z"/>
	<path fill="#F37625" d="M-495.3-1187.9c65.5,0,122.6,23.5,152.3,58.3c-22.5-62.4-82.2-106.9-152.3-106.9s-129.8,44.6-152.3,106.9
		C-617.9-1164.3-560.8-1187.9-495.3-1187.9z"/>
</g>
<circle fill="#939598" cx="-604.8" cy="-893.5" r="25.8"/>
<circle fill="#58595B" cx="-630.3" cy="-1217.9" r="15.7"/>
<circle fill="#6D6E71" cx="-385.6" cy="126.9" r="21.4"/>
<g>
	<path fill="#F37625" d="M-495.3,412.7c-65.5,0-122.6-23.5-152.3-58.3c22.5,62.4,82.2,106.9,152.3,106.9s129.8-44.6,152.3-106.9
		C-372.8,389.2-429.8,412.7-495.3,412.7z"/>
	<path fill="#F37625" d="M-495.3,186.3c65.5,0,122.6,23.5,152.3,58.3c-22.5-62.4-82.2-106.9-152.3-106.9s-129.8,44.6-152.3,106.9
		C-617.9,209.9-560.8,186.3-495.3,186.3z"/>
</g>
<circle fill="#939598" cx="-604.8" cy="480.7" r="25.8"/>
<circle fill="#58595B" cx="-630.3" cy="156.3" r="15.7"/>
<g>
	<path d="M236.9-1055.8c0,12.7-1,16.9-3.6,20c-2.3,2.5-6.1,3.7-10.5,4.1l1,7.6c5.2,0,12.2-1.8,16.5-6c4.7-4.8,6.4-11.5,6.4-21.9
		v-48.2h-9.7V-1055.8z"/>
	<path d="M309.1-1061.7c0,5.5,0.1,10.3,0.4,14.5h-8.6l-0.5-8.7h-0.2c-2.5,4.3-8.1,9.9-17.6,9.9c-8.3,0-18.3-4.6-18.3-23.3v-31.1h9.7
		v29.4c0,10.1,3.1,16.9,11.9,16.9c6.5,0,11-4.5,12.7-8.8c0.5-1.4,0.9-3.2,0.9-4.9v-32.6h9.7V-1061.7z"/>
	<path d="M327.3-1083c0-6.8-0.2-12.3-0.4-17.3h8.7l0.4,9.1h0.2c4-6.5,10.2-10.3,18.9-10.3c12.8,0,22.5,10.9,22.5,27
		c0,19.1-11.6,28.5-24.2,28.5c-7,0-13.2-3.1-16.4-8.3h-0.2v28.9h-9.6V-1083z M336.8-1068.8c0,1.4,0.2,2.7,0.4,4
		c1.8,6.7,7.6,11.3,14.5,11.3c10.2,0,16.1-8.3,16.1-20.5c0-10.7-5.6-19.8-15.8-19.8c-6.6,0-12.7,4.7-14.6,12c-0.3,1.2-0.7,2.6-0.7,4
		V-1068.8z"/>
	<path d="M394.7-1100.3l11.6,31.4c1.2,3.5,2.5,7.7,3.4,10.9h0.2c1-3.2,2.1-7.2,3.4-11.1l10.5-31.2h10.2l-14.5,37.9
		c-6.9,18.2-11.6,27.6-18.2,33.3c-4.7,4.2-9.4,5.8-11.9,6.3l-2.4-8.1c2.4-0.8,5.6-2.3,8.5-4.7c2.6-2.1,5.9-5.8,8.1-10.8
		c0.4-1,0.8-1.8,0.8-2.3c0-0.5-0.2-1.3-0.7-2.5l-19.7-49H394.7z"/>
	<path d="M459.5-1115.6v15.3h13.8v7.4h-13.8v28.7c0,6.6,1.9,10.3,7.2,10.3c2.5,0,4.4-0.3,5.6-0.7l0.4,7.2c-1.9,0.8-4.8,1.3-8.6,1.3
		c-4.5,0-8.1-1.4-10.4-4.1c-2.7-2.9-3.7-7.6-3.7-13.8v-29h-8.2v-7.4h8.2v-12.7L459.5-1115.6z"/>
	<path d="M491.2-1072c0.2,13.1,8.6,18.4,18.2,18.4c6.9,0,11.1-1.2,14.7-2.7l1.6,6.9c-3.4,1.5-9.2,3.3-17.7,3.3
		c-16.4,0-26.1-10.8-26.1-26.8s9.4-28.7,24.9-28.7c17.3,0,22,15.3,22,25c0,2-0.2,3.5-0.3,4.5H491.2z M519.5-1078.9
		c0.1-6.1-2.5-15.7-13.4-15.7c-9.8,0-14.1,9-14.8,15.7H519.5z"/>
	<path d="M543-1083.7c0-6.3-0.1-11.6-0.4-16.6h8.5l0.3,10.4h0.4c2.4-7.1,8.2-11.6,14.7-11.6c1.1,0,1.9,0.1,2.7,0.3v9.1
		c-1-0.2-2-0.3-3.3-0.3c-6.8,0-11.6,5.2-13,12.4c-0.2,1.3-0.4,2.9-0.4,4.5v28.3H543V-1083.7z"/>
</g>
<circle cx="505.8" cy="-1247.2" r="21.4"/>
<g>
	<path d="M396-961.5c-65.5,0-122.6-23.5-152.3-58.3c22.5,62.4,82.2,106.9,152.3,106.9s129.8-44.6,152.3-106.9
		C518.6-985,461.5-961.5,396-961.5z"/>
	<path d="M396-1187.9c65.5,0,122.6,23.5,152.3,58.3c-22.5-62.4-82.2-106.9-152.3-106.9s-129.8,44.6-152.3,106.9
		C273.5-1164.3,330.5-1187.9,396-1187.9z"/>
</g>
<circle cx="286.5" cy="-893.5" r="25.8"/>
<circle cx="261.1" cy="-1217.9" r="15.7"/>
<circle cx="505.8" cy="126.9" r="21.4"/>
<g>
	<path d="M396,412.7c-65.5,0-122.6-23.5-152.3-58.3c22.5,62.4,82.2,106.9,152.3,106.9s129.8-44.6,152.3-106.9
		C518.6,389.2,461.5,412.7,396,412.7z"/>
	<path d="M396,186.3c65.5,0,122.6,23.5,152.3,58.3c-22.5-62.4-82.2-106.9-152.3-106.9s-129.8,44.6-152.3,106.9
		C273.5,209.9,330.5,186.3,396,186.3z"/>
</g>
<circle cx="286.5" cy="480.7" r="25.8"/>
<circle cx="261.1" cy="156.3" r="15.7"/>
<g>
	<path fill="#414042" d="M-2580.9-356.2c0,20.6-1.6,27.4-5.9,32.3c-3.7,4.1-9.9,6-17.1,6.6l1.6,12.3c8.3,0,19.7-2.8,26.6-9.8
		c7.6-7.8,10.3-18.7,10.3-35.4v-78h-15.6V-356.2z"/>
	<path fill="#414042" d="M-2464.2-365.6c0,8.9,0.2,16.7,0.7,23.4h-13.9l-0.9-14h-0.4c-4.1,6.9-13.1,16-28.4,16
		c-13.5,0-29.7-7.5-29.7-37.7v-50.3h15.6v47.6c0,16.3,5,27.4,19.2,27.4c10.5,0,17.8-7.3,20.6-14.2c0.9-2.3,1.4-5.2,1.4-8v-52.8h15.6
		V-365.6z"/>
	<path fill="#414042" d="M-2434.7-400.1c0-11-0.4-19.9-0.7-28.1h14l0.7,14.7h0.4c6.4-10.5,16.5-16.7,30.6-16.7
		c20.8,0,36.4,17.6,36.4,43.7c0,30.9-18.8,46.2-39.1,46.2c-11.4,0-21.3-5-26.5-13.5h-0.4v46.7h-15.5V-400.1z M-2419.3-377.2
		c0,2.3,0.4,4.4,0.7,6.4c2.8,10.8,12.3,18.3,23.4,18.3c16.5,0,26.1-13.5,26.1-33.2c0-17.2-9.1-32-25.6-32
		c-10.7,0-20.6,7.6-23.6,19.4c-0.5,2-1.1,4.3-1.1,6.4V-377.2z"/>
	<path fill="#414042" d="M-2325.6-428.1l18.8,50.8c2,5.7,4.1,12.4,5.5,17.6h0.4c1.6-5.2,3.4-11.7,5.5-17.9l17.1-50.5h16.5
		l-23.4,61.3c-11.2,29.5-18.8,44.6-29.5,53.8c-7.6,6.7-15.3,9.4-19.2,10.1l-3.9-13.1c3.9-1.2,9.1-3.7,13.7-7.6
		c4.3-3.4,9.6-9.4,13.1-17.4c0.7-1.6,1.2-2.8,1.2-3.7c0-0.9-0.4-2.1-1.1-4.1l-31.8-79.2H-2325.6z"/>
	<path fill="#414042" d="M-2220.8-452.8v24.7h22.4v11.9h-22.4v46.4c0,10.7,3,16.7,11.7,16.7c4.1,0,7.1-0.5,9.1-1.1l0.7,11.7
		c-3,1.2-7.8,2.1-13.9,2.1c-7.3,0-13.1-2.3-16.9-6.6c-4.4-4.6-6-12.3-6-22.4v-46.9h-13.3v-11.9h13.3v-20.6L-2220.8-452.8z"/>
	<path fill="#414042" d="M-2169.6-382.3c0.4,21.1,13.9,29.8,29.5,29.8c11.2,0,17.9-2,23.8-4.4l2.7,11.2c-5.5,2.5-14.9,5.3-28.6,5.3
		c-26.5,0-42.3-17.4-42.3-43.3s15.3-46.4,40.3-46.4c28.1,0,35.5,24.7,35.5,40.5c0,3.2-0.4,5.7-0.5,7.3H-2169.6z M-2123.8-393.5
		c0.2-9.9-4.1-25.4-21.7-25.4c-15.8,0-22.7,14.6-24,25.4H-2123.8z"/>
	<path fill="#414042" d="M-2085.7-401.3c0-10.1-0.2-18.8-0.7-26.8h13.7l0.5,16.9h0.7c3.9-11.5,13.3-18.8,23.8-18.8
		c1.8,0,3,0.2,4.4,0.5v14.7c-1.6-0.4-3.2-0.5-5.3-0.5c-11,0-18.8,8.3-21,20.1c-0.4,2.1-0.7,4.6-0.7,7.3v45.8h-15.5V-401.3z"/>
</g>
<linearGradient id="SVGID_21_" gradientUnits="userSpaceOnUse" x1="-2659.6584" y1="-443.5837" x2="-2645.4463" y2="-443.5837">
	<stop  offset="0" style="stop-color:#808285"/>
	<stop  offset="9.314537e-02" style="stop-color:#797B7E"/>
	<stop  offset="0.4706" style="stop-color:#606163"/>
	<stop  offset="0.7864" style="stop-color:#4F4F51"/>
	<stop  offset="1" style="stop-color:#48484A"/>
</linearGradient>
<circle fill="url(#SVGID_21_)" cx="-2652.6" cy="-443.6" r="7.1"/>
<g>
	<linearGradient id="SVGID_22_" gradientUnits="userSpaceOnUse" x1="-2739.4866" y1="-350.3791" x2="-2638.4507" y2="-350.3791">
		<stop  offset="5.220520e-02" style="stop-color:#F78D26"/>
		<stop  offset="0.2056" style="stop-color:#F68826"/>
		<stop  offset="0.4323" style="stop-color:#F37A25"/>
		<stop  offset="0.4766" style="stop-color:#F37625"/>
		<stop  offset="0.6159" style="stop-color:#E76623"/>
		<stop  offset="0.8356" style="stop-color:#DC5221"/>
		<stop  offset="0.9873" style="stop-color:#D84B21"/>
	</linearGradient>
	<path fill="url(#SVGID_22_)" d="M-2689-348.8c-21.7,0-40.7-7.8-50.5-19.4c7.5,20.7,27.3,35.5,50.5,35.5s43.1-14.8,50.5-35.5
		C-2648.3-356.6-2667.2-348.8-2689-348.8z"/>
	<linearGradient id="SVGID_23_" gradientUnits="userSpaceOnUse" x1="-2739.4866" y1="-422.2695" x2="-2638.4507" y2="-422.2695">
		<stop  offset="5.220520e-02" style="stop-color:#F78D26"/>
		<stop  offset="0.2056" style="stop-color:#F68826"/>
		<stop  offset="0.4323" style="stop-color:#F37A25"/>
		<stop  offset="0.4766" style="stop-color:#F37625"/>
		<stop  offset="0.6159" style="stop-color:#E76623"/>
		<stop  offset="0.8356" style="stop-color:#DC5221"/>
		<stop  offset="0.9873" style="stop-color:#D84B21"/>
	</linearGradient>
	<path fill="url(#SVGID_23_)" d="M-2689-423.9c21.7,0,40.7,7.8,50.5,19.4c-7.5-20.7-27.3-35.5-50.5-35.5s-43.1,14.8-50.5,35.5
		C-2729.6-416.1-2710.7-423.9-2689-423.9z"/>
</g>
<linearGradient id="SVGID_24_" gradientUnits="userSpaceOnUse" x1="-2733.8542" y1="-326.2045" x2="-2716.7488" y2="-326.2045">
	<stop  offset="1.435499e-02" style="stop-color:#BCBEC0"/>
	<stop  offset="1" style="stop-color:#6D6E71"/>
</linearGradient>
<circle fill="url(#SVGID_24_)" cx="-2725.3" cy="-326.2" r="8.6"/>
<linearGradient id="SVGID_25_" gradientUnits="userSpaceOnUse" x1="-2738.9539" y1="-433.8491" x2="-2728.5315" y2="-433.8491">
	<stop  offset="0" style="stop-color:#6D6E71"/>
	<stop  offset="0.39" style="stop-color:#555658"/>
	<stop  offset="0.752" style="stop-color:#434244"/>
	<stop  offset="0.9969" style="stop-color:#383839"/>
</linearGradient>
<circle fill="url(#SVGID_25_)" cx="-2733.7" cy="-433.8" r="5.2"/>
<g>
	<path fill="#414042" d="M-1622.2-356.2c0,20.6-1.6,27.4-5.9,32.3c-3.7,4.1-9.9,6-17.1,6.6l1.6,12.3c8.3,0,19.7-2.8,26.6-9.8
		c7.6-7.8,10.3-18.7,10.3-35.4v-78h-15.6V-356.2z"/>
	<path fill="#414042" d="M-1505.5-365.6c0,8.9,0.2,16.7,0.7,23.4h-13.9l-0.9-14h-0.4c-4.1,6.9-13.1,16-28.4,16
		c-13.5,0-29.7-7.5-29.7-37.7v-50.3h15.6v47.6c0,16.3,5,27.4,19.2,27.4c10.5,0,17.8-7.3,20.6-14.2c0.9-2.3,1.4-5.2,1.4-8v-52.8h15.6
		V-365.6z"/>
	<path fill="#414042" d="M-1476-400.1c0-11-0.4-19.9-0.7-28.1h14l0.7,14.7h0.4c6.4-10.5,16.5-16.7,30.6-16.7
		c20.8,0,36.4,17.6,36.4,43.7c0,30.9-18.8,46.2-39.1,46.2c-11.4,0-21.3-5-26.5-13.5h-0.4v46.7h-15.5V-400.1z M-1460.5-377.2
		c0,2.3,0.4,4.4,0.7,6.4c2.8,10.8,12.3,18.3,23.4,18.3c16.5,0,26.1-13.5,26.1-33.2c0-17.2-9.1-32-25.6-32
		c-10.7,0-20.6,7.6-23.6,19.4c-0.5,2-1.1,4.3-1.1,6.4V-377.2z"/>
	<path fill="#414042" d="M-1366.9-428.1l18.8,50.8c2,5.7,4.1,12.4,5.5,17.6h0.4c1.6-5.2,3.4-11.7,5.5-17.9l17.1-50.5h16.5
		l-23.4,61.3c-11.2,29.5-18.8,44.6-29.5,53.8c-7.6,6.7-15.3,9.4-19.2,10.1l-3.9-13.1c3.9-1.2,9.1-3.7,13.7-7.6
		c4.3-3.4,9.6-9.4,13.1-17.4c0.7-1.6,1.2-2.8,1.2-3.7c0-0.9-0.4-2.1-1.1-4.1l-31.8-79.2H-1366.9z"/>
	<path fill="#414042" d="M-1262-452.8v24.7h22.4v11.9h-22.4v46.4c0,10.7,3,16.7,11.7,16.7c4.1,0,7.1-0.5,9.1-1.1l0.7,11.7
		c-3,1.2-7.8,2.1-13.9,2.1c-7.3,0-13.1-2.3-16.9-6.6c-4.4-4.6-6-12.3-6-22.4v-46.9h-13.3v-11.9h13.3v-20.6L-1262-452.8z"/>
	<path fill="#414042" d="M-1210.9-382.3c0.4,21.1,13.9,29.8,29.5,29.8c11.2,0,17.9-2,23.8-4.4l2.7,11.2c-5.5,2.5-14.9,5.3-28.6,5.3
		c-26.5,0-42.3-17.4-42.3-43.3s15.3-46.4,40.3-46.4c28.1,0,35.5,24.7,35.5,40.5c0,3.2-0.4,5.7-0.5,7.3H-1210.9z M-1165-393.5
		c0.2-9.9-4.1-25.4-21.7-25.4c-15.8,0-22.7,14.6-24,25.4H-1165z"/>
	<path fill="#414042" d="M-1127-401.3c0-10.1-0.2-18.8-0.7-26.8h13.7l0.5,16.9h0.7c3.9-11.5,13.3-18.8,23.8-18.8
		c1.8,0,3,0.2,4.4,0.5v14.7c-1.6-0.4-3.2-0.5-5.3-0.5c-11,0-18.8,8.3-21,20.1c-0.4,2.1-0.7,4.6-0.7,7.3v45.8h-15.5V-401.3z"/>
</g>
<linearGradient id="SVGID_26_" gradientUnits="userSpaceOnUse" x1="-1700.9226" y1="-443.5837" x2="-1686.7104" y2="-443.5837">
	<stop  offset="0" style="stop-color:#808285"/>
	<stop  offset="9.314537e-02" style="stop-color:#797B7E"/>
	<stop  offset="0.4706" style="stop-color:#606163"/>
	<stop  offset="0.7864" style="stop-color:#4F4F51"/>
	<stop  offset="1" style="stop-color:#48484A"/>
</linearGradient>
<circle fill="url(#SVGID_26_)" cx="-1693.8" cy="-443.6" r="7.1"/>
<g>
	<linearGradient id="SVGID_27_" gradientUnits="userSpaceOnUse" x1="-1780.7507" y1="-350.3791" x2="-1679.7148" y2="-350.3791">
		<stop  offset="7.414178e-02" style="stop-color:#BCBEC0"/>
		<stop  offset="0.3771" style="stop-color:#6D6E71"/>
		<stop  offset="0.4846" style="stop-color:#5E5F61"/>
		<stop  offset="0.697" style="stop-color:#414143"/>
		<stop  offset="0.8764" style="stop-color:#1A191A"/>
		<stop  offset="1" style="stop-color:#000000"/>
	</linearGradient>
	<path fill="url(#SVGID_27_)" d="M-1730.2-348.8c-21.7,0-40.7-7.8-50.5-19.4c7.5,20.7,27.3,35.5,50.5,35.5s43.1-14.8,50.5-35.5
		C-1689.6-356.6-1708.5-348.8-1730.2-348.8z"/>
	<linearGradient id="SVGID_28_" gradientUnits="userSpaceOnUse" x1="-1780.7507" y1="-422.2695" x2="-1679.7148" y2="-422.2695">
		<stop  offset="7.414178e-02" style="stop-color:#BCBEC0"/>
		<stop  offset="0.3771" style="stop-color:#6D6E71"/>
		<stop  offset="0.4846" style="stop-color:#5E5F61"/>
		<stop  offset="0.697" style="stop-color:#414143"/>
		<stop  offset="0.8764" style="stop-color:#1A191A"/>
		<stop  offset="1" style="stop-color:#000000"/>
	</linearGradient>
	<path fill="url(#SVGID_28_)" d="M-1730.2-423.9c21.7,0,40.7,7.8,50.5,19.4c-7.5-20.7-27.3-35.5-50.5-35.5s-43.1,14.8-50.5,35.5
		C-1770.9-416.1-1752-423.9-1730.2-423.9z"/>
</g>
<linearGradient id="SVGID_29_" gradientUnits="userSpaceOnUse" x1="-1775.1184" y1="-326.2045" x2="-1758.0131" y2="-326.2045">
	<stop  offset="1.435499e-02" style="stop-color:#BCBEC0"/>
	<stop  offset="1" style="stop-color:#6D6E71"/>
</linearGradient>
<circle fill="url(#SVGID_29_)" cx="-1766.6" cy="-326.2" r="8.6"/>
<linearGradient id="SVGID_30_" gradientUnits="userSpaceOnUse" x1="-1780.218" y1="-433.8491" x2="-1769.7957" y2="-433.8491">
	<stop  offset="0" style="stop-color:#6D6E71"/>
	<stop  offset="0.39" style="stop-color:#555658"/>
	<stop  offset="0.752" style="stop-color:#434244"/>
	<stop  offset="0.9969" style="stop-color:#383839"/>
</linearGradient>
<circle fill="url(#SVGID_30_)" cx="-1775" cy="-433.8" r="5.2"/>
<g>
	<path fill="#414042" d="M-696.7-356.2c0,20.6-1.6,27.4-5.9,32.3c-3.7,4.1-9.9,6-17.1,6.6l1.6,12.3c8.3,0,19.7-2.8,26.6-9.8
		c7.6-7.8,10.3-18.7,10.3-35.4v-78h-15.6V-356.2z"/>
	<path fill="#414042" d="M-580-365.6c0,8.9,0.2,16.7,0.7,23.4h-13.9l-0.9-14h-0.4c-4.1,6.9-13.1,16-28.4,16
		c-13.5,0-29.7-7.5-29.7-37.7v-50.3h15.6v47.6c0,16.3,5,27.4,19.2,27.4c10.5,0,17.8-7.3,20.6-14.2c0.9-2.3,1.4-5.2,1.4-8v-52.8h15.6
		V-365.6z"/>
	<path fill="#414042" d="M-550.5-400.1c0-11-0.4-19.9-0.7-28.1h14l0.7,14.7h0.4c6.4-10.5,16.5-16.7,30.6-16.7
		c20.8,0,36.4,17.6,36.4,43.7c0,30.9-18.8,46.2-39.1,46.2c-11.4,0-21.3-5-26.5-13.5h-0.4v46.7h-15.5V-400.1z M-535-377.2
		c0,2.3,0.4,4.4,0.7,6.4c2.8,10.8,12.3,18.3,23.4,18.3c16.5,0,26.1-13.5,26.1-33.2c0-17.2-9.1-32-25.6-32
		c-10.7,0-20.6,7.6-23.6,19.4c-0.5,2-1.1,4.3-1.1,6.4V-377.2z"/>
	<path fill="#414042" d="M-441.4-428.1l18.8,50.8c2,5.7,4.1,12.4,5.5,17.6h0.4c1.6-5.2,3.4-11.7,5.5-17.9l17.1-50.5h16.5l-23.4,61.3
		c-11.2,29.5-18.8,44.6-29.5,53.8c-7.6,6.7-15.3,9.4-19.2,10.1l-3.9-13.1c3.9-1.2,9.1-3.7,13.7-7.6c4.3-3.4,9.6-9.4,13.1-17.4
		c0.7-1.6,1.2-2.8,1.2-3.7c0-0.9-0.4-2.1-1.1-4.1l-31.8-79.2H-441.4z"/>
	<path fill="#414042" d="M-336.5-452.8v24.7h22.4v11.9h-22.4v46.4c0,10.7,3,16.7,11.7,16.7c4.1,0,7.1-0.5,9.1-1.1l0.7,11.7
		c-3,1.2-7.8,2.1-13.9,2.1c-7.3,0-13.1-2.3-16.9-6.6c-4.4-4.6-6-12.3-6-22.4v-46.9h-13.3v-11.9h13.3v-20.6L-336.5-452.8z"/>
	<path fill="#414042" d="M-285.4-382.3c0.4,21.1,13.9,29.8,29.5,29.8c11.2,0,17.9-2,23.8-4.4l2.7,11.2c-5.5,2.5-14.9,5.3-28.6,5.3
		c-26.5,0-42.3-17.4-42.3-43.3s15.3-46.4,40.3-46.4c28.1,0,35.5,24.7,35.5,40.5c0,3.2-0.4,5.7-0.5,7.3H-285.4z M-239.6-393.5
		c0.2-9.9-4.1-25.4-21.7-25.4c-15.8,0-22.7,14.6-24,25.4H-239.6z"/>
	<path fill="#414042" d="M-201.5-401.3c0-10.1-0.2-18.8-0.7-26.8h13.7l0.5,16.9h0.7c3.9-11.5,13.3-18.8,23.8-18.8
		c1.8,0,3,0.2,4.4,0.5v14.7c-1.6-0.4-3.2-0.5-5.3-0.5c-11,0-18.8,8.3-21,20.1c-0.4,2.1-0.7,4.6-0.7,7.3v45.8h-15.5V-401.3z"/>
</g>
<circle fill="#6D6E71" cx="-768.3" cy="-443.6" r="7.1"/>
<g>
	<path fill="#F37625" d="M-804.8-348.8c-21.7,0-40.7-7.8-50.5-19.4c7.5,20.7,27.3,35.5,50.5,35.5c23.3,0,43.1-14.8,50.5-35.5
		C-764.1-356.6-783-348.8-804.8-348.8z"/>
	<path fill="#F37625" d="M-804.8-423.9c21.7,0,40.7,7.8,50.5,19.4c-7.5-20.7-27.3-35.5-50.5-35.5c-23.3,0-43.1,14.8-50.5,35.5
		C-845.4-416.1-826.5-423.9-804.8-423.9z"/>
</g>
<circle fill="#939598" cx="-841.1" cy="-326.2" r="8.6"/>
<circle fill="#58595B" cx="-849.5" cy="-433.8" r="5.2"/>
<g>
	<path d="M219.6-356.2c0,20.6-1.6,27.4-5.9,32.3c-3.7,4.1-9.9,6-17.1,6.6l1.6,12.3c8.3,0,19.7-2.8,26.6-9.8
		c7.6-7.8,10.3-18.7,10.3-35.4v-78h-15.6V-356.2z"/>
	<path d="M336.3-365.6c0,8.9,0.2,16.7,0.7,23.4h-13.9l-0.9-14h-0.4c-4.1,6.9-13.1,16-28.4,16c-13.5,0-29.7-7.5-29.7-37.7v-50.3h15.6
		v47.6c0,16.3,5,27.4,19.2,27.4c10.5,0,17.8-7.3,20.6-14.2c0.9-2.3,1.4-5.2,1.4-8v-52.8h15.6V-365.6z"/>
	<path d="M365.8-400.1c0-11-0.4-19.9-0.7-28.1h14l0.7,14.7h0.4c6.4-10.5,16.5-16.7,30.6-16.7c20.8,0,36.4,17.6,36.4,43.7
		c0,30.9-18.8,46.2-39.1,46.2c-11.4,0-21.3-5-26.5-13.5h-0.4v46.7h-15.5V-400.1z M381.3-377.2c0,2.3,0.4,4.4,0.7,6.4
		c2.8,10.8,12.3,18.3,23.4,18.3c16.5,0,26.1-13.5,26.1-33.2c0-17.2-9.1-32-25.6-32c-10.7,0-20.6,7.6-23.6,19.4
		c-0.5,2-1.1,4.3-1.1,6.4V-377.2z"/>
	<path d="M474.9-428.1l18.8,50.8c2,5.7,4.1,12.4,5.5,17.6h0.4c1.6-5.2,3.4-11.7,5.5-17.9l17.1-50.5h16.5l-23.4,61.3
		c-11.2,29.5-18.8,44.6-29.5,53.8c-7.6,6.7-15.3,9.4-19.2,10.1l-3.9-13.1c3.9-1.2,9.1-3.7,13.7-7.6c4.3-3.4,9.6-9.4,13.1-17.4
		c0.7-1.6,1.2-2.8,1.2-3.7c0-0.9-0.4-2.1-1.1-4.1l-31.8-79.2H474.9z"/>
	<path d="M579.8-452.8v24.7h22.4v11.9h-22.4v46.4c0,10.7,3,16.7,11.7,16.7c4.1,0,7.1-0.5,9.1-1.1l0.7,11.7c-3,1.2-7.8,2.1-13.9,2.1
		c-7.3,0-13.1-2.3-16.9-6.6c-4.4-4.6-6-12.3-6-22.4v-46.9h-13.3v-11.9h13.3v-20.6L579.8-452.8z"/>
	<path d="M630.9-382.3c0.4,21.1,13.9,29.8,29.5,29.8c11.2,0,17.9-2,23.8-4.4l2.7,11.2c-5.5,2.5-14.9,5.3-28.6,5.3
		c-26.5,0-42.3-17.4-42.3-43.3s15.3-46.4,40.3-46.4c28.1,0,35.5,24.7,35.5,40.5c0,3.2-0.4,5.7-0.5,7.3H630.9z M676.8-393.5
		c0.2-9.9-4.1-25.4-21.7-25.4c-15.8,0-22.7,14.6-24,25.4H676.8z"/>
	<path d="M714.8-401.3c0-10.1-0.2-18.8-0.7-26.8h13.7l0.5,16.9h0.7c3.9-11.5,13.3-18.8,23.8-18.8c1.8,0,3,0.2,4.4,0.5v14.7
		c-1.6-0.4-3.2-0.5-5.3-0.5c-11,0-18.8,8.3-21,20.1c-0.4,2.1-0.7,4.6-0.7,7.3v45.8h-15.5V-401.3z"/>
</g>
<circle cx="148" cy="-443.6" r="7.1"/>
<g>
	<path d="M111.6-348.8c-21.7,0-40.7-7.8-50.5-19.4c7.5,20.7,27.3,35.5,50.5,35.5s43.1-14.8,50.5-35.5
		C152.2-356.6,133.3-348.8,111.6-348.8z"/>
	<path d="M111.6-423.9c21.7,0,40.7,7.8,50.5,19.4c-7.5-20.7-27.3-35.5-50.5-35.5s-43.1,14.8-50.5,35.5
		C70.9-416.1,89.8-423.9,111.6-423.9z"/>
</g>
<circle cx="75.2" cy="-326.2" r="8.6"/>
<circle cx="66.8" cy="-433.8" r="5.2"/>
</svg>
