<?xml version="1.0" encoding="utf-8"?>
<!-- Generator: Adobe Illustrator 19.1.0, SVG Export Plug-In . SVG Version: 6.00 Build 0)  -->
<svg version="1.1" id="Layer_1" xmlns="http://www.w3.org/2000/svg" xmlns:xlink="http://www.w3.org/1999/xlink" x="0px" y="0px"
	 viewBox="0 0 1448 254" enable-background="new 0 0 1448 254" xml:space="preserve">
<g>
	<path fill="#414042" d="M93.9-2204c0,12.7-1,16.9-3.6,20c-2.3,2.5-6.1,3.7-10.5,4.1l1,7.6c5.2,0,12.2-1.8,16.5-6
		c4.7-4.8,6.4-11.5,6.4-21.9v-48.2h-9.7V-2204z"/>
	<path fill="#414042" d="M166.1-2209.8c0,5.5,0.1,10.3,0.4,14.5h-8.6l-0.5-8.7h-0.2c-2.5,4.3-8.1,9.9-17.6,9.9
		c-8.3,0-18.3-4.6-18.3-23.3v-31.1h9.7v29.4c0,10.1,3.1,16.9,11.9,16.9c6.5,0,11-4.5,12.7-8.8c0.5-1.4,0.9-3.2,0.9-4.9v-32.6h9.7
		V-2209.8z"/>
	<path fill="#414042" d="M184.3-2231.1c0-6.8-0.2-12.3-0.4-17.3h8.7l0.4,9.1h0.2c4-6.5,10.2-10.3,18.9-10.3
		c12.8,0,22.5,10.9,22.5,27c0,19.1-11.6,28.5-24.2,28.5c-7,0-13.2-3.1-16.4-8.3h-0.2v28.9h-9.6V-2231.1z M193.8-2216.9
		c0,1.4,0.2,2.7,0.4,4c1.8,6.7,7.6,11.3,14.5,11.3c10.2,0,16.1-8.3,16.1-20.5c0-10.7-5.6-19.8-15.8-19.8c-6.6,0-12.7,4.7-14.6,12
		c-0.3,1.2-0.7,2.6-0.7,4V-2216.9z"/>
	<path fill="#414042" d="M251.7-2248.4l11.6,31.4c1.2,3.5,2.5,7.7,3.4,10.9h0.2c1-3.2,2.1-7.2,3.4-11.1l10.5-31.2h10.2l-14.5,37.9
		c-6.9,18.2-11.6,27.6-18.2,33.3c-4.7,4.2-9.4,5.8-11.9,6.3l-2.4-8.1c2.4-0.8,5.6-2.3,8.5-4.7c2.6-2.1,5.9-5.8,8.1-10.8
		c0.4-1,0.8-1.8,0.8-2.3c0-0.5-0.2-1.3-0.7-2.5l-19.7-49H251.7z"/>
	<path fill="#414042" d="M316.5-2263.7v15.3h13.8v7.4h-13.8v28.7c0,6.6,1.9,10.3,7.2,10.3c2.5,0,4.4-0.3,5.6-0.7l0.4,7.2
		c-1.9,0.8-4.8,1.3-8.6,1.3c-4.5,0-8.1-1.4-10.4-4.1c-2.7-2.9-3.7-7.6-3.7-13.8v-29h-8.2v-7.4h8.2v-12.7L316.5-2263.7z"/>
	<path fill="#414042" d="M348.2-2220.1c0.2,13.1,8.6,18.4,18.2,18.4c6.9,0,11.1-1.2,14.7-2.7l1.6,6.9c-3.4,1.5-9.2,3.3-17.7,3.3
		c-16.4,0-26.1-10.8-26.1-26.8s9.4-28.7,24.9-28.7c17.3,0,22,15.3,22,25c0,2-0.2,3.5-0.3,4.5H348.2z M376.5-2227
		c0.1-6.1-2.5-15.7-13.4-15.7c-9.8,0-14.1,9-14.8,15.7H376.5z"/>
	<path fill="#414042" d="M400-2231.9c0-6.3-0.1-11.6-0.4-16.6h8.5l0.3,10.4h0.4c2.4-7.1,8.2-11.6,14.7-11.6c1.1,0,1.9,0.1,2.7,0.3
		v9.1c-1-0.2-2-0.3-3.3-0.3c-6.8,0-11.6,5.2-13,12.4c-0.2,1.3-0.4,2.9-0.4,4.5v28.3H400V-2231.9z"/>
</g>
<circle fill="#6D6E71" cx="362.8" cy="-2395.4" r="21.4"/>
<g>
	<linearGradient id="SVGID_1_" gradientUnits="userSpaceOnUse" x1="100.7523" y1="-2114.4558" x2="405.271" y2="-2114.4558">
		<stop  offset="5.220520e-02" style="stop-color:#F78D26"/>
		<stop  offset="0.2056" style="stop-color:#F68826"/>
		<stop  offset="0.4323" style="stop-color:#F37A25"/>
		<stop  offset="0.4766" style="stop-color:#F37625"/>
		<stop  offset="0.6159" style="stop-color:#E76623"/>
		<stop  offset="0.8356" style="stop-color:#DC5221"/>
		<stop  offset="0.9873" style="stop-color:#D84B21"/>
	</linearGradient>
	<path fill="url(#SVGID_1_)" d="M253-2109.6c-65.5,0-122.6-23.5-152.3-58.3c22.5,62.4,82.2,106.9,152.3,106.9
		s129.8-44.6,152.3-106.9C375.6-2133.1,318.5-2109.6,253-2109.6z"/>
	<linearGradient id="SVGID_2_" gradientUnits="userSpaceOnUse" x1="100.7523" y1="-2331.1311" x2="405.271" y2="-2331.1311">
		<stop  offset="5.220520e-02" style="stop-color:#F78D26"/>
		<stop  offset="0.2056" style="stop-color:#F68826"/>
		<stop  offset="0.4323" style="stop-color:#F37A25"/>
		<stop  offset="0.4766" style="stop-color:#F37625"/>
		<stop  offset="0.6159" style="stop-color:#E76623"/>
		<stop  offset="0.8356" style="stop-color:#DC5221"/>
		<stop  offset="0.9873" style="stop-color:#D84B21"/>
	</linearGradient>
	<path fill="url(#SVGID_2_)" d="M253-2336c65.5,0,122.6,23.5,152.3,58.3c-22.5-62.4-82.2-106.9-152.3-106.9s-129.8,44.6-152.3,106.9
		C130.5-2312.4,187.5-2336,253-2336z"/>
</g>
<circle fill="#939598" cx="143.5" cy="-2041.6" r="25.8"/>
<circle fill="#58595B" cx="118.1" cy="-2366" r="15.7"/>
<circle fill="#6D6E71" cx="362.8" cy="-1021.2" r="21.4"/>
<g>
	<linearGradient id="SVGID_3_" gradientUnits="userSpaceOnUse" x1="100.7406" y1="-740.2883" x2="405.2594" y2="-740.2883">
		<stop  offset="5.220520e-02" style="stop-color:#F78D26"/>
		<stop  offset="0.2056" style="stop-color:#F68826"/>
		<stop  offset="0.4323" style="stop-color:#F37A25"/>
		<stop  offset="0.4766" style="stop-color:#F37625"/>
		<stop  offset="0.6159" style="stop-color:#E76623"/>
		<stop  offset="0.8356" style="stop-color:#DC5221"/>
		<stop  offset="0.9873" style="stop-color:#D84B21"/>
	</linearGradient>
	<path fill="url(#SVGID_3_)" d="M253-735.4c-65.5,0-122.6-23.5-152.3-58.3c22.5,62.4,82.2,106.9,152.3,106.9s129.8-44.6,152.3-106.9
		C375.6-759,318.5-735.4,253-735.4z"/>
	<linearGradient id="SVGID_4_" gradientUnits="userSpaceOnUse" x1="100.7406" y1="-956.9635" x2="405.2594" y2="-956.9635">
		<stop  offset="5.220520e-02" style="stop-color:#F78D26"/>
		<stop  offset="0.2056" style="stop-color:#F68826"/>
		<stop  offset="0.4323" style="stop-color:#F37A25"/>
		<stop  offset="0.4766" style="stop-color:#F37625"/>
		<stop  offset="0.6159" style="stop-color:#E76623"/>
		<stop  offset="0.8356" style="stop-color:#DC5221"/>
		<stop  offset="0.9873" style="stop-color:#D84B21"/>
	</linearGradient>
	<path fill="url(#SVGID_4_)" d="M253-961.8c65.5,0,122.6,23.5,152.3,58.3c-22.5-62.4-82.2-106.9-152.3-106.9
		s-129.8,44.6-152.3,106.9C130.4-938.3,187.5-961.8,253-961.8z"/>
</g>
<circle fill="#939598" cx="143.5" cy="-667.4" r="25.8"/>
<circle fill="#58595B" cx="118.1" cy="-991.9" r="15.7"/>
<g>
	<path fill="#414042" d="M1053.8-2204c0,12.7-1,16.9-3.6,20c-2.3,2.5-6.1,3.7-10.5,4.1l1,7.6c5.2,0,12.2-1.8,16.5-6
		c4.7-4.8,6.4-11.5,6.4-21.9v-48.2h-9.7V-2204z"/>
	<path fill="#414042" d="M1126-2209.8c0,5.5,0.1,10.3,0.4,14.5h-8.6l-0.5-8.7h-0.2c-2.5,4.3-8.1,9.9-17.6,9.9
		c-8.3,0-18.3-4.6-18.3-23.3v-31.1h9.7v29.4c0,10.1,3.1,16.9,11.9,16.9c6.5,0,11-4.5,12.7-8.8c0.5-1.4,0.9-3.2,0.9-4.9v-32.6h9.7
		V-2209.8z"/>
	<path fill="#414042" d="M1144.2-2231.1c0-6.8-0.2-12.3-0.4-17.3h8.7l0.4,9.1h0.2c4-6.5,10.2-10.3,18.9-10.3
		c12.8,0,22.5,10.9,22.5,27c0,19.1-11.6,28.5-24.2,28.5c-7,0-13.2-3.1-16.4-8.3h-0.2v28.9h-9.6V-2231.1z M1153.8-2216.9
		c0,1.4,0.2,2.7,0.4,4c1.8,6.7,7.6,11.3,14.5,11.3c10.2,0,16.1-8.3,16.1-20.5c0-10.7-5.6-19.8-15.8-19.8c-6.6,0-12.7,4.7-14.6,12
		c-0.3,1.2-0.7,2.6-0.7,4V-2216.9z"/>
	<path fill="#414042" d="M1211.6-2248.4l11.6,31.4c1.2,3.5,2.5,7.7,3.4,10.9h0.2c1-3.2,2.1-7.2,3.4-11.1l10.5-31.2h10.2l-14.5,37.9
		c-6.9,18.2-11.6,27.6-18.2,33.3c-4.7,4.2-9.4,5.8-11.9,6.3l-2.4-8.1c2.4-0.8,5.6-2.3,8.5-4.7c2.6-2.1,5.9-5.8,8.1-10.8
		c0.4-1,0.8-1.8,0.8-2.3c0-0.5-0.2-1.3-0.7-2.5l-19.7-49H1211.6z"/>
	<path fill="#414042" d="M1276.5-2263.7v15.3h13.8v7.4h-13.8v28.7c0,6.6,1.9,10.3,7.2,10.3c2.5,0,4.4-0.3,5.6-0.7l0.4,7.2
		c-1.9,0.8-4.8,1.3-8.6,1.3c-4.5,0-8.1-1.4-10.4-4.1c-2.7-2.9-3.7-7.6-3.7-13.8v-29h-8.2v-7.4h8.2v-12.7L1276.5-2263.7z"/>
	<path fill="#414042" d="M1308.1-2220.1c0.2,13.1,8.6,18.4,18.2,18.4c6.9,0,11.1-1.2,14.7-2.7l1.6,6.9c-3.4,1.5-9.2,3.3-17.7,3.3
		c-16.4,0-26.1-10.8-26.1-26.8s9.4-28.7,24.9-28.7c17.3,0,22,15.3,22,25c0,2-0.2,3.5-0.3,4.5H1308.1z M1336.4-2227
		c0.1-6.1-2.5-15.7-13.4-15.7c-9.8,0-14.1,9-14.8,15.7H1336.4z"/>
	<path fill="#414042" d="M1359.9-2231.9c0-6.3-0.1-11.6-0.4-16.6h8.5l0.3,10.4h0.4c2.4-7.1,8.2-11.6,14.7-11.6
		c1.1,0,1.9,0.1,2.7,0.3v9.1c-1-0.2-2-0.3-3.3-0.3c-6.8,0-11.6,5.2-13,12.4c-0.2,1.3-0.4,2.9-0.4,4.5v28.3h-9.6V-2231.9z"/>
</g>
<circle fill="#6D6E71" cx="1322.7" cy="-2395.4" r="21.4"/>
<g>
	<linearGradient id="SVGID_5_" gradientUnits="userSpaceOnUse" x1="1060.6675" y1="-2114.4558" x2="1365.1863" y2="-2114.4558">
		<stop  offset="7.414178e-02" style="stop-color:#BCBEC0"/>
		<stop  offset="0.3771" style="stop-color:#6D6E71"/>
		<stop  offset="0.4846" style="stop-color:#5E5F61"/>
		<stop  offset="0.697" style="stop-color:#414143"/>
		<stop  offset="0.8764" style="stop-color:#1A191A"/>
		<stop  offset="1" style="stop-color:#000000"/>
	</linearGradient>
	<path fill="url(#SVGID_5_)" d="M1212.9-2109.6c-65.5,0-122.6-23.5-152.3-58.3c22.5,62.4,82.2,106.9,152.3,106.9
		s129.8-44.6,152.3-106.9C1335.5-2133.1,1278.4-2109.6,1212.9-2109.6z"/>
	<linearGradient id="SVGID_6_" gradientUnits="userSpaceOnUse" x1="1060.6675" y1="-2331.1311" x2="1365.1863" y2="-2331.1311">
		<stop  offset="7.414178e-02" style="stop-color:#BCBEC0"/>
		<stop  offset="0.3771" style="stop-color:#6D6E71"/>
		<stop  offset="0.4846" style="stop-color:#5E5F61"/>
		<stop  offset="0.697" style="stop-color:#414143"/>
		<stop  offset="0.8764" style="stop-color:#1A191A"/>
		<stop  offset="1" style="stop-color:#000000"/>
	</linearGradient>
	<path fill="url(#SVGID_6_)" d="M1212.9-2336c65.5,0,122.6,23.5,152.3,58.3c-22.5-62.4-82.2-106.9-152.3-106.9
		s-129.8,44.6-152.3,106.9C1090.4-2312.4,1147.4-2336,1212.9-2336z"/>
</g>
<circle fill="#939598" cx="1103.4" cy="-2041.6" r="25.8"/>
<circle fill="#58595B" cx="1078" cy="-2366" r="15.7"/>
<circle fill="#6D6E71" cx="1306.8" cy="-1021.2" r="21.4"/>
<g>
	<linearGradient id="SVGID_7_" gradientUnits="userSpaceOnUse" x1="1044.7406" y1="-740.2883" x2="1349.2594" y2="-740.2883">
		<stop  offset="7.414178e-02" style="stop-color:#BCBEC0"/>
		<stop  offset="0.3771" style="stop-color:#6D6E71"/>
		<stop  offset="0.4846" style="stop-color:#5E5F61"/>
		<stop  offset="0.697" style="stop-color:#414143"/>
		<stop  offset="0.8764" style="stop-color:#1A191A"/>
		<stop  offset="1" style="stop-color:#000000"/>
	</linearGradient>
	<path fill="url(#SVGID_7_)" d="M1197-735.4c-65.5,0-122.6-23.5-152.3-58.3c22.5,62.4,82.2,106.9,152.3,106.9
		s129.8-44.6,152.3-106.9C1319.6-759,1262.5-735.4,1197-735.4z"/>
	<linearGradient id="SVGID_8_" gradientUnits="userSpaceOnUse" x1="1044.7406" y1="-956.9635" x2="1349.2594" y2="-956.9635">
		<stop  offset="7.414178e-02" style="stop-color:#BCBEC0"/>
		<stop  offset="0.3771" style="stop-color:#6D6E71"/>
		<stop  offset="0.4846" style="stop-color:#5E5F61"/>
		<stop  offset="0.697" style="stop-color:#414143"/>
		<stop  offset="0.8764" style="stop-color:#1A191A"/>
		<stop  offset="1" style="stop-color:#000000"/>
	</linearGradient>
	<path fill="url(#SVGID_8_)" d="M1197-961.8c65.5,0,122.6,23.5,152.3,58.3c-22.5-62.4-82.2-106.9-152.3-106.9
		s-129.8,44.6-152.3,106.9C1074.4-938.3,1131.5-961.8,1197-961.8z"/>
</g>
<circle fill="#939598" cx="1087.5" cy="-667.4" r="25.8"/>
<circle fill="#58595B" cx="1062.1" cy="-991.9" r="15.7"/>
<g>
	<path fill="#414042" d="M1970.7-2204c0,12.7-1,16.9-3.6,20c-2.3,2.5-6.1,3.7-10.5,4.1l1,7.6c5.2,0,12.2-1.8,16.5-6
		c4.7-4.8,6.4-11.5,6.4-21.9v-48.2h-9.7V-2204z"/>
	<path fill="#414042" d="M2042.8-2209.8c0,5.5,0.1,10.3,0.4,14.5h-8.6l-0.5-8.7h-0.2c-2.5,4.3-8.1,9.9-17.6,9.9
		c-8.3,0-18.3-4.6-18.3-23.3v-31.1h9.7v29.4c0,10.1,3.1,16.9,11.9,16.9c6.5,0,11-4.5,12.7-8.8c0.5-1.4,0.9-3.2,0.9-4.9v-32.6h9.7
		V-2209.8z"/>
	<path fill="#414042" d="M2061.1-2231.1c0-6.8-0.2-12.3-0.4-17.3h8.7l0.4,9.1h0.2c4-6.5,10.2-10.3,18.9-10.3
		c12.8,0,22.5,10.9,22.5,27c0,19.1-11.6,28.5-24.2,28.5c-7,0-13.2-3.1-16.4-8.3h-0.2v28.9h-9.6V-2231.1z M2070.6-2216.9
		c0,1.4,0.2,2.7,0.4,4c1.8,6.7,7.6,11.3,14.5,11.3c10.2,0,16.1-8.3,16.1-20.5c0-10.7-5.6-19.8-15.8-19.8c-6.6,0-12.7,4.7-14.6,12
		c-0.3,1.2-0.7,2.6-0.7,4V-2216.9z"/>
	<path fill="#414042" d="M2128.5-2248.4l11.6,31.4c1.2,3.5,2.5,7.7,3.4,10.9h0.2c1-3.2,2.1-7.2,3.4-11.1l10.5-31.2h10.2l-14.5,37.9
		c-6.9,18.2-11.6,27.6-18.2,33.3c-4.7,4.2-9.4,5.8-11.9,6.3l-2.4-8.1c2.4-0.8,5.6-2.3,8.5-4.7c2.6-2.1,5.9-5.8,8.1-10.8
		c0.4-1,0.8-1.8,0.8-2.3c0-0.5-0.2-1.3-0.7-2.5l-19.7-49H2128.5z"/>
	<path fill="#414042" d="M2193.3-2263.7v15.3h13.8v7.4h-13.8v28.7c0,6.6,1.9,10.3,7.2,10.3c2.5,0,4.4-0.3,5.6-0.7l0.4,7.2
		c-1.9,0.8-4.8,1.3-8.6,1.3c-4.5,0-8.1-1.4-10.4-4.1c-2.7-2.9-3.7-7.6-3.7-13.8v-29h-8.2v-7.4h8.2v-12.7L2193.3-2263.7z"/>
	<path fill="#414042" d="M2224.9-2220.1c0.2,13.1,8.6,18.4,18.2,18.4c6.9,0,11.1-1.2,14.7-2.7l1.6,6.9c-3.4,1.5-9.2,3.3-17.7,3.3
		c-16.4,0-26.1-10.8-26.1-26.8s9.4-28.7,24.9-28.7c17.3,0,22,15.3,22,25c0,2-0.2,3.5-0.3,4.5H2224.9z M2253.3-2227
		c0.1-6.1-2.5-15.7-13.4-15.7c-9.8,0-14.1,9-14.8,15.7H2253.3z"/>
	<path fill="#414042" d="M2276.8-2231.9c0-6.3-0.1-11.6-0.4-16.6h8.5l0.3,10.4h0.4c2.4-7.1,8.2-11.6,14.7-11.6
		c1.1,0,1.9,0.1,2.7,0.3v9.1c-1-0.2-2-0.3-3.3-0.3c-6.8,0-11.6,5.2-13,12.4c-0.2,1.3-0.4,2.9-0.4,4.5v28.3h-9.6V-2231.9z"/>
</g>
<circle fill="#6D6E71" cx="2239.5" cy="-2395.4" r="21.4"/>
<g>
	<path fill="#F37625" d="M2129.8-2109.6c-65.5,0-122.6-23.5-152.3-58.3c22.5,62.4,82.2,106.9,152.3,106.9
		c70.1,0,129.8-44.6,152.3-106.9C2252.3-2133.1,2195.3-2109.6,2129.8-2109.6z"/>
	<path fill="#F37625" d="M2129.8-2336c65.5,0,122.6,23.5,152.3,58.3c-22.5-62.4-82.2-106.9-152.3-106.9
		c-70.1,0-129.8,44.6-152.3,106.9C2007.2-2312.4,2064.3-2336,2129.8-2336z"/>
</g>
<circle fill="#939598" cx="2020.3" cy="-2041.6" r="25.8"/>
<circle fill="#58595B" cx="1994.8" cy="-2366" r="15.7"/>
<g>
	<circle fill="#6D6E71" cx="2239.5" cy="-1021.2" r="21.4"/>
	<g>
		<path fill="#F37625" d="M2129.8-735.4c-65.5,0-122.6-23.5-152.3-58.3c22.5,62.4,82.2,106.9,152.3,106.9s129.8-44.6,152.3-106.9
			C2252.3-759,2195.3-735.4,2129.8-735.4z"/>
		<path fill="#F37625" d="M2129.8-961.8c65.5,0,122.6,23.5,152.3,58.3c-22.5-62.4-82.2-106.9-152.3-106.9s-129.8,44.6-152.3,106.9
			C2007.2-938.3,2064.3-961.8,2129.8-961.8z"/>
	</g>
	<circle fill="#939598" cx="2020.3" cy="-667.4" r="25.8"/>
	<circle fill="#58595B" cx="1994.8" cy="-991.9" r="15.7"/>
</g>
<g>
	<path d="M2882.5-2204c0,12.7-1,16.9-3.6,20c-2.3,2.5-6.1,3.7-10.5,4.1l1,7.6c5.2,0,12.2-1.8,16.5-6c4.7-4.8,6.4-11.5,6.4-21.9
		v-48.2h-9.7V-2204z"/>
	<path d="M2954.6-2209.8c0,5.5,0.1,10.3,0.4,14.5h-8.6l-0.5-8.7h-0.2c-2.5,4.3-8.1,9.9-17.6,9.9c-8.3,0-18.3-4.6-18.3-23.3v-31.1
		h9.7v29.4c0,10.1,3.1,16.9,11.9,16.9c6.5,0,11-4.5,12.7-8.8c0.5-1.4,0.9-3.2,0.9-4.9v-32.6h9.7V-2209.8z"/>
	<path d="M2972.9-2231.1c0-6.8-0.2-12.3-0.4-17.3h8.7l0.4,9.1h0.2c4-6.5,10.2-10.3,18.9-10.3c12.8,0,22.5,10.9,22.5,27
		c0,19.1-11.6,28.5-24.2,28.5c-7,0-13.2-3.1-16.4-8.3h-0.2v28.9h-9.6V-2231.1z M2982.4-2216.9c0,1.4,0.2,2.7,0.4,4
		c1.8,6.7,7.6,11.3,14.5,11.3c10.2,0,16.1-8.3,16.1-20.5c0-10.7-5.6-19.8-15.8-19.8c-6.6,0-12.7,4.7-14.6,12c-0.3,1.2-0.7,2.6-0.7,4
		V-2216.9z"/>
	<path d="M3040.3-2248.4l11.6,31.4c1.2,3.5,2.5,7.7,3.4,10.9h0.2c1-3.2,2.1-7.2,3.4-11.1l10.5-31.2h10.2l-14.5,37.9
		c-6.9,18.2-11.6,27.6-18.2,33.3c-4.7,4.2-9.4,5.8-11.9,6.3l-2.4-8.1c2.4-0.8,5.6-2.3,8.5-4.7c2.6-2.1,5.9-5.8,8.1-10.8
		c0.4-1,0.8-1.8,0.8-2.3c0-0.5-0.2-1.3-0.7-2.5l-19.7-49H3040.3z"/>
	<path d="M3105.1-2263.7v15.3h13.8v7.4h-13.8v28.7c0,6.6,1.9,10.3,7.2,10.3c2.5,0,4.4-0.3,5.6-0.7l0.4,7.2c-1.9,0.8-4.8,1.3-8.6,1.3
		c-4.5,0-8.1-1.4-10.4-4.1c-2.7-2.9-3.7-7.6-3.7-13.8v-29h-8.2v-7.4h8.2v-12.7L3105.1-2263.7z"/>
	<path d="M3136.7-2220.1c0.2,13.1,8.6,18.4,18.2,18.4c6.9,0,11.1-1.2,14.7-2.7l1.6,6.9c-3.4,1.5-9.2,3.3-17.7,3.3
		c-16.4,0-26.1-10.8-26.1-26.8s9.4-28.7,24.9-28.7c17.3,0,22,15.3,22,25c0,2-0.2,3.5-0.3,4.5H3136.7z M3165.1-2227
		c0.1-6.1-2.5-15.7-13.4-15.7c-9.8,0-14.1,9-14.8,15.7H3165.1z"/>
	<path d="M3188.6-2231.9c0-6.3-0.1-11.6-0.4-16.6h8.5l0.3,10.4h0.4c2.4-7.1,8.2-11.6,14.7-11.6c1.1,0,1.9,0.1,2.7,0.3v9.1
		c-1-0.2-2-0.3-3.3-0.3c-6.8,0-11.6,5.2-13,12.4c-0.2,1.3-0.4,2.9-0.4,4.5v28.3h-9.6V-2231.9z"/>
</g>
<circle cx="3151.3" cy="-2395.4" r="21.4"/>
<g>
	<path d="M3041.6-2109.6c-65.5,0-122.6-23.5-152.3-58.3c22.5,62.4,82.2,106.9,152.3,106.9c70.1,0,129.8-44.6,152.3-106.9
		C3164.2-2133.1,3107.1-2109.6,3041.6-2109.6z"/>
	<path d="M3041.6-2336c65.5,0,122.6,23.5,152.3,58.3c-22.5-62.4-82.2-106.9-152.3-106.9c-70.1,0-129.8,44.6-152.3,106.9
		C2919-2312.4,2976.1-2336,3041.6-2336z"/>
</g>
<circle cx="2932.1" cy="-2041.6" r="25.8"/>
<circle cx="2906.6" cy="-2366" r="15.7"/>
<g>
	<circle cx="3151.3" cy="-1021.2" r="21.4"/>
	<g>
		<path d="M3041.6-735.4c-65.5,0-122.6-23.5-152.3-58.3c22.5,62.4,82.2,106.9,152.3,106.9s129.8-44.6,152.3-106.9
			C3164.1-759,3107.1-735.4,3041.6-735.4z"/>
		<path d="M3041.6-961.8c65.5,0,122.6,23.5,152.3,58.3c-22.5-62.4-82.2-106.9-152.3-106.9s-129.8,44.6-152.3,106.9
			C2919-938.3,2976.1-961.8,3041.6-961.8z"/>
	</g>
	<circle cx="2932.1" cy="-667.4" r="25.8"/>
	<circle cx="2906.6" cy="-991.9" r="15.7"/>
</g>
<g>
	<path fill="#414042" d="M64.7-1504.3c0,20.6-1.6,27.4-5.9,32.3c-3.7,4.1-9.9,6-17.1,6.6l1.6,12.3c8.3,0,19.7-2.8,26.6-9.8
		c7.6-7.8,10.3-18.7,10.3-35.4v-78H64.7V-1504.3z"/>
	<path fill="#414042" d="M181.4-1513.7c0,8.9,0.2,16.7,0.7,23.4h-13.9l-0.9-14H167c-4.1,6.9-13.1,16-28.4,16
		c-13.5,0-29.7-7.5-29.7-37.7v-50.3h15.6v47.6c0,16.3,5,27.4,19.2,27.4c10.5,0,17.8-7.3,20.6-14.2c0.9-2.3,1.4-5.2,1.4-8v-52.8h15.6
		V-1513.7z"/>
	<path fill="#414042" d="M210.9-1548.2c0-11-0.4-19.9-0.7-28.1h14l0.7,14.7h0.4c6.4-10.5,16.5-16.7,30.6-16.7
		c20.8,0,36.4,17.6,36.4,43.7c0,30.9-18.8,46.2-39.1,46.2c-11.4,0-21.3-5-26.5-13.5h-0.4v46.7h-15.5V-1548.2z M226.3-1525.3
		c0,2.3,0.4,4.4,0.7,6.4c2.8,10.8,12.3,18.3,23.4,18.3c16.5,0,26.1-13.5,26.1-33.2c0-17.2-9.1-32-25.6-32
		c-10.7,0-20.6,7.6-23.6,19.4c-0.5,2-1.1,4.3-1.1,6.4V-1525.3z"/>
	<path fill="#414042" d="M319.9-1576.3l18.8,50.8c2,5.7,4.1,12.4,5.5,17.6h0.4c1.6-5.2,3.4-11.7,5.5-17.9l17.1-50.4h16.5l-23.4,61.3
		c-11.2,29.5-18.8,44.6-29.5,53.8c-7.6,6.7-15.3,9.4-19.2,10.1l-3.9-13.1c3.9-1.2,9.1-3.7,13.7-7.6c4.3-3.4,9.6-9.4,13.1-17.4
		c0.7-1.6,1.2-2.8,1.2-3.7c0-0.9-0.4-2.1-1.1-4.1l-31.8-79.2H319.9z"/>
	<path fill="#414042" d="M424.8-1601v24.7h22.4v11.9h-22.4v46.4c0,10.7,3,16.7,11.7,16.7c4.1,0,7.1-0.5,9.1-1.1l0.7,11.7
		c-3,1.2-7.8,2.1-13.9,2.1c-7.3,0-13.1-2.3-16.9-6.6c-4.4-4.6-6-12.3-6-22.4v-46.9h-13.3v-11.9h13.3v-20.6L424.8-1601z"/>
	<path fill="#414042" d="M476-1530.4c0.4,21.1,13.9,29.8,29.5,29.8c11.2,0,17.9-2,23.8-4.4l2.7,11.2c-5.5,2.5-14.9,5.3-28.6,5.3
		c-26.5,0-42.3-17.4-42.3-43.3c0-25.9,15.3-46.4,40.3-46.4c28.1,0,35.5,24.7,35.5,40.5c0,3.2-0.4,5.7-0.5,7.3H476z M521.8-1541.6
		c0.2-9.9-4.1-25.4-21.7-25.4c-15.8,0-22.7,14.6-24,25.4H521.8z"/>
	<path fill="#414042" d="M559.8-1549.4c0-10.1-0.2-18.8-0.7-26.8h13.7l0.5,16.9h0.7c3.9-11.5,13.3-18.8,23.8-18.8
		c1.8,0,3,0.2,4.4,0.5v14.7c-1.6-0.4-3.2-0.5-5.3-0.5c-11,0-18.8,8.3-21,20.1c-0.4,2.1-0.7,4.6-0.7,7.3v45.8h-15.5V-1549.4z"/>
</g>
<circle fill="#6D6E71" cx="-7" cy="-1591.7" r="7.1"/>
<g>
	<linearGradient id="SVGID_9_" gradientUnits="userSpaceOnUse" x1="-93.9062" y1="-1498.5146" x2="7.1296" y2="-1498.5146">
		<stop  offset="5.220520e-02" style="stop-color:#F78D26"/>
		<stop  offset="0.2056" style="stop-color:#F68826"/>
		<stop  offset="0.4323" style="stop-color:#F37A25"/>
		<stop  offset="0.4766" style="stop-color:#F37625"/>
		<stop  offset="0.6159" style="stop-color:#E76623"/>
		<stop  offset="0.8356" style="stop-color:#DC5221"/>
		<stop  offset="0.9873" style="stop-color:#D84B21"/>
	</linearGradient>
	<path fill="url(#SVGID_9_)" d="M-43.4-1496.9c-21.7,0-40.7-7.8-50.5-19.4c7.5,20.7,27.3,35.5,50.5,35.5s43.1-14.8,50.5-35.5
		C-2.7-1504.7-21.7-1496.9-43.4-1496.9z"/>
	<linearGradient id="SVGID_10_" gradientUnits="userSpaceOnUse" x1="-93.9062" y1="-1570.405" x2="7.1296" y2="-1570.405">
		<stop  offset="5.220520e-02" style="stop-color:#F78D26"/>
		<stop  offset="0.2056" style="stop-color:#F68826"/>
		<stop  offset="0.4323" style="stop-color:#F37A25"/>
		<stop  offset="0.4766" style="stop-color:#F37625"/>
		<stop  offset="0.6159" style="stop-color:#E76623"/>
		<stop  offset="0.8356" style="stop-color:#DC5221"/>
		<stop  offset="0.9873" style="stop-color:#D84B21"/>
	</linearGradient>
	<path fill="url(#SVGID_10_)" d="M-43.4-1572c21.7,0,40.7,7.8,50.5,19.4c-7.5-20.7-27.3-35.5-50.5-35.5s-43.1,14.8-50.5,35.5
		C-84.1-1564.2-65.1-1572-43.4-1572z"/>
</g>
<circle fill="#939598" cx="-79.7" cy="-1474.3" r="8.6"/>
<circle fill="#58595B" cx="-88.2" cy="-1582" r="5.2"/>
<g>
	<path fill="#414042" d="M1023.4-1504.3c0,20.6-1.6,27.4-5.9,32.3c-3.7,4.1-9.9,6-17.1,6.6l1.6,12.3c8.3,0,19.7-2.8,26.6-9.8
		c7.6-7.8,10.3-18.7,10.3-35.4v-78h-15.6V-1504.3z"/>
	<path fill="#414042" d="M1140.1-1513.7c0,8.9,0.2,16.7,0.7,23.4H1127l-0.9-14h-0.4c-4.1,6.9-13.1,16-28.4,16
		c-13.5,0-29.7-7.5-29.7-37.7v-50.3h15.6v47.6c0,16.3,5,27.4,19.2,27.4c10.5,0,17.8-7.3,20.6-14.2c0.9-2.3,1.4-5.2,1.4-8v-52.8h15.6
		V-1513.7z"/>
	<path fill="#414042" d="M1169.6-1548.2c0-11-0.4-19.9-0.7-28.1h14l0.7,14.7h0.4c6.4-10.5,16.5-16.7,30.6-16.7
		c20.8,0,36.4,17.6,36.4,43.7c0,30.9-18.8,46.2-39.1,46.2c-11.4,0-21.3-5-26.5-13.5h-0.4v46.7h-15.5V-1548.2z M1185.1-1525.3
		c0,2.3,0.4,4.4,0.7,6.4c2.8,10.8,12.3,18.3,23.4,18.3c16.5,0,26.1-13.5,26.1-33.2c0-17.2-9.1-32-25.6-32
		c-10.7,0-20.6,7.6-23.6,19.4c-0.5,2-1.1,4.3-1.1,6.4V-1525.3z"/>
	<path fill="#414042" d="M1278.7-1576.3l18.8,50.8c2,5.7,4.1,12.4,5.5,17.6h0.4c1.6-5.2,3.4-11.7,5.5-17.9l17.1-50.4h16.5L1319-1515
		c-11.2,29.5-18.8,44.6-29.5,53.8c-7.6,6.7-15.3,9.4-19.2,10.1l-3.9-13.1c3.9-1.2,9.1-3.7,13.7-7.6c4.3-3.4,9.6-9.4,13.1-17.4
		c0.7-1.6,1.2-2.8,1.2-3.7c0-0.9-0.4-2.1-1.1-4.1l-31.8-79.2H1278.7z"/>
	<path fill="#414042" d="M1383.6-1601v24.7h22.4v11.9h-22.4v46.4c0,10.7,3,16.7,11.7,16.7c4.1,0,7.1-0.5,9.1-1.1l0.7,11.7
		c-3,1.2-7.8,2.1-13.9,2.1c-7.3,0-13.1-2.3-16.9-6.6c-4.4-4.6-6-12.3-6-22.4v-46.9H1355v-11.9h13.3v-20.6L1383.6-1601z"/>
	<path fill="#414042" d="M1434.7-1530.4c0.4,21.1,13.9,29.8,29.5,29.8c11.2,0,17.9-2,23.8-4.4l2.7,11.2c-5.5,2.5-14.9,5.3-28.6,5.3
		c-26.5,0-42.3-17.4-42.3-43.3c0-25.9,15.3-46.4,40.3-46.4c28.1,0,35.5,24.7,35.5,40.5c0,3.2-0.4,5.7-0.5,7.3H1434.7z
		 M1480.5-1541.6c0.2-9.9-4.1-25.4-21.7-25.4c-15.8,0-22.7,14.6-24,25.4H1480.5z"/>
	<path fill="#414042" d="M1518.6-1549.4c0-10.1-0.2-18.8-0.7-26.8h13.7l0.5,16.9h0.7c3.9-11.5,13.3-18.8,23.8-18.8
		c1.8,0,3,0.2,4.4,0.5v14.7c-1.6-0.4-3.2-0.5-5.3-0.5c-11,0-18.8,8.3-21,20.1c-0.4,2.1-0.7,4.6-0.7,7.3v45.8h-15.5V-1549.4z"/>
</g>
<circle fill="#6D6E71" cx="951.8" cy="-1591.7" r="7.1"/>
<g>
	<linearGradient id="SVGID_11_" gradientUnits="userSpaceOnUse" x1="864.8296" y1="-1498.5146" x2="965.8654" y2="-1498.5146">
		<stop  offset="7.414178e-02" style="stop-color:#BCBEC0"/>
		<stop  offset="0.3771" style="stop-color:#6D6E71"/>
		<stop  offset="0.4846" style="stop-color:#5E5F61"/>
		<stop  offset="0.697" style="stop-color:#414143"/>
		<stop  offset="0.8764" style="stop-color:#1A191A"/>
		<stop  offset="1" style="stop-color:#000000"/>
	</linearGradient>
	<path fill="url(#SVGID_11_)" d="M915.3-1496.9c-21.7,0-40.7-7.8-50.5-19.4c7.5,20.7,27.3,35.5,50.5,35.5
		c23.3,0,43.1-14.8,50.5-35.5C956-1504.7,937.1-1496.9,915.3-1496.9z"/>
	<linearGradient id="SVGID_12_" gradientUnits="userSpaceOnUse" x1="864.8296" y1="-1570.405" x2="965.8654" y2="-1570.405">
		<stop  offset="7.414178e-02" style="stop-color:#BCBEC0"/>
		<stop  offset="0.3771" style="stop-color:#6D6E71"/>
		<stop  offset="0.4846" style="stop-color:#5E5F61"/>
		<stop  offset="0.697" style="stop-color:#414143"/>
		<stop  offset="0.8764" style="stop-color:#1A191A"/>
		<stop  offset="1" style="stop-color:#000000"/>
	</linearGradient>
	<path fill="url(#SVGID_12_)" d="M915.3-1572c21.7,0,40.7,7.8,50.5,19.4c-7.5-20.7-27.3-35.5-50.5-35.5c-23.3,0-43.1,14.8-50.5,35.5
		C874.7-1564.2,893.6-1572,915.3-1572z"/>
</g>
<circle fill="#939598" cx="879" cy="-1474.3" r="8.6"/>
<circle fill="#58595B" cx="870.6" cy="-1582" r="5.2"/>
<g>
	<path fill="#414042" d="M1948.9-1504.3c0,20.6-1.6,27.4-5.9,32.3c-3.7,4.1-9.9,6-17.1,6.6l1.6,12.3c8.3,0,19.7-2.8,26.6-9.8
		c7.6-7.8,10.3-18.7,10.3-35.4v-78h-15.6V-1504.3z"/>
	<path fill="#414042" d="M2065.6-1513.7c0,8.9,0.2,16.7,0.7,23.4h-13.9l-0.9-14h-0.4c-4.1,6.9-13.1,16-28.4,16
		c-13.5,0-29.7-7.5-29.7-37.7v-50.3h15.6v47.6c0,16.3,5,27.4,19.2,27.4c10.5,0,17.8-7.3,20.6-14.2c0.9-2.3,1.4-5.2,1.4-8v-52.8h15.6
		V-1513.7z"/>
	<path fill="#414042" d="M2095.1-1548.2c0-11-0.4-19.9-0.7-28.1h14l0.7,14.7h0.4c6.4-10.5,16.5-16.7,30.6-16.7
		c20.8,0,36.4,17.6,36.4,43.7c0,30.9-18.8,46.2-39.1,46.2c-11.4,0-21.3-5-26.5-13.5h-0.4v46.7h-15.5V-1548.2z M2110.5-1525.3
		c0,2.3,0.4,4.4,0.7,6.4c2.8,10.8,12.3,18.3,23.4,18.3c16.5,0,26.1-13.5,26.1-33.2c0-17.2-9.1-32-25.6-32
		c-10.7,0-20.6,7.6-23.6,19.4c-0.5,2-1.1,4.3-1.1,6.4V-1525.3z"/>
	<path fill="#414042" d="M2204.2-1576.3l18.8,50.8c2,5.7,4.1,12.4,5.5,17.6h0.4c1.6-5.2,3.4-11.7,5.5-17.9l17.1-50.4h16.5
		l-23.4,61.3c-11.2,29.5-18.8,44.6-29.5,53.8c-7.6,6.7-15.3,9.4-19.2,10.1l-3.9-13.1c3.9-1.2,9.1-3.7,13.7-7.6
		c4.3-3.4,9.6-9.4,13.1-17.4c0.7-1.6,1.2-2.8,1.2-3.7c0-0.9-0.4-2.1-1.1-4.1l-31.8-79.2H2204.2z"/>
	<path fill="#414042" d="M2309-1601v24.7h22.4v11.9H2309v46.4c0,10.7,3,16.7,11.7,16.7c4.1,0,7.1-0.5,9.1-1.1l0.7,11.7
		c-3,1.2-7.8,2.1-13.9,2.1c-7.3,0-13.1-2.3-16.9-6.6c-4.4-4.6-6-12.3-6-22.4v-46.9h-13.3v-11.9h13.3v-20.6L2309-1601z"/>
	<path fill="#414042" d="M2360.2-1530.4c0.4,21.1,13.9,29.8,29.5,29.8c11.2,0,17.9-2,23.8-4.4l2.7,11.2c-5.5,2.5-14.9,5.3-28.6,5.3
		c-26.5,0-42.3-17.4-42.3-43.3c0-25.9,15.3-46.4,40.3-46.4c28.1,0,35.5,24.7,35.5,40.5c0,3.2-0.4,5.7-0.5,7.3H2360.2z M2406-1541.6
		c0.2-9.9-4.1-25.4-21.7-25.4c-15.8,0-22.7,14.6-24,25.4H2406z"/>
	<path fill="#414042" d="M2444-1549.4c0-10.1-0.2-18.8-0.7-26.8h13.7l0.5,16.9h0.7c3.9-11.5,13.3-18.8,23.8-18.8
		c1.8,0,3,0.2,4.4,0.5v14.7c-1.6-0.4-3.2-0.5-5.3-0.5c-11,0-18.8,8.3-21,20.1c-0.4,2.1-0.7,4.6-0.7,7.3v45.8H2444V-1549.4z"/>
</g>
<circle fill="#6D6E71" cx="1877.2" cy="-1591.7" r="7.1"/>
<g>
	<path fill="#F37625" d="M1840.8-1496.9c-21.7,0-40.7-7.8-50.5-19.4c7.5,20.7,27.3,35.5,50.5,35.5s43.1-14.8,50.5-35.5
		C1881.5-1504.7,1862.6-1496.9,1840.8-1496.9z"/>
	<path fill="#F37625" d="M1840.8-1572c21.7,0,40.7,7.8,50.5,19.4c-7.5-20.7-27.3-35.5-50.5-35.5s-43.1,14.8-50.5,35.5
		C1800.2-1564.2,1819.1-1572,1840.8-1572z"/>
</g>
<circle fill="#939598" cx="1804.5" cy="-1474.3" r="8.6"/>
<circle fill="#58595B" cx="1796.1" cy="-1582" r="5.2"/>
<g>
	<path d="M2865.2-1504.3c0,20.6-1.6,27.4-5.9,32.3c-3.7,4.1-9.9,6-17.1,6.6l1.6,12.3c8.3,0,19.7-2.8,26.6-9.8
		c7.6-7.8,10.3-18.7,10.3-35.4v-78h-15.6V-1504.3z"/>
	<path d="M2981.9-1513.7c0,8.9,0.2,16.7,0.7,23.4h-13.9l-0.9-14h-0.4c-4.1,6.9-13.1,16-28.4,16c-13.5,0-29.7-7.5-29.7-37.7v-50.3
		h15.6v47.6c0,16.3,5,27.4,19.2,27.4c10.5,0,17.8-7.3,20.6-14.2c0.9-2.3,1.4-5.2,1.4-8v-52.8h15.6V-1513.7z"/>
	<path d="M3011.4-1548.2c0-11-0.4-19.9-0.7-28.1h14l0.7,14.7h0.4c6.4-10.5,16.5-16.7,30.6-16.7c20.8,0,36.4,17.6,36.4,43.7
		c0,30.9-18.8,46.2-39.1,46.2c-11.4,0-21.3-5-26.5-13.5h-0.4v46.7h-15.5V-1548.2z M3026.9-1525.3c0,2.3,0.4,4.4,0.7,6.4
		c2.8,10.8,12.3,18.3,23.4,18.3c16.5,0,26.1-13.5,26.1-33.2c0-17.2-9.1-32-25.6-32c-10.7,0-20.6,7.6-23.6,19.4
		c-0.5,2-1.1,4.3-1.1,6.4V-1525.3z"/>
	<path d="M3120.5-1576.3l18.8,50.8c2,5.7,4.1,12.4,5.5,17.6h0.4c1.6-5.2,3.4-11.7,5.5-17.9l17.1-50.4h16.5l-23.4,61.3
		c-11.2,29.5-18.8,44.6-29.5,53.8c-7.6,6.7-15.3,9.4-19.2,10.1l-3.9-13.1c3.9-1.2,9.1-3.7,13.7-7.6c4.3-3.4,9.6-9.4,13.1-17.4
		c0.7-1.6,1.2-2.8,1.2-3.7c0-0.9-0.4-2.1-1.1-4.1l-31.8-79.2H3120.5z"/>
	<path d="M3225.4-1601v24.7h22.4v11.9h-22.4v46.4c0,10.7,3,16.7,11.7,16.7c4.1,0,7.1-0.5,9.1-1.1l0.7,11.7c-3,1.2-7.8,2.1-13.9,2.1
		c-7.3,0-13.1-2.3-16.9-6.6c-4.4-4.6-6-12.3-6-22.4v-46.9h-13.3v-11.9h13.3v-20.6L3225.4-1601z"/>
	<path d="M3276.5-1530.4c0.4,21.1,13.9,29.8,29.5,29.8c11.2,0,17.9-2,23.8-4.4l2.7,11.2c-5.5,2.5-14.9,5.3-28.6,5.3
		c-26.5,0-42.3-17.4-42.3-43.3c0-25.9,15.3-46.4,40.3-46.4c28.1,0,35.5,24.7,35.5,40.5c0,3.2-0.4,5.7-0.5,7.3H3276.5z
		 M3322.4-1541.6c0.2-9.9-4.1-25.4-21.7-25.4c-15.8,0-22.7,14.6-24,25.4H3322.4z"/>
	<path d="M3360.4-1549.4c0-10.1-0.2-18.8-0.7-26.8h13.7l0.5,16.9h0.7c3.9-11.5,13.3-18.8,23.8-18.8c1.8,0,3,0.2,4.4,0.5v14.7
		c-1.6-0.4-3.2-0.5-5.3-0.5c-11,0-18.8,8.3-21,20.1c-0.4,2.1-0.7,4.6-0.7,7.3v45.8h-15.5V-1549.4z"/>
</g>
<circle cx="2793.6" cy="-1591.7" r="7.1"/>
<g>
	<path d="M2757.2-1496.9c-21.7,0-40.7-7.8-50.5-19.4c7.5,20.7,27.3,35.5,50.5,35.5s43.1-14.8,50.5-35.5
		C2797.8-1504.7,2778.9-1496.9,2757.2-1496.9z"/>
	<path d="M2757.2-1572c21.7,0,40.7,7.8,50.5,19.4c-7.5-20.7-27.3-35.5-50.5-35.5s-43.1,14.8-50.5,35.5
		C2716.5-1564.2,2735.4-1572,2757.2-1572z"/>
</g>
<circle cx="2720.8" cy="-1474.3" r="8.6"/>
<circle cx="2712.4" cy="-1582" r="5.2"/>
<g>
	<path fill="#414042" d="M239.6,170.4c0,29.6-2.3,39.3-8.4,46.4c-5.4,5.9-14.3,8.7-24.5,9.4l2.3,17.6c12,0,28.3-4.1,38.3-14
		c11-11.2,14.8-26.8,14.8-50.8v-112h-22.4V170.4z"/>
	<path fill="#414042" d="M407.2,156.9c0,12.8,0.3,24,1,33.7h-19.9l-1.3-20.1h-0.5c-5.9,9.9-18.9,23-40.8,23
		c-19.4,0-42.6-10.7-42.6-54.1V67.1h22.4v68.4c0,23.5,7.1,39.3,27.5,39.3c15,0,25.5-10.5,29.6-20.4c1.3-3.3,2-7.4,2-11.5V67.1h22.4
		V156.9z"/>
	<path fill="#414042" d="M449.5,107.4c0-15.8-0.5-28.6-1-40.3h20.1l1,21.2h0.5c9.2-15,23.7-24,43.9-24c29.8,0,52.3,25.2,52.3,62.7
		c0,44.4-27,66.3-56.1,66.3c-16.3,0-30.6-7.1-38-19.4h-0.5V241h-22.2V107.4z M471.7,140.3c0,3.3,0.5,6.4,1,9.2
		c4.1,15.6,17.6,26.3,33.7,26.3c23.7,0,37.5-19.4,37.5-47.7c0-24.7-13-45.9-36.7-45.9c-15.3,0-29.6,11-33.9,27.8
		c-0.8,2.8-1.5,6.1-1.5,9.2V140.3z"/>
	<path fill="#414042" d="M606.1,67.1l27,72.9c2.8,8.2,5.9,17.9,7.9,25.2h0.5c2.3-7.4,4.8-16.8,7.9-25.8L674,67.1h23.7l-33.7,88
		c-16.1,42.3-27,64-42.3,77.3c-11,9.7-21.9,13.5-27.5,14.5l-5.6-18.9c5.6-1.8,13-5.4,19.6-11c6.1-4.8,13.8-13.5,18.9-25
		c1-2.3,1.8-4.1,1.8-5.4c0-1.3-0.5-3.1-1.5-5.9L581.6,67.1H606.1z"/>
	<path fill="#414042" d="M756.7,31.6v35.5h32.1v17.1h-32.1v66.6c0,15.3,4.3,24,16.8,24c5.9,0,10.2-0.8,13-1.5l1,16.8
		c-4.3,1.8-11.2,3.1-19.9,3.1c-10.5,0-18.9-3.3-24.2-9.4c-6.4-6.6-8.7-17.6-8.7-32.1V84.2h-19.1V67.1h19.1V37.5L756.7,31.6z"/>
	<path fill="#414042" d="M830.2,132.9c0.5,30.3,19.9,42.8,42.3,42.8c16.1,0,25.8-2.8,34.2-6.4l3.8,16.1c-7.9,3.6-21.4,7.7-41.1,7.7
		c-38,0-60.7-25-60.7-62.2s21.9-66.6,57.9-66.6c40.3,0,51,35.5,51,58.1c0,4.6-0.5,8.2-0.8,10.5H830.2z M896,116.8
		c0.3-14.3-5.9-36.5-31.1-36.5c-22.7,0-32.6,20.9-34.4,36.5H896z"/>
	<path fill="#414042" d="M950.5,105.6c0-14.5-0.3-27-1-38.5h19.6l0.8,24.2h1c5.6-16.6,19.1-27,34.2-27c2.6,0,4.3,0.3,6.4,0.8v21.2
		c-2.3-0.5-4.6-0.8-7.7-0.8c-15.8,0-27,12-30.1,28.8c-0.5,3.1-1,6.6-1,10.5v65.8h-22.2V105.6z"/>
</g>
<circle fill="#6D6E71" cx="136.8" cy="44.9" r="10.2"/>
<g>
	<linearGradient id="SVGID_13_" gradientUnits="userSpaceOnUse" x1="11.9761" y1="178.7208" x2="157.0318" y2="178.7208">
		<stop  offset="5.220520e-02" style="stop-color:#F78D26"/>
		<stop  offset="0.2056" style="stop-color:#F68826"/>
		<stop  offset="0.4323" style="stop-color:#F37A25"/>
		<stop  offset="0.4766" style="stop-color:#F37625"/>
		<stop  offset="0.6159" style="stop-color:#E76623"/>
		<stop  offset="0.8356" style="stop-color:#DC5221"/>
		<stop  offset="0.9873" style="stop-color:#D84B21"/>
	</linearGradient>
	<path fill="url(#SVGID_13_)" d="M84.5,181c-31.2,0-58.4-11.2-72.5-27.8c10.7,29.7,39.1,50.9,72.5,50.9s61.8-21.2,72.5-50.9
		C142.9,169.8,115.7,181,84.5,181z"/>
	<linearGradient id="SVGID_14_" gradientUnits="userSpaceOnUse" x1="11.9761" y1="75.5089" x2="157.0318" y2="75.5089">
		<stop  offset="5.220520e-02" style="stop-color:#F78D26"/>
		<stop  offset="0.2056" style="stop-color:#F68826"/>
		<stop  offset="0.4323" style="stop-color:#F37A25"/>
		<stop  offset="0.4766" style="stop-color:#F37625"/>
		<stop  offset="0.6159" style="stop-color:#E76623"/>
		<stop  offset="0.8356" style="stop-color:#DC5221"/>
		<stop  offset="0.9873" style="stop-color:#D84B21"/>
	</linearGradient>
	<path fill="url(#SVGID_14_)" d="M84.5,73.2c31.2,0,58.4,11.2,72.5,27.8C146.3,71.3,117.9,50,84.5,50S22.7,71.3,12,101
		C26.1,84.4,53.3,73.2,84.5,73.2z"/>
</g>
<circle fill="#939598" cx="32.3" cy="213.4" r="12.3"/>
<circle fill="#58595B" cx="20.2" cy="58.9" r="7.5"/>
<g>
	<path fill="#F37625" d="M1045.8,10.2h22.1v75.7h0.5c3.5-6.3,9-11.8,15.8-15.5c6.5-3.8,14.3-6.3,22.6-6.3c16.3,0,42.4,10,42.4,51.9
		v72.2h-22.1v-69.7c0-19.6-7.3-36.1-28.1-36.1c-14.3,0-25.6,10-29.6,22.1c-1.3,3-1.5,6.3-1.5,10.5v73.2h-22.1V10.2z"/>
	<path fill="#F37625" d="M1286.6,155.2c0,12.5,0.2,23.6,1,33.1H1268l-1.3-19.8h-0.5c-5.8,9.8-18.6,22.6-40.1,22.6
		c-19.1,0-41.9-10.5-41.9-53.2v-71h22.1v67.2c0,23.1,7,38.6,27.1,38.6c14.8,0,25.1-10.3,29.1-20.1c1.3-3.3,2-7.3,2-11.3V66.9h22.1
		V155.2z"/>
	<path fill="#F37625" d="M1322.2,188.3c0.5-8.3,1-20.6,1-31.3V10.2h21.8v76.2h0.5c7.8-13.5,21.8-22.3,41.4-22.3
		c30.1,0,51.4,25.1,51.2,61.9c0,43.4-27.3,65-54.4,65c-17.6,0-31.6-6.8-40.6-22.8h-0.8l-1,20.1H1322.2z M1345,139.6
		c0,2.8,0.5,5.5,1,8c4.3,15.3,17.1,25.8,33.1,25.8c23.1,0,36.9-18.8,36.9-46.6c0-24.3-12.5-45.1-36.1-45.1
		c-15,0-29.1,10.3-33.6,27.1c-0.5,2.5-1.3,5.5-1.3,9V139.6z"/>
</g>
</svg>
