<?xml version="1.0" encoding="utf-8"?>
<!-- Generator: Adobe Illustrator 18.0.0, SVG Export Plug-In . SVG Version: 6.00 Build 0)  -->
<!DOCTYPE svg PUBLIC "-//W3C//DTD SVG 1.1//EN" "http://www.w3.org/Graphics/SVG/1.1/DTD/svg11.dtd">
<svg version="1.1" id="Layer_1" xmlns="http://www.w3.org/2000/svg" xmlns:xlink="http://www.w3.org/1999/xlink" x="0px" y="0px"
	 viewBox="0 0 1736 612" enable-background="new 0 0 1736 612" xml:space="preserve">
<g>
	<path fill="#414042" d="M236.9-2026.5c0,12.7-1,16.9-3.6,20c-2.3,2.5-6.1,3.7-10.5,4.1l1,7.6c5.2,0,12.2-1.8,16.5-6
		c4.7-4.8,6.4-11.5,6.4-21.9v-48.2h-9.7V-2026.5z"/>
	<path fill="#414042" d="M309.1-2032.3c0,5.5,0.1,10.3,0.4,14.5h-8.6l-0.5-8.7h-0.2c-2.5,4.3-8.1,9.9-17.6,9.9
		c-8.3,0-18.3-4.6-18.3-23.3v-31.1h9.7v29.4c0,10.1,3.1,16.9,11.9,16.9c6.5,0,11-4.5,12.7-8.8c0.5-1.4,0.9-3.2,0.9-4.9v-32.6h9.7
		V-2032.3z"/>
	<path fill="#414042" d="M327.3-2053.6c0-6.8-0.2-12.3-0.4-17.3h8.7l0.4,9.1h0.2c4-6.5,10.2-10.3,18.9-10.3
		c12.8,0,22.5,10.9,22.5,27c0,19.1-11.6,28.5-24.2,28.5c-7,0-13.2-3.1-16.4-8.3h-0.2v28.9h-9.6V-2053.6z M336.8-2039.5
		c0,1.4,0.2,2.7,0.4,4c1.8,6.7,7.6,11.3,14.5,11.3c10.2,0,16.1-8.3,16.1-20.5c0-10.7-5.6-19.8-15.8-19.8c-6.6,0-12.7,4.7-14.6,12
		c-0.3,1.2-0.7,2.6-0.7,4V-2039.5z"/>
	<path fill="#414042" d="M394.7-2071l11.6,31.4c1.2,3.5,2.5,7.7,3.4,10.9h0.2c1-3.2,2.1-7.2,3.4-11.1l10.5-31.2h10.2l-14.5,37.9
		c-6.9,18.2-11.6,27.6-18.2,33.3c-4.7,4.2-9.4,5.8-11.9,6.3l-2.4-8.1c2.4-0.8,5.6-2.3,8.5-4.7c2.6-2.1,5.9-5.8,8.1-10.8
		c0.4-1,0.8-1.8,0.8-2.3c0-0.5-0.2-1.3-0.7-2.5l-19.7-49H394.7z"/>
	<path fill="#414042" d="M459.5-2086.3v15.3h13.8v7.4h-13.8v28.7c0,6.6,1.9,10.3,7.2,10.3c2.5,0,4.4-0.3,5.6-0.7l0.4,7.2
		c-1.9,0.8-4.8,1.3-8.6,1.3c-4.5,0-8.1-1.4-10.4-4.1c-2.7-2.9-3.7-7.6-3.7-13.8v-29h-8.2v-7.4h8.2v-12.7L459.5-2086.3z"/>
	<path fill="#414042" d="M491.2-2042.7c0.2,13.1,8.6,18.4,18.2,18.4c6.9,0,11.1-1.2,14.7-2.7l1.6,6.9c-3.4,1.5-9.2,3.3-17.7,3.3
		c-16.4,0-26.1-10.8-26.1-26.8s9.4-28.7,24.9-28.7c17.3,0,22,15.3,22,25c0,2-0.2,3.5-0.3,4.5H491.2z M519.5-2049.6
		c0.1-6.1-2.5-15.7-13.4-15.7c-9.8,0-14.1,9-14.8,15.7H519.5z"/>
	<path fill="#414042" d="M543-2054.4c0-6.3-0.1-11.6-0.4-16.6h8.5l0.3,10.4h0.4c2.4-7.1,8.2-11.6,14.7-11.6c1.1,0,1.9,0.1,2.7,0.3
		v9.1c-1-0.2-2-0.3-3.3-0.3c-6.8,0-11.6,5.2-13,12.4c-0.2,1.3-0.4,2.9-0.4,4.5v28.3H543V-2054.4z"/>
</g>
<linearGradient id="SVGID_1_" gradientUnits="userSpaceOnUse" x1="484.3513" y1="-2217.9163" x2="527.1866" y2="-2217.9163">
	<stop  offset="0" style="stop-color:#808285"/>
	<stop  offset="9.314537e-02" style="stop-color:#797B7E"/>
	<stop  offset="0.4706" style="stop-color:#606163"/>
	<stop  offset="0.7864" style="stop-color:#4F4F51"/>
	<stop  offset="1" style="stop-color:#48484A"/>
</linearGradient>
<circle fill="url(#SVGID_1_)" cx="505.8" cy="-2217.9" r="21.4"/>
<g>
	<linearGradient id="SVGID_2_" gradientUnits="userSpaceOnUse" x1="243.7523" y1="-1937.0006" x2="548.271" y2="-1937.0006">
		<stop  offset="5.220520e-02" style="stop-color:#F78D26"/>
		<stop  offset="0.2056" style="stop-color:#F68826"/>
		<stop  offset="0.4323" style="stop-color:#F37A25"/>
		<stop  offset="0.4766" style="stop-color:#F37625"/>
		<stop  offset="0.6159" style="stop-color:#E76623"/>
		<stop  offset="0.8356" style="stop-color:#DC5221"/>
		<stop  offset="0.9873" style="stop-color:#D84B21"/>
	</linearGradient>
	<path fill="url(#SVGID_2_)" d="M396-1932.1c-65.5,0-122.6-23.5-152.3-58.3c22.5,62.4,82.2,106.9,152.3,106.9
		s129.8-44.6,152.3-106.9C518.6-1955.7,461.5-1932.1,396-1932.1z"/>
	<linearGradient id="SVGID_3_" gradientUnits="userSpaceOnUse" x1="243.7523" y1="-2153.6758" x2="548.271" y2="-2153.6758">
		<stop  offset="5.220520e-02" style="stop-color:#F78D26"/>
		<stop  offset="0.2056" style="stop-color:#F68826"/>
		<stop  offset="0.4323" style="stop-color:#F37A25"/>
		<stop  offset="0.4766" style="stop-color:#F37625"/>
		<stop  offset="0.6159" style="stop-color:#E76623"/>
		<stop  offset="0.8356" style="stop-color:#DC5221"/>
		<stop  offset="0.9873" style="stop-color:#D84B21"/>
	</linearGradient>
	<path fill="url(#SVGID_3_)" d="M396-2158.5c65.5,0,122.6,23.5,152.3,58.3c-22.5-62.4-82.2-106.9-152.3-106.9
		s-129.8,44.6-152.3,106.9C273.5-2135,330.5-2158.5,396-2158.5z"/>
</g>
<linearGradient id="SVGID_4_" gradientUnits="userSpaceOnUse" x1="260.7278" y1="-1864.1393" x2="312.2826" y2="-1864.1393">
	<stop  offset="1.435499e-02" style="stop-color:#BCBEC0"/>
	<stop  offset="1" style="stop-color:#6D6E71"/>
</linearGradient>
<circle fill="url(#SVGID_4_)" cx="286.5" cy="-1864.1" r="25.8"/>
<linearGradient id="SVGID_5_" gradientUnits="userSpaceOnUse" x1="245.3577" y1="-2188.5764" x2="276.7704" y2="-2188.5764">
	<stop  offset="0" style="stop-color:#6D6E71"/>
	<stop  offset="0.39" style="stop-color:#555658"/>
	<stop  offset="0.752" style="stop-color:#434244"/>
	<stop  offset="0.9969" style="stop-color:#383839"/>
</linearGradient>
<circle fill="url(#SVGID_5_)" cx="261.1" cy="-2188.6" r="15.7"/>
<linearGradient id="SVGID_6_" gradientUnits="userSpaceOnUse" x1="484.3513" y1="-843.7488" x2="527.1866" y2="-843.7488">
	<stop  offset="0" style="stop-color:#808285"/>
	<stop  offset="9.314537e-02" style="stop-color:#797B7E"/>
	<stop  offset="0.4706" style="stop-color:#606163"/>
	<stop  offset="0.7864" style="stop-color:#4F4F51"/>
	<stop  offset="1" style="stop-color:#48484A"/>
</linearGradient>
<circle fill="url(#SVGID_6_)" cx="505.8" cy="-843.7" r="21.4"/>
<g>
	<linearGradient id="SVGID_7_" gradientUnits="userSpaceOnUse" x1="243.7523" y1="-562.8331" x2="548.271" y2="-562.8331">
		<stop  offset="5.220520e-02" style="stop-color:#F78D26"/>
		<stop  offset="0.2056" style="stop-color:#F68826"/>
		<stop  offset="0.4323" style="stop-color:#F37A25"/>
		<stop  offset="0.4766" style="stop-color:#F37625"/>
		<stop  offset="0.6159" style="stop-color:#E76623"/>
		<stop  offset="0.8356" style="stop-color:#DC5221"/>
		<stop  offset="0.9873" style="stop-color:#D84B21"/>
	</linearGradient>
	<path fill="url(#SVGID_7_)" d="M396-558c-65.5,0-122.6-23.5-152.3-58.3c22.5,62.4,82.2,106.9,152.3,106.9s129.8-44.6,152.3-106.9
		C518.6-581.5,461.5-558,396-558z"/>
	<linearGradient id="SVGID_8_" gradientUnits="userSpaceOnUse" x1="243.7523" y1="-779.5084" x2="548.271" y2="-779.5084">
		<stop  offset="5.220520e-02" style="stop-color:#F78D26"/>
		<stop  offset="0.2056" style="stop-color:#F68826"/>
		<stop  offset="0.4323" style="stop-color:#F37A25"/>
		<stop  offset="0.4766" style="stop-color:#F37625"/>
		<stop  offset="0.6159" style="stop-color:#E76623"/>
		<stop  offset="0.8356" style="stop-color:#DC5221"/>
		<stop  offset="0.9873" style="stop-color:#D84B21"/>
	</linearGradient>
	<path fill="url(#SVGID_8_)" d="M396-784.4c65.5,0,122.6,23.5,152.3,58.3C525.8-788.4,466.1-833,396-833S266.2-788.4,243.8-726
		C273.5-760.8,330.5-784.4,396-784.4z"/>
</g>
<linearGradient id="SVGID_9_" gradientUnits="userSpaceOnUse" x1="260.7278" y1="-489.9718" x2="312.2826" y2="-489.9718">
	<stop  offset="1.435499e-02" style="stop-color:#BCBEC0"/>
	<stop  offset="1" style="stop-color:#6D6E71"/>
</linearGradient>
<circle fill="url(#SVGID_9_)" cx="286.5" cy="-490" r="25.8"/>
<linearGradient id="SVGID_10_" gradientUnits="userSpaceOnUse" x1="245.3577" y1="-814.4089" x2="276.7704" y2="-814.4089">
	<stop  offset="0" style="stop-color:#6D6E71"/>
	<stop  offset="0.39" style="stop-color:#555658"/>
	<stop  offset="0.752" style="stop-color:#434244"/>
	<stop  offset="0.9969" style="stop-color:#383839"/>
</linearGradient>
<circle fill="url(#SVGID_10_)" cx="261.1" cy="-814.4" r="15.7"/>
<g>
	<path fill="#414042" d="M1196.8-2026.5c0,12.7-1,16.9-3.6,20c-2.3,2.5-6.1,3.7-10.5,4.1l1,7.6c5.2,0,12.2-1.8,16.5-6
		c4.7-4.8,6.4-11.5,6.4-21.9v-48.2h-9.7V-2026.5z"/>
	<path fill="#414042" d="M1269-2032.3c0,5.5,0.1,10.3,0.4,14.5h-8.6l-0.5-8.7h-0.2c-2.5,4.3-8.1,9.9-17.6,9.9
		c-8.3,0-18.3-4.6-18.3-23.3v-31.1h9.7v29.4c0,10.1,3.1,16.9,11.9,16.9c6.5,0,11-4.5,12.7-8.8c0.5-1.4,0.9-3.2,0.9-4.9v-32.6h9.7
		V-2032.3z"/>
	<path fill="#414042" d="M1287.2-2053.6c0-6.8-0.2-12.3-0.4-17.3h8.7l0.4,9.1h0.2c4-6.5,10.2-10.3,18.9-10.3
		c12.8,0,22.5,10.9,22.5,27c0,19.1-11.6,28.5-24.2,28.5c-7,0-13.2-3.1-16.4-8.3h-0.2v28.9h-9.6V-2053.6z M1296.8-2039.5
		c0,1.4,0.2,2.7,0.4,4c1.8,6.7,7.6,11.3,14.5,11.3c10.2,0,16.1-8.3,16.1-20.5c0-10.7-5.6-19.8-15.8-19.8c-6.6,0-12.7,4.7-14.6,12
		c-0.3,1.2-0.7,2.6-0.7,4V-2039.5z"/>
	<path fill="#414042" d="M1354.6-2071l11.6,31.4c1.2,3.5,2.5,7.7,3.4,10.9h0.2c1-3.2,2.1-7.2,3.4-11.1l10.5-31.2h10.2l-14.5,37.9
		c-6.9,18.2-11.6,27.6-18.2,33.3c-4.7,4.2-9.4,5.8-11.9,6.3l-2.4-8.1c2.4-0.8,5.6-2.3,8.5-4.7c2.6-2.1,5.9-5.8,8.1-10.8
		c0.4-1,0.8-1.8,0.8-2.3c0-0.5-0.2-1.3-0.7-2.5l-19.7-49H1354.6z"/>
	<path fill="#414042" d="M1419.5-2086.3v15.3h13.8v7.4h-13.8v28.7c0,6.6,1.9,10.3,7.2,10.3c2.5,0,4.4-0.3,5.6-0.7l0.4,7.2
		c-1.9,0.8-4.8,1.3-8.6,1.3c-4.5,0-8.1-1.4-10.4-4.1c-2.7-2.9-3.7-7.6-3.7-13.8v-29h-8.2v-7.4h8.2v-12.7L1419.5-2086.3z"/>
	<path fill="#414042" d="M1451.1-2042.7c0.2,13.1,8.6,18.4,18.2,18.4c6.9,0,11.1-1.2,14.7-2.7l1.6,6.9c-3.4,1.5-9.2,3.3-17.7,3.3
		c-16.4,0-26.1-10.8-26.1-26.8s9.4-28.7,24.9-28.7c17.3,0,22,15.3,22,25c0,2-0.2,3.5-0.3,4.5H1451.1z M1479.4-2049.6
		c0.1-6.1-2.5-15.7-13.4-15.7c-9.8,0-14.1,9-14.8,15.7H1479.4z"/>
	<path fill="#414042" d="M1502.9-2054.4c0-6.3-0.1-11.6-0.4-16.6h8.5l0.3,10.4h0.4c2.4-7.1,8.2-11.6,14.7-11.6
		c1.1,0,1.9,0.1,2.7,0.3v9.1c-1-0.2-2-0.3-3.3-0.3c-6.8,0-11.6,5.2-13,12.4c-0.2,1.3-0.4,2.9-0.4,4.5v28.3h-9.6V-2054.4z"/>
</g>
<linearGradient id="SVGID_11_" gradientUnits="userSpaceOnUse" x1="1444.2666" y1="-2217.9163" x2="1487.1018" y2="-2217.9163">
	<stop  offset="0" style="stop-color:#808285"/>
	<stop  offset="9.314537e-02" style="stop-color:#797B7E"/>
	<stop  offset="0.4706" style="stop-color:#606163"/>
	<stop  offset="0.7864" style="stop-color:#4F4F51"/>
	<stop  offset="1" style="stop-color:#48484A"/>
</linearGradient>
<circle fill="url(#SVGID_11_)" cx="1465.7" cy="-2217.9" r="21.4"/>
<g>
	<linearGradient id="SVGID_12_" gradientUnits="userSpaceOnUse" x1="1203.6675" y1="-1937.0006" x2="1508.1863" y2="-1937.0006">
		<stop  offset="7.414178e-02" style="stop-color:#BCBEC0"/>
		<stop  offset="0.3771" style="stop-color:#6D6E71"/>
		<stop  offset="0.4846" style="stop-color:#5E5F61"/>
		<stop  offset="0.697" style="stop-color:#414143"/>
		<stop  offset="0.8764" style="stop-color:#1A191A"/>
		<stop  offset="1" style="stop-color:#000000"/>
	</linearGradient>
	<path fill="url(#SVGID_12_)" d="M1355.9-1932.1c-65.5,0-122.6-23.5-152.3-58.3c22.5,62.4,82.2,106.9,152.3,106.9
		s129.8-44.6,152.3-106.9C1478.5-1955.7,1421.4-1932.1,1355.9-1932.1z"/>
	<linearGradient id="SVGID_13_" gradientUnits="userSpaceOnUse" x1="1203.6675" y1="-2153.6758" x2="1508.1863" y2="-2153.6758">
		<stop  offset="7.414178e-02" style="stop-color:#BCBEC0"/>
		<stop  offset="0.3771" style="stop-color:#6D6E71"/>
		<stop  offset="0.4846" style="stop-color:#5E5F61"/>
		<stop  offset="0.697" style="stop-color:#414143"/>
		<stop  offset="0.8764" style="stop-color:#1A191A"/>
		<stop  offset="1" style="stop-color:#000000"/>
	</linearGradient>
	<path fill="url(#SVGID_13_)" d="M1355.9-2158.5c65.5,0,122.6,23.5,152.3,58.3c-22.5-62.4-82.2-106.9-152.3-106.9
		s-129.8,44.6-152.3,106.9C1233.4-2135,1290.4-2158.5,1355.9-2158.5z"/>
</g>
<linearGradient id="SVGID_14_" gradientUnits="userSpaceOnUse" x1="1220.6429" y1="-1864.1393" x2="1272.1978" y2="-1864.1393">
	<stop  offset="1.435499e-02" style="stop-color:#BCBEC0"/>
	<stop  offset="1" style="stop-color:#6D6E71"/>
</linearGradient>
<circle fill="url(#SVGID_14_)" cx="1246.4" cy="-1864.1" r="25.8"/>
<linearGradient id="SVGID_15_" gradientUnits="userSpaceOnUse" x1="1205.2729" y1="-2188.5764" x2="1236.6857" y2="-2188.5764">
	<stop  offset="0" style="stop-color:#6D6E71"/>
	<stop  offset="0.39" style="stop-color:#555658"/>
	<stop  offset="0.752" style="stop-color:#434244"/>
	<stop  offset="0.9969" style="stop-color:#383839"/>
</linearGradient>
<circle fill="url(#SVGID_15_)" cx="1221" cy="-2188.6" r="15.7"/>
<linearGradient id="SVGID_16_" gradientUnits="userSpaceOnUse" x1="1444.2666" y1="-843.7488" x2="1487.1018" y2="-843.7488">
	<stop  offset="0" style="stop-color:#808285"/>
	<stop  offset="9.314537e-02" style="stop-color:#797B7E"/>
	<stop  offset="0.4706" style="stop-color:#606163"/>
	<stop  offset="0.7864" style="stop-color:#4F4F51"/>
	<stop  offset="1" style="stop-color:#48484A"/>
</linearGradient>
<circle fill="url(#SVGID_16_)" cx="1465.7" cy="-843.7" r="21.4"/>
<g>
	<linearGradient id="SVGID_17_" gradientUnits="userSpaceOnUse" x1="1203.6675" y1="-562.8331" x2="1508.1863" y2="-562.8331">
		<stop  offset="7.414178e-02" style="stop-color:#BCBEC0"/>
		<stop  offset="0.3771" style="stop-color:#6D6E71"/>
		<stop  offset="0.4846" style="stop-color:#5E5F61"/>
		<stop  offset="0.697" style="stop-color:#414143"/>
		<stop  offset="0.8764" style="stop-color:#1A191A"/>
		<stop  offset="1" style="stop-color:#000000"/>
	</linearGradient>
	<path fill="url(#SVGID_17_)" d="M1355.9-558c-65.5,0-122.6-23.5-152.3-58.3c22.5,62.4,82.2,106.9,152.3,106.9
		s129.8-44.6,152.3-106.9C1478.5-581.5,1421.4-558,1355.9-558z"/>
	<linearGradient id="SVGID_18_" gradientUnits="userSpaceOnUse" x1="1203.6675" y1="-779.5084" x2="1508.1863" y2="-779.5084">
		<stop  offset="7.414178e-02" style="stop-color:#BCBEC0"/>
		<stop  offset="0.3771" style="stop-color:#6D6E71"/>
		<stop  offset="0.4846" style="stop-color:#5E5F61"/>
		<stop  offset="0.697" style="stop-color:#414143"/>
		<stop  offset="0.8764" style="stop-color:#1A191A"/>
		<stop  offset="1" style="stop-color:#000000"/>
	</linearGradient>
	<path fill="url(#SVGID_18_)" d="M1355.9-784.4c65.5,0,122.6,23.5,152.3,58.3C1485.7-788.4,1426-833,1355.9-833
		s-129.8,44.6-152.3,106.9C1233.4-760.8,1290.4-784.4,1355.9-784.4z"/>
</g>
<linearGradient id="SVGID_19_" gradientUnits="userSpaceOnUse" x1="1220.6429" y1="-489.9718" x2="1272.1978" y2="-489.9718">
	<stop  offset="1.435499e-02" style="stop-color:#BCBEC0"/>
	<stop  offset="1" style="stop-color:#6D6E71"/>
</linearGradient>
<circle fill="url(#SVGID_19_)" cx="1246.4" cy="-490" r="25.8"/>
<linearGradient id="SVGID_20_" gradientUnits="userSpaceOnUse" x1="1205.2729" y1="-814.4089" x2="1236.6857" y2="-814.4089">
	<stop  offset="0" style="stop-color:#6D6E71"/>
	<stop  offset="0.39" style="stop-color:#555658"/>
	<stop  offset="0.752" style="stop-color:#434244"/>
	<stop  offset="0.9969" style="stop-color:#383839"/>
</linearGradient>
<circle fill="url(#SVGID_20_)" cx="1221" cy="-814.4" r="15.7"/>
<g>
	<path fill="#414042" d="M2134.2-2026.5c0,12.7-1,16.9-3.6,20c-2.3,2.5-6.1,3.7-10.5,4.1l1,7.6c5.2,0,12.2-1.8,16.5-6
		c4.7-4.8,6.4-11.5,6.4-21.9v-48.2h-9.7V-2026.5z"/>
	<path fill="#414042" d="M2206.3-2032.3c0,5.5,0.1,10.3,0.4,14.5h-8.6l-0.5-8.7h-0.2c-2.5,4.3-8.1,9.9-17.6,9.9
		c-8.3,0-18.3-4.6-18.3-23.3v-31.1h9.7v29.4c0,10.1,3.1,16.9,11.9,16.9c6.5,0,11-4.5,12.7-8.8c0.5-1.4,0.9-3.2,0.9-4.9v-32.6h9.7
		V-2032.3z"/>
	<path fill="#414042" d="M2224.5-2053.6c0-6.8-0.2-12.3-0.4-17.3h8.7l0.4,9.1h0.2c4-6.5,10.2-10.3,18.9-10.3
		c12.8,0,22.5,10.9,22.5,27c0,19.1-11.6,28.5-24.2,28.5c-7,0-13.2-3.1-16.4-8.3h-0.2v28.9h-9.6V-2053.6z M2234.1-2039.5
		c0,1.4,0.2,2.7,0.4,4c1.8,6.7,7.6,11.3,14.5,11.3c10.2,0,16.1-8.3,16.1-20.5c0-10.7-5.6-19.8-15.8-19.8c-6.6,0-12.7,4.7-14.6,12
		c-0.3,1.2-0.7,2.6-0.7,4V-2039.5z"/>
	<path fill="#414042" d="M2291.9-2071l11.6,31.4c1.2,3.5,2.5,7.7,3.4,10.9h0.2c1-3.2,2.1-7.2,3.4-11.1l10.5-31.2h10.2l-14.5,37.9
		c-6.9,18.2-11.6,27.6-18.2,33.3c-4.7,4.2-9.4,5.8-11.9,6.3l-2.4-8.1c2.4-0.8,5.6-2.3,8.5-4.7c2.6-2.1,5.9-5.8,8.1-10.8
		c0.4-1,0.8-1.8,0.8-2.3c0-0.5-0.2-1.3-0.7-2.5l-19.7-49H2291.9z"/>
	<path fill="#414042" d="M2356.8-2086.3v15.3h13.8v7.4h-13.8v28.7c0,6.6,1.9,10.3,7.2,10.3c2.5,0,4.4-0.3,5.6-0.7l0.4,7.2
		c-1.9,0.8-4.8,1.3-8.6,1.3c-4.5,0-8.1-1.4-10.4-4.1c-2.7-2.9-3.7-7.6-3.7-13.8v-29h-8.2v-7.4h8.2v-12.7L2356.8-2086.3z"/>
	<path fill="#414042" d="M2388.4-2042.7c0.2,13.1,8.6,18.4,18.2,18.4c6.9,0,11.1-1.2,14.7-2.7l1.6,6.9c-3.4,1.5-9.2,3.3-17.7,3.3
		c-16.4,0-26.1-10.8-26.1-26.8s9.4-28.7,24.9-28.7c17.3,0,22,15.3,22,25c0,2-0.2,3.5-0.3,4.5H2388.4z M2416.7-2049.6
		c0.1-6.1-2.5-15.7-13.4-15.7c-9.8,0-14.1,9-14.8,15.7H2416.7z"/>
	<path fill="#414042" d="M2440.2-2054.4c0-6.3-0.1-11.6-0.4-16.6h8.5l0.3,10.4h0.4c2.4-7.1,8.2-11.6,14.7-11.6
		c1.1,0,1.9,0.1,2.7,0.3v9.1c-1-0.2-2-0.3-3.3-0.3c-6.8,0-11.6,5.2-13,12.4c-0.2,1.3-0.4,2.9-0.4,4.5v28.3h-9.6V-2054.4z"/>
</g>
<circle fill="#6D6E71" cx="2403" cy="-2217.9" r="21.4"/>
<g>
	<path fill="#F37625" d="M2293.2-1932.1c-65.5,0-122.6-23.5-152.3-58.3c22.5,62.4,82.2,106.9,152.3,106.9s129.8-44.6,152.3-106.9
		C2415.8-1955.7,2358.8-1932.1,2293.2-1932.1z"/>
	<path fill="#F37625" d="M2293.2-2158.5c65.5,0,122.6,23.5,152.3,58.3c-22.5-62.4-82.2-106.9-152.3-106.9s-129.8,44.6-152.3,106.9
		C2170.7-2135,2227.7-2158.5,2293.2-2158.5z"/>
</g>
<circle fill="#939598" cx="2183.7" cy="-1864.1" r="25.8"/>
<circle fill="#58595B" cx="2158.3" cy="-2188.6" r="15.7"/>
<circle fill="#6D6E71" cx="2403" cy="-843.7" r="21.4"/>
<g>
	<path fill="#F37625" d="M2293.2-558c-65.5,0-122.6-23.5-152.3-58.3c22.5,62.4,82.2,106.9,152.3,106.9s129.8-44.6,152.3-106.9
		C2415.8-581.5,2358.8-558,2293.2-558z"/>
	<path fill="#F37625" d="M2293.2-784.4c65.5,0,122.6,23.5,152.3,58.3C2423-788.4,2363.3-833,2293.2-833S2163.5-788.4,2141-726
		C2170.7-760.8,2227.7-784.4,2293.2-784.4z"/>
</g>
<circle fill="#939598" cx="2183.7" cy="-490" r="25.8"/>
<circle fill="#58595B" cx="2158.3" cy="-814.4" r="15.7"/>
<g>
	<path d="M3025.5-2026.5c0,12.7-1,16.9-3.6,20c-2.3,2.5-6.1,3.7-10.5,4.1l1,7.6c5.2,0,12.2-1.8,16.5-6c4.7-4.8,6.4-11.5,6.4-21.9
		v-48.2h-9.7V-2026.5z"/>
	<path d="M3097.6-2032.3c0,5.5,0.1,10.3,0.4,14.5h-8.6l-0.5-8.7h-0.2c-2.5,4.3-8.1,9.9-17.6,9.9c-8.3,0-18.3-4.6-18.3-23.3v-31.1
		h9.7v29.4c0,10.1,3.1,16.9,11.9,16.9c6.5,0,11-4.5,12.7-8.8c0.5-1.4,0.9-3.2,0.9-4.9v-32.6h9.7V-2032.3z"/>
	<path d="M3115.9-2053.6c0-6.8-0.2-12.3-0.4-17.3h8.7l0.4,9.1h0.2c4-6.5,10.2-10.3,18.9-10.3c12.8,0,22.5,10.9,22.5,27
		c0,19.1-11.6,28.5-24.2,28.5c-7,0-13.2-3.1-16.4-8.3h-0.2v28.9h-9.6V-2053.6z M3125.4-2039.5c0,1.4,0.2,2.7,0.4,4
		c1.8,6.7,7.6,11.3,14.5,11.3c10.2,0,16.1-8.3,16.1-20.5c0-10.7-5.6-19.8-15.8-19.8c-6.6,0-12.7,4.7-14.6,12c-0.3,1.2-0.7,2.6-0.7,4
		V-2039.5z"/>
	<path d="M3183.3-2071l11.6,31.4c1.2,3.5,2.5,7.7,3.4,10.9h0.2c1-3.2,2.1-7.2,3.4-11.1l10.5-31.2h10.2l-14.5,37.9
		c-6.9,18.2-11.6,27.6-18.2,33.3c-4.7,4.2-9.4,5.8-11.9,6.3l-2.4-8.1c2.4-0.8,5.6-2.3,8.5-4.7c2.6-2.1,5.9-5.8,8.1-10.8
		c0.4-1,0.8-1.8,0.8-2.3c0-0.5-0.2-1.3-0.7-2.5l-19.7-49H3183.3z"/>
	<path d="M3248.1-2086.3v15.3h13.8v7.4h-13.8v28.7c0,6.6,1.9,10.3,7.2,10.3c2.5,0,4.4-0.3,5.6-0.7l0.4,7.2c-1.9,0.8-4.8,1.3-8.6,1.3
		c-4.5,0-8.1-1.4-10.4-4.1c-2.7-2.9-3.7-7.6-3.7-13.8v-29h-8.2v-7.4h8.2v-12.7L3248.1-2086.3z"/>
	<path d="M3279.7-2042.7c0.2,13.1,8.6,18.4,18.2,18.4c6.9,0,11.1-1.2,14.7-2.7l1.6,6.9c-3.4,1.5-9.2,3.3-17.7,3.3
		c-16.4,0-26.1-10.8-26.1-26.8s9.4-28.7,24.9-28.7c17.3,0,22,15.3,22,25c0,2-0.2,3.5-0.3,4.5H3279.7z M3308.1-2049.6
		c0.1-6.1-2.5-15.7-13.4-15.7c-9.8,0-14.1,9-14.8,15.7H3308.1z"/>
	<path d="M3331.6-2054.4c0-6.3-0.1-11.6-0.4-16.6h8.5l0.3,10.4h0.4c2.4-7.1,8.2-11.6,14.7-11.6c1.1,0,1.9,0.1,2.7,0.3v9.1
		c-1-0.2-2-0.3-3.3-0.3c-6.8,0-11.6,5.2-13,12.4c-0.2,1.3-0.4,2.9-0.4,4.5v28.3h-9.6V-2054.4z"/>
</g>
<circle cx="3294.3" cy="-2217.9" r="21.4"/>
<g>
	<path d="M3184.6-1932.1c-65.5,0-122.6-23.5-152.3-58.3c22.5,62.4,82.2,106.9,152.3,106.9c70.1,0,129.8-44.6,152.3-106.9
		C3307.2-1955.7,3250.1-1932.1,3184.6-1932.1z"/>
	<path d="M3184.6-2158.5c65.5,0,122.6,23.5,152.3,58.3c-22.5-62.4-82.2-106.9-152.3-106.9c-70.1,0-129.8,44.6-152.3,106.9
		C3062-2135,3119.1-2158.5,3184.6-2158.5z"/>
</g>
<circle cx="3075.1" cy="-1864.1" r="25.8"/>
<circle cx="3049.6" cy="-2188.6" r="15.7"/>
<circle cx="3294.3" cy="-843.7" r="21.4"/>
<g>
	<path d="M3184.6-558c-65.5,0-122.6-23.5-152.3-58.3c22.5,62.4,82.2,106.9,152.3,106.9c70.1,0,129.8-44.6,152.3-106.9
		C3307.2-581.5,3250.1-558,3184.6-558z"/>
	<path d="M3184.6-784.4c65.5,0,122.6,23.5,152.3,58.3c-22.5-62.4-82.2-106.9-152.3-106.9c-70.1,0-129.8,44.6-152.3,106.9
		C3062-760.8,3119.1-784.4,3184.6-784.4z"/>
</g>
<circle cx="3075.1" cy="-490" r="25.8"/>
<circle cx="3049.6" cy="-814.4" r="15.7"/>
<g>
	<path fill="#414042" d="M207.7-1326.9c0,20.6-1.6,27.4-5.9,32.3c-3.7,4.1-9.9,6-17.1,6.6l1.6,12.3c8.3,0,19.7-2.8,26.6-9.8
		c7.6-7.8,10.3-18.7,10.3-35.4v-78h-15.6V-1326.9z"/>
	<path fill="#414042" d="M324.4-1336.3c0,8.9,0.2,16.7,0.7,23.4h-13.9l-0.9-14H310c-4.1,6.9-13.1,16-28.4,16
		c-13.5,0-29.7-7.5-29.7-37.7v-50.3h15.6v47.6c0,16.3,5,27.4,19.2,27.4c10.5,0,17.8-7.3,20.6-14.2c0.9-2.3,1.4-5.2,1.4-8v-52.8h15.6
		V-1336.3z"/>
	<path fill="#414042" d="M353.9-1370.8c0-11-0.4-19.9-0.7-28.1h14l0.7,14.7h0.4c6.4-10.5,16.5-16.7,30.6-16.7
		c20.8,0,36.4,17.6,36.4,43.7c0,30.9-18.8,46.2-39.1,46.2c-11.4,0-21.3-5-26.5-13.5h-0.4v46.7h-15.5V-1370.8z M369.3-1347.8
		c0,2.3,0.4,4.4,0.7,6.4c2.8,10.8,12.3,18.3,23.4,18.3c16.5,0,26.1-13.5,26.1-33.2c0-17.2-9.1-32-25.6-32
		c-10.7,0-20.6,7.6-23.6,19.4c-0.5,2-1.1,4.3-1.1,6.4V-1347.8z"/>
	<path fill="#414042" d="M462.9-1398.8l18.8,50.8c2,5.7,4.1,12.4,5.5,17.6h0.4c1.6-5.2,3.4-11.7,5.5-17.9l17.1-50.5h16.5l-23.4,61.3
		c-11.2,29.5-18.8,44.6-29.5,53.8c-7.6,6.7-15.3,9.4-19.2,10.1l-3.9-13.1c3.9-1.2,9.1-3.7,13.7-7.6c4.3-3.4,9.6-9.4,13.1-17.4
		c0.7-1.6,1.2-2.8,1.2-3.7c0-0.9-0.4-2.1-1.1-4.1l-31.8-79.2H462.9z"/>
	<path fill="#414042" d="M567.8-1423.5v24.7h22.4v11.9h-22.4v46.4c0,10.7,3,16.7,11.7,16.7c4.1,0,7.1-0.5,9.1-1.1l0.7,11.7
		c-3,1.2-7.8,2.1-13.9,2.1c-7.3,0-13.1-2.3-16.9-6.6c-4.4-4.6-6-12.3-6-22.4v-46.9h-13.3v-11.9h13.3v-20.6L567.8-1423.5z"/>
	<path fill="#414042" d="M619-1353c0.4,21.1,13.9,29.8,29.5,29.8c11.2,0,17.9-2,23.8-4.4l2.7,11.2c-5.5,2.5-14.9,5.3-28.6,5.3
		c-26.5,0-42.3-17.4-42.3-43.3c0-25.9,15.3-46.4,40.3-46.4c28.1,0,35.5,24.7,35.5,40.5c0,3.2-0.4,5.7-0.5,7.3H619z M664.8-1364.2
		c0.2-9.9-4.1-25.4-21.7-25.4c-15.8,0-22.7,14.6-24,25.4H664.8z"/>
	<path fill="#414042" d="M702.8-1372c0-10.1-0.2-18.8-0.7-26.8h13.7l0.5,16.9h0.7c3.9-11.5,13.3-18.8,23.8-18.8c1.8,0,3,0.2,4.4,0.5
		v14.7c-1.6-0.4-3.2-0.5-5.3-0.5c-11,0-18.8,8.3-21,20.1c-0.4,2.1-0.7,4.6-0.7,7.3v45.8h-15.5V-1372z"/>
</g>
<linearGradient id="SVGID_21_" gradientUnits="userSpaceOnUse" x1="128.9218" y1="-1414.2642" x2="143.1341" y2="-1414.2642">
	<stop  offset="0" style="stop-color:#808285"/>
	<stop  offset="9.314537e-02" style="stop-color:#797B7E"/>
	<stop  offset="0.4706" style="stop-color:#606163"/>
	<stop  offset="0.7864" style="stop-color:#4F4F51"/>
	<stop  offset="1" style="stop-color:#48484A"/>
</linearGradient>
<circle fill="url(#SVGID_21_)" cx="136" cy="-1414.3" r="7.1"/>
<g>
	<linearGradient id="SVGID_22_" gradientUnits="userSpaceOnUse" x1="49.0938" y1="-1321.0596" x2="150.1297" y2="-1321.0596">
		<stop  offset="5.220520e-02" style="stop-color:#F78D26"/>
		<stop  offset="0.2056" style="stop-color:#F68826"/>
		<stop  offset="0.4323" style="stop-color:#F37A25"/>
		<stop  offset="0.4766" style="stop-color:#F37625"/>
		<stop  offset="0.6159" style="stop-color:#E76623"/>
		<stop  offset="0.8356" style="stop-color:#DC5221"/>
		<stop  offset="0.9873" style="stop-color:#D84B21"/>
	</linearGradient>
	<path fill="url(#SVGID_22_)" d="M99.6-1319.4c-21.7,0-40.7-7.8-50.5-19.4c7.5,20.7,27.3,35.5,50.5,35.5s43.1-14.8,50.5-35.5
		C140.3-1327.3,121.3-1319.4,99.6-1319.4z"/>
	<linearGradient id="SVGID_23_" gradientUnits="userSpaceOnUse" x1="49.0938" y1="-1392.95" x2="150.1297" y2="-1392.95">
		<stop  offset="5.220520e-02" style="stop-color:#F78D26"/>
		<stop  offset="0.2056" style="stop-color:#F68826"/>
		<stop  offset="0.4323" style="stop-color:#F37A25"/>
		<stop  offset="0.4766" style="stop-color:#F37625"/>
		<stop  offset="0.6159" style="stop-color:#E76623"/>
		<stop  offset="0.8356" style="stop-color:#DC5221"/>
		<stop  offset="0.9873" style="stop-color:#D84B21"/>
	</linearGradient>
	<path fill="url(#SVGID_23_)" d="M99.6-1394.6c21.7,0,40.7,7.8,50.5,19.4c-7.5-20.7-27.3-35.5-50.5-35.5s-43.1,14.8-50.5,35.5
		C58.9-1386.7,77.9-1394.6,99.6-1394.6z"/>
</g>
<linearGradient id="SVGID_24_" gradientUnits="userSpaceOnUse" x1="54.7261" y1="-1296.885" x2="71.8314" y2="-1296.885">
	<stop  offset="1.435499e-02" style="stop-color:#BCBEC0"/>
	<stop  offset="1" style="stop-color:#6D6E71"/>
</linearGradient>
<circle fill="url(#SVGID_24_)" cx="63.3" cy="-1296.9" r="8.6"/>
<linearGradient id="SVGID_25_" gradientUnits="userSpaceOnUse" x1="49.6265" y1="-1404.5295" x2="60.0488" y2="-1404.5295">
	<stop  offset="0" style="stop-color:#6D6E71"/>
	<stop  offset="0.39" style="stop-color:#555658"/>
	<stop  offset="0.752" style="stop-color:#434244"/>
	<stop  offset="0.9969" style="stop-color:#383839"/>
</linearGradient>
<circle fill="url(#SVGID_25_)" cx="54.8" cy="-1404.5" r="5.2"/>
<g>
	<path fill="#414042" d="M1166.4-1326.9c0,20.6-1.6,27.4-5.9,32.3c-3.7,4.1-9.9,6-17.1,6.6l1.6,12.3c8.3,0,19.7-2.8,26.6-9.8
		c7.6-7.8,10.3-18.7,10.3-35.4v-78h-15.6V-1326.9z"/>
	<path fill="#414042" d="M1283.1-1336.3c0,8.9,0.2,16.7,0.7,23.4H1270l-0.9-14h-0.4c-4.1,6.9-13.1,16-28.4,16
		c-13.5,0-29.7-7.5-29.7-37.7v-50.3h15.6v47.6c0,16.3,5,27.4,19.2,27.4c10.5,0,17.8-7.3,20.6-14.2c0.9-2.3,1.4-5.2,1.4-8v-52.8h15.6
		V-1336.3z"/>
	<path fill="#414042" d="M1312.6-1370.8c0-11-0.4-19.9-0.7-28.1h14l0.7,14.7h0.4c6.4-10.5,16.5-16.7,30.6-16.7
		c20.8,0,36.4,17.6,36.4,43.7c0,30.9-18.8,46.2-39.1,46.2c-11.4,0-21.3-5-26.5-13.5h-0.4v46.7h-15.5V-1370.8z M1328.1-1347.8
		c0,2.3,0.4,4.4,0.7,6.4c2.8,10.8,12.3,18.3,23.4,18.3c16.5,0,26.1-13.5,26.1-33.2c0-17.2-9.1-32-25.6-32
		c-10.7,0-20.6,7.6-23.6,19.4c-0.5,2-1.1,4.3-1.1,6.4V-1347.8z"/>
	<path fill="#414042" d="M1421.7-1398.8l18.8,50.8c2,5.7,4.1,12.4,5.5,17.6h0.4c1.6-5.2,3.4-11.7,5.5-17.9l17.1-50.5h16.5
		l-23.4,61.3c-11.2,29.5-18.8,44.6-29.5,53.8c-7.6,6.7-15.3,9.4-19.2,10.1l-3.9-13.1c3.9-1.2,9.1-3.7,13.7-7.6
		c4.3-3.4,9.6-9.4,13.1-17.4c0.7-1.6,1.2-2.8,1.2-3.7c0-0.9-0.4-2.1-1.1-4.1l-31.8-79.2H1421.7z"/>
	<path fill="#414042" d="M1526.6-1423.5v24.7h22.4v11.9h-22.4v46.4c0,10.7,3,16.7,11.7,16.7c4.1,0,7.1-0.5,9.1-1.1l0.7,11.7
		c-3,1.2-7.8,2.1-13.9,2.1c-7.3,0-13.1-2.3-16.9-6.6c-4.4-4.6-6-12.3-6-22.4v-46.9H1498v-11.9h13.3v-20.6L1526.6-1423.5z"/>
	<path fill="#414042" d="M1577.7-1353c0.4,21.1,13.9,29.8,29.5,29.8c11.2,0,17.9-2,23.8-4.4l2.7,11.2c-5.5,2.5-14.9,5.3-28.6,5.3
		c-26.5,0-42.3-17.4-42.3-43.3c0-25.9,15.3-46.4,40.3-46.4c28.1,0,35.5,24.7,35.5,40.5c0,3.2-0.4,5.7-0.5,7.3H1577.7z
		 M1623.5-1364.2c0.2-9.9-4.1-25.4-21.7-25.4c-15.8,0-22.7,14.6-24,25.4H1623.5z"/>
	<path fill="#414042" d="M1661.6-1372c0-10.1-0.2-18.8-0.7-26.8h13.7l0.5,16.9h0.7c3.9-11.5,13.3-18.8,23.8-18.8
		c1.8,0,3,0.2,4.4,0.5v14.7c-1.6-0.4-3.2-0.5-5.3-0.5c-11,0-18.8,8.3-21,20.1c-0.4,2.1-0.7,4.6-0.7,7.3v45.8h-15.5V-1372z"/>
</g>
<linearGradient id="SVGID_26_" gradientUnits="userSpaceOnUse" x1="1087.6576" y1="-1414.2642" x2="1101.8699" y2="-1414.2642">
	<stop  offset="0" style="stop-color:#808285"/>
	<stop  offset="9.314537e-02" style="stop-color:#797B7E"/>
	<stop  offset="0.4706" style="stop-color:#606163"/>
	<stop  offset="0.7864" style="stop-color:#4F4F51"/>
	<stop  offset="1" style="stop-color:#48484A"/>
</linearGradient>
<circle fill="url(#SVGID_26_)" cx="1094.8" cy="-1414.3" r="7.1"/>
<g>
	<linearGradient id="SVGID_27_" gradientUnits="userSpaceOnUse" x1="1007.8296" y1="-1321.0596" x2="1108.8655" y2="-1321.0596">
		<stop  offset="7.414178e-02" style="stop-color:#BCBEC0"/>
		<stop  offset="0.3771" style="stop-color:#6D6E71"/>
		<stop  offset="0.4846" style="stop-color:#5E5F61"/>
		<stop  offset="0.697" style="stop-color:#414143"/>
		<stop  offset="0.8764" style="stop-color:#1A191A"/>
		<stop  offset="1" style="stop-color:#000000"/>
	</linearGradient>
	<path fill="url(#SVGID_27_)" d="M1058.3-1319.4c-21.7,0-40.7-7.8-50.5-19.4c7.5,20.7,27.3,35.5,50.5,35.5s43.1-14.8,50.5-35.5
		C1099-1327.3,1080.1-1319.4,1058.3-1319.4z"/>
	<linearGradient id="SVGID_28_" gradientUnits="userSpaceOnUse" x1="1007.8296" y1="-1392.9498" x2="1108.8655" y2="-1392.9498">
		<stop  offset="7.414178e-02" style="stop-color:#BCBEC0"/>
		<stop  offset="0.3771" style="stop-color:#6D6E71"/>
		<stop  offset="0.4846" style="stop-color:#5E5F61"/>
		<stop  offset="0.697" style="stop-color:#414143"/>
		<stop  offset="0.8764" style="stop-color:#1A191A"/>
		<stop  offset="1" style="stop-color:#000000"/>
	</linearGradient>
	<path fill="url(#SVGID_28_)" d="M1058.3-1394.6c21.7,0,40.7,7.8,50.5,19.4c-7.5-20.7-27.3-35.5-50.5-35.5s-43.1,14.8-50.5,35.5
		C1017.7-1386.7,1036.6-1394.6,1058.3-1394.6z"/>
</g>
<linearGradient id="SVGID_29_" gradientUnits="userSpaceOnUse" x1="1013.4619" y1="-1296.8849" x2="1030.5671" y2="-1296.8849">
	<stop  offset="1.435499e-02" style="stop-color:#BCBEC0"/>
	<stop  offset="1" style="stop-color:#6D6E71"/>
</linearGradient>
<circle fill="url(#SVGID_29_)" cx="1022" cy="-1296.9" r="8.6"/>
<linearGradient id="SVGID_30_" gradientUnits="userSpaceOnUse" x1="1008.3622" y1="-1404.5295" x2="1018.7846" y2="-1404.5295">
	<stop  offset="0" style="stop-color:#6D6E71"/>
	<stop  offset="0.39" style="stop-color:#555658"/>
	<stop  offset="0.752" style="stop-color:#434244"/>
	<stop  offset="0.9969" style="stop-color:#383839"/>
</linearGradient>
<circle fill="url(#SVGID_30_)" cx="1013.6" cy="-1404.5" r="5.2"/>
<g>
	<path fill="#414042" d="M2091.9-1326.9c0,20.6-1.6,27.4-5.9,32.3c-3.7,4.1-9.9,6-17.1,6.6l1.6,12.3c8.3,0,19.7-2.8,26.6-9.8
		c7.6-7.8,10.3-18.7,10.3-35.4v-78h-15.6V-1326.9z"/>
	<path fill="#414042" d="M2208.6-1336.3c0,8.9,0.2,16.7,0.7,23.4h-13.9l-0.9-14h-0.4c-4.1,6.9-13.1,16-28.4,16
		c-13.5,0-29.7-7.5-29.7-37.7v-50.3h15.6v47.6c0,16.3,5,27.4,19.2,27.4c10.5,0,17.8-7.3,20.6-14.2c0.9-2.3,1.4-5.2,1.4-8v-52.8h15.6
		V-1336.3z"/>
	<path fill="#414042" d="M2238.1-1370.8c0-11-0.4-19.9-0.7-28.1h14l0.7,14.7h0.4c6.4-10.5,16.5-16.7,30.6-16.7
		c20.8,0,36.4,17.6,36.4,43.7c0,30.9-18.8,46.2-39.1,46.2c-11.4,0-21.3-5-26.5-13.5h-0.4v46.7h-15.5V-1370.8z M2253.5-1347.8
		c0,2.3,0.4,4.4,0.7,6.4c2.8,10.8,12.3,18.3,23.4,18.3c16.5,0,26.1-13.5,26.1-33.2c0-17.2-9.1-32-25.6-32
		c-10.7,0-20.6,7.6-23.6,19.4c-0.5,2-1.1,4.3-1.1,6.4V-1347.8z"/>
	<path fill="#414042" d="M2347.2-1398.8l18.8,50.8c2,5.7,4.1,12.4,5.5,17.6h0.4c1.6-5.2,3.4-11.7,5.5-17.9l17.1-50.5h16.5
		l-23.4,61.3c-11.2,29.5-18.8,44.6-29.5,53.8c-7.6,6.7-15.3,9.4-19.2,10.1l-3.9-13.1c3.9-1.2,9.1-3.7,13.7-7.6
		c4.3-3.4,9.6-9.4,13.1-17.4c0.7-1.6,1.2-2.8,1.2-3.7c0-0.9-0.4-2.1-1.1-4.1l-31.8-79.2H2347.2z"/>
	<path fill="#414042" d="M2452-1423.5v24.7h22.4v11.9H2452v46.4c0,10.7,3,16.7,11.7,16.7c4.1,0,7.1-0.5,9.1-1.1l0.7,11.7
		c-3,1.2-7.8,2.1-13.9,2.1c-7.3,0-13.1-2.3-16.9-6.6c-4.4-4.6-6-12.3-6-22.4v-46.9h-13.3v-11.9h13.3v-20.6L2452-1423.5z"/>
	<path fill="#414042" d="M2503.2-1353c0.4,21.1,13.9,29.8,29.5,29.8c11.2,0,17.9-2,23.8-4.4l2.7,11.2c-5.5,2.5-14.9,5.3-28.6,5.3
		c-26.5,0-42.3-17.4-42.3-43.3c0-25.9,15.3-46.4,40.3-46.4c28.1,0,35.5,24.7,35.5,40.5c0,3.2-0.4,5.7-0.5,7.3H2503.2z M2549-1364.2
		c0.2-9.9-4.1-25.4-21.7-25.4c-15.8,0-22.7,14.6-24,25.4H2549z"/>
	<path fill="#414042" d="M2587-1372c0-10.1-0.2-18.8-0.7-26.8h13.7l0.5,16.9h0.7c3.9-11.5,13.3-18.8,23.8-18.8c1.8,0,3,0.2,4.4,0.5
		v14.7c-1.6-0.4-3.2-0.5-5.3-0.5c-11,0-18.8,8.3-21,20.1c-0.4,2.1-0.7,4.6-0.7,7.3v45.8H2587V-1372z"/>
</g>
<circle fill="#6D6E71" cx="2020.2" cy="-1414.3" r="7.1"/>
<g>
	<path fill="#F37625" d="M1983.8-1319.4c-21.7,0-40.7-7.8-50.5-19.4c7.5,20.7,27.3,35.5,50.5,35.5s43.1-14.8,50.5-35.5
		C2024.5-1327.3,2005.6-1319.4,1983.8-1319.4z"/>
	<path fill="#F37625" d="M1983.8-1394.6c21.7,0,40.7,7.8,50.5,19.4c-7.5-20.7-27.3-35.5-50.5-35.5s-43.1,14.8-50.5,35.5
		C1943.2-1386.7,1962.1-1394.6,1983.8-1394.6z"/>
</g>
<circle fill="#939598" cx="1947.5" cy="-1296.9" r="8.6"/>
<circle fill="#58595B" cx="1939.1" cy="-1404.5" r="5.2"/>
<g>
	<path d="M3008.2-1326.9c0,20.6-1.6,27.4-5.9,32.3c-3.7,4.1-9.9,6-17.1,6.6l1.6,12.3c8.3,0,19.7-2.8,26.6-9.8
		c7.6-7.8,10.3-18.7,10.3-35.4v-78h-15.6V-1326.9z"/>
	<path d="M3124.9-1336.3c0,8.9,0.2,16.7,0.7,23.4h-13.9l-0.9-14h-0.4c-4.1,6.9-13.1,16-28.4,16c-13.5,0-29.7-7.5-29.7-37.7v-50.3
		h15.6v47.6c0,16.3,5,27.4,19.2,27.4c10.5,0,17.8-7.3,20.6-14.2c0.9-2.3,1.4-5.2,1.4-8v-52.8h15.6V-1336.3z"/>
	<path d="M3154.4-1370.8c0-11-0.4-19.9-0.7-28.1h14l0.7,14.7h0.4c6.4-10.5,16.5-16.7,30.6-16.7c20.8,0,36.4,17.6,36.4,43.7
		c0,30.9-18.8,46.2-39.1,46.2c-11.4,0-21.3-5-26.5-13.5h-0.4v46.7h-15.5V-1370.8z M3169.9-1347.8c0,2.3,0.4,4.4,0.7,6.4
		c2.8,10.8,12.3,18.3,23.4,18.3c16.5,0,26.1-13.5,26.1-33.2c0-17.2-9.1-32-25.6-32c-10.7,0-20.6,7.6-23.6,19.4
		c-0.5,2-1.1,4.3-1.1,6.4V-1347.8z"/>
	<path d="M3263.5-1398.8l18.8,50.8c2,5.7,4.1,12.4,5.5,17.6h0.4c1.6-5.2,3.4-11.7,5.5-17.9l17.1-50.5h16.5l-23.4,61.3
		c-11.2,29.5-18.8,44.6-29.5,53.8c-7.6,6.7-15.3,9.4-19.2,10.1l-3.9-13.1c3.9-1.2,9.1-3.7,13.7-7.6c4.3-3.4,9.6-9.4,13.1-17.4
		c0.7-1.6,1.2-2.8,1.2-3.7c0-0.9-0.4-2.1-1.1-4.1l-31.8-79.2H3263.5z"/>
	<path d="M3368.4-1423.5v24.7h22.4v11.9h-22.4v46.4c0,10.7,3,16.7,11.7,16.7c4.1,0,7.1-0.5,9.1-1.1l0.7,11.7
		c-3,1.2-7.8,2.1-13.9,2.1c-7.3,0-13.1-2.3-16.9-6.6c-4.4-4.6-6-12.3-6-22.4v-46.9h-13.3v-11.9h13.3v-20.6L3368.4-1423.5z"/>
	<path d="M3419.5-1353c0.4,21.1,13.9,29.8,29.5,29.8c11.2,0,17.9-2,23.8-4.4l2.7,11.2c-5.5,2.5-14.9,5.3-28.6,5.3
		c-26.5,0-42.3-17.4-42.3-43.3c0-25.9,15.3-46.4,40.3-46.4c28.1,0,35.5,24.7,35.5,40.5c0,3.2-0.4,5.7-0.5,7.3H3419.5z
		 M3465.4-1364.2c0.2-9.9-4.1-25.4-21.7-25.4c-15.8,0-22.7,14.6-24,25.4H3465.4z"/>
	<path d="M3503.4-1372c0-10.1-0.2-18.8-0.7-26.8h13.7l0.5,16.9h0.7c3.9-11.5,13.3-18.8,23.8-18.8c1.8,0,3,0.2,4.4,0.5v14.7
		c-1.6-0.4-3.2-0.5-5.3-0.5c-11,0-18.8,8.3-21,20.1c-0.4,2.1-0.7,4.6-0.7,7.3v45.8h-15.5V-1372z"/>
</g>
<circle cx="2936.6" cy="-1414.3" r="7.1"/>
<g>
	<path d="M2900.2-1319.4c-21.7,0-40.7-7.8-50.5-19.4c7.5,20.7,27.3,35.5,50.5,35.5s43.1-14.8,50.5-35.5
		C2940.8-1327.3,2921.9-1319.4,2900.2-1319.4z"/>
	<path d="M2900.2-1394.6c21.7,0,40.7,7.8,50.5,19.4c-7.5-20.7-27.3-35.5-50.5-35.5s-43.1,14.8-50.5,35.5
		C2859.5-1386.7,2878.4-1394.6,2900.2-1394.6z"/>
</g>
<circle cx="2863.8" cy="-1296.9" r="8.6"/>
<circle cx="2855.4" cy="-1404.5" r="5.2"/>
<g>
	<path fill="#414042" d="M382.6,347.8c0,29.6-2.3,39.3-8.4,46.4c-5.4,5.9-14.3,8.7-24.5,9.4l2.3,17.6c12,0,28.3-4.1,38.3-14
		c11-11.2,14.8-26.8,14.8-50.8v-112h-22.4V347.8z"/>
	<path fill="#414042" d="M550.2,334.3c0,12.8,0.3,24,1,33.7h-19.9l-1.3-20.1h-0.5c-5.9,9.9-18.9,23-40.8,23
		c-19.4,0-42.6-10.7-42.6-54.1v-72.2h22.4v68.4c0,23.5,7.1,39.3,27.5,39.3c15,0,25.5-10.5,29.6-20.4c1.3-3.3,2-7.4,2-11.5v-75.7
		h22.4V334.3z"/>
	<path fill="#414042" d="M592.5,284.8c0-15.8-0.5-28.6-1-40.3h20.1l1,21.2h0.5c9.2-15,23.7-24,43.9-24c29.8,0,52.3,25.2,52.3,62.7
		c0,44.4-27,66.3-56.1,66.3c-16.3,0-30.6-7.1-38-19.4h-0.5v67.1h-22.2V284.8z M614.7,317.7c0,3.3,0.5,6.4,1,9.2
		c4.1,15.6,17.6,26.3,33.7,26.3c23.7,0,37.5-19.4,37.5-47.7c0-24.7-13-45.9-36.7-45.9c-15.3,0-29.6,11-33.9,27.8
		c-0.8,2.8-1.5,6.1-1.5,9.2V317.7z"/>
	<path fill="#414042" d="M749.1,244.5l27,72.9c2.8,8.2,5.9,17.9,7.9,25.2h0.5c2.3-7.4,4.8-16.8,7.9-25.8l24.5-72.4h23.7l-33.7,88
		c-16.1,42.3-27,64-42.3,77.3c-11,9.7-21.9,13.5-27.5,14.5l-5.6-18.9c5.6-1.8,13-5.4,19.6-11c6.1-4.8,13.8-13.5,18.9-25
		c1-2.3,1.8-4.1,1.8-5.4c0-1.3-0.5-3.1-1.5-5.9l-45.7-113.7H749.1z"/>
	<path fill="#414042" d="M899.7,209.1v35.5h32.1v17.1h-32.1v66.6c0,15.3,4.3,24,16.8,24c5.9,0,10.2-0.8,13-1.5l1,16.8
		c-4.3,1.8-11.2,3.1-19.9,3.1c-10.5,0-18.9-3.3-24.2-9.4c-6.4-6.6-8.7-17.6-8.7-32.1v-67.3h-19.1v-17.1h19.1V215L899.7,209.1z"/>
	<path fill="#414042" d="M973.2,310.3c0.5,30.3,19.9,42.8,42.3,42.8c16.1,0,25.8-2.8,34.2-6.4l3.8,16.1c-7.9,3.6-21.4,7.7-41.1,7.7
		c-38,0-60.7-25-60.7-62.2s21.9-66.6,57.9-66.6c40.3,0,51,35.5,51,58.1c0,4.6-0.5,8.2-0.8,10.5H973.2z M1039,294.3
		c0.3-14.3-5.9-36.5-31.1-36.5c-22.7,0-32.6,20.9-34.4,36.5H1039z"/>
	<path fill="#414042" d="M1093.5,283.1c0-14.5-0.3-27-1-38.5h19.6l0.8,24.2h1c5.6-16.6,19.1-27,34.2-27c2.6,0,4.3,0.3,6.4,0.8v21.2
		c-2.3-0.5-4.6-0.8-7.7-0.8c-15.8,0-27,12-30.1,28.8c-0.5,3.1-1,6.6-1,10.5V368h-22.2V283.1z"/>
</g>
<linearGradient id="SVGID_31_" gradientUnits="userSpaceOnUse" x1="269.584" y1="222.3635" x2="289.9883" y2="222.3635">
	<stop  offset="0" style="stop-color:#808285"/>
	<stop  offset="9.314537e-02" style="stop-color:#797B7E"/>
	<stop  offset="0.4706" style="stop-color:#606163"/>
	<stop  offset="0.7864" style="stop-color:#4F4F51"/>
	<stop  offset="1" style="stop-color:#48484A"/>
</linearGradient>
<circle fill="url(#SVGID_31_)" cx="279.8" cy="222.4" r="10.2"/>
<g>
	<linearGradient id="SVGID_32_" gradientUnits="userSpaceOnUse" x1="154.9761" y1="356.176" x2="300.0318" y2="356.176">
		<stop  offset="5.220520e-02" style="stop-color:#F78D26"/>
		<stop  offset="0.2056" style="stop-color:#F68826"/>
		<stop  offset="0.4323" style="stop-color:#F37A25"/>
		<stop  offset="0.4766" style="stop-color:#F37625"/>
		<stop  offset="0.6159" style="stop-color:#E76623"/>
		<stop  offset="0.8356" style="stop-color:#DC5221"/>
		<stop  offset="0.9873" style="stop-color:#D84B21"/>
	</linearGradient>
	<path fill="url(#SVGID_32_)" d="M227.5,358.5c-31.2,0-58.4-11.2-72.5-27.8c10.7,29.7,39.1,50.9,72.5,50.9s61.8-21.2,72.5-50.9
		C285.9,347.3,258.7,358.5,227.5,358.5z"/>
	<linearGradient id="SVGID_33_" gradientUnits="userSpaceOnUse" x1="154.9761" y1="252.964" x2="300.0318" y2="252.964">
		<stop  offset="5.220520e-02" style="stop-color:#F78D26"/>
		<stop  offset="0.2056" style="stop-color:#F68826"/>
		<stop  offset="0.4323" style="stop-color:#F37A25"/>
		<stop  offset="0.4766" style="stop-color:#F37625"/>
		<stop  offset="0.6159" style="stop-color:#E76623"/>
		<stop  offset="0.8356" style="stop-color:#DC5221"/>
		<stop  offset="0.9873" style="stop-color:#D84B21"/>
	</linearGradient>
	<path fill="url(#SVGID_33_)" d="M227.5,250.7c31.2,0,58.4,11.2,72.5,27.8c-10.7-29.7-39.1-50.9-72.5-50.9s-61.8,21.2-72.5,50.9
		C169.1,261.9,196.3,250.7,227.5,250.7z"/>
</g>
<linearGradient id="SVGID_34_" gradientUnits="userSpaceOnUse" x1="163.0623" y1="390.883" x2="187.6201" y2="390.883">
	<stop  offset="1.435499e-02" style="stop-color:#BCBEC0"/>
	<stop  offset="1" style="stop-color:#6D6E71"/>
</linearGradient>
<circle fill="url(#SVGID_34_)" cx="175.3" cy="390.9" r="12.3"/>
<linearGradient id="SVGID_35_" gradientUnits="userSpaceOnUse" x1="155.7409" y1="236.3394" x2="170.7041" y2="236.3394">
	<stop  offset="0" style="stop-color:#6D6E71"/>
	<stop  offset="0.39" style="stop-color:#555658"/>
	<stop  offset="0.752" style="stop-color:#434244"/>
	<stop  offset="0.9969" style="stop-color:#383839"/>
</linearGradient>
<circle fill="url(#SVGID_35_)" cx="163.2" cy="236.3" r="7.5"/>
<g>
	<path fill="#F37625" d="M1188.8,187.7h22.1v75.7h0.5c3.5-6.3,9-11.8,15.8-15.5c6.5-3.8,14.3-6.3,22.6-6.3c16.3,0,42.4,10,42.4,51.9
		v72.2h-22.1V296c0-19.6-7.3-36.1-28.1-36.1c-14.3,0-25.6,10-29.6,22.1c-1.3,3-1.5,6.3-1.5,10.5v73.2h-22.1V187.7z"/>
	<path fill="#F37625" d="M1429.6,332.6c0,12.5,0.2,23.6,1,33.1H1411l-1.3-19.8h-0.5c-5.8,9.8-18.6,22.6-40.1,22.6
		c-19.1,0-41.9-10.5-41.9-53.2v-71h22.1v67.2c0,23.1,7,38.6,27.1,38.6c14.8,0,25.1-10.3,29.1-20.1c1.3-3.3,2-7.3,2-11.3v-74.5h22.1
		V332.6z"/>
	<path fill="#F37625" d="M1465.2,365.7c0.5-8.3,1-20.6,1-31.3V187.7h21.8v76.2h0.5c7.8-13.5,21.8-22.3,41.4-22.3
		c30.1,0,51.4,25.1,51.2,61.9c0,43.4-27.3,65-54.4,65c-17.6,0-31.6-6.8-40.6-22.8h-0.8l-1,20.1H1465.2z M1488,317.1
		c0,2.8,0.5,5.5,1,8c4.3,15.3,17.1,25.8,33.1,25.8c23.1,0,36.9-18.8,36.9-46.6c0-24.3-12.5-45.1-36.1-45.1
		c-15,0-29.1,10.3-33.6,27.1c-0.5,2.5-1.3,5.5-1.3,9V317.1z"/>
</g>
</svg>
