<?xml version="1.0" encoding="utf-8"?>
<!-- Generator: Adobe Illustrator 18.0.0, SVG Export Plug-In . SVG Version: 6.00 Build 0)  -->
<!DOCTYPE svg PUBLIC "-//W3C//DTD SVG 1.1//EN" "http://www.w3.org/Graphics/SVG/1.1/DTD/svg11.dtd">
<svg version="1.1" id="Layer_1" xmlns="http://www.w3.org/2000/svg" xmlns:xlink="http://www.w3.org/1999/xlink" x="0px" y="0px"
	 viewBox="0 0 792 612" enable-background="new 0 0 792 612" xml:space="preserve">
<g>
	<path fill="#414042" d="M-707.1-335c0,12.7-1,16.9-3.6,20c-2.3,2.5-6.1,3.7-10.5,4.1l1,7.6c5.2,0,12.2-1.8,16.5-6
		c4.7-4.8,6.4-11.5,6.4-21.9v-48.2h-9.7V-335z"/>
	<path fill="#414042" d="M-634.9-340.8c0,5.5,0.1,10.3,0.4,14.5h-8.6l-0.5-8.7h-0.2c-2.5,4.3-8.1,9.9-17.6,9.9
		c-8.3,0-18.3-4.6-18.3-23.3v-31.1h9.7v29.4c0,10.1,3.1,16.9,11.9,16.9c6.5,0,11-4.5,12.7-8.8c0.5-1.4,0.9-3.2,0.9-4.9v-32.6h9.7
		V-340.8z"/>
	<path fill="#414042" d="M-616.7-362.1c0-6.8-0.2-12.3-0.4-17.3h8.7l0.4,9.1h0.2c4-6.5,10.2-10.3,18.9-10.3
		c12.8,0,22.5,10.9,22.5,27c0,19.1-11.6,28.5-24.2,28.5c-7,0-13.2-3.1-16.4-8.3h-0.2v28.9h-9.6V-362.1z M-607.2-347.9
		c0,1.4,0.2,2.7,0.4,4c1.8,6.7,7.6,11.3,14.5,11.3c10.2,0,16.1-8.3,16.1-20.5c0-10.7-5.6-19.8-15.8-19.8c-6.6,0-12.7,4.7-14.6,12
		c-0.3,1.2-0.7,2.6-0.7,4V-347.9z"/>
	<path fill="#414042" d="M-549.3-379.4l11.6,31.4c1.2,3.5,2.5,7.7,3.4,10.9h0.2c1-3.2,2.1-7.2,3.4-11.1l10.5-31.2h10.2l-14.5,37.9
		c-6.9,18.2-11.6,27.6-18.2,33.3c-4.7,4.2-9.4,5.8-11.9,6.3l-2.4-8.1c2.4-0.8,5.6-2.3,8.5-4.7c2.6-2.1,5.9-5.8,8.1-10.8
		c0.4-1,0.8-1.8,0.8-2.3c0-0.5-0.2-1.3-0.7-2.5l-19.7-49H-549.3z"/>
	<path fill="#414042" d="M-484.5-394.7v15.3h13.8v7.4h-13.8v28.7c0,6.6,1.9,10.3,7.2,10.3c2.5,0,4.4-0.3,5.6-0.7l0.4,7.2
		c-1.9,0.8-4.8,1.3-8.6,1.3c-4.5,0-8.1-1.4-10.4-4.1c-2.7-2.9-3.7-7.6-3.7-13.8v-29h-8.2v-7.4h8.2v-12.7L-484.5-394.7z"/>
	<path fill="#414042" d="M-452.8-351.1c0.2,13.1,8.6,18.4,18.2,18.4c6.9,0,11.1-1.2,14.7-2.7l1.6,6.9c-3.4,1.5-9.2,3.3-17.7,3.3
		c-16.4,0-26.1-10.8-26.1-26.8c0-16,9.4-28.7,24.9-28.7c17.3,0,22,15.3,22,25c0,2-0.2,3.5-0.3,4.5H-452.8z M-424.5-358
		c0.1-6.1-2.5-15.7-13.4-15.7c-9.8,0-14.1,9-14.8,15.7H-424.5z"/>
	<path fill="#414042" d="M-401-362.9c0-6.3-0.1-11.6-0.4-16.6h8.5l0.3,10.4h0.4c2.4-7.1,8.2-11.6,14.7-11.6c1.1,0,1.9,0.1,2.7,0.3
		v9.1c-1-0.2-2-0.3-3.3-0.3c-6.8,0-11.6,5.2-13,12.4c-0.2,1.3-0.4,2.9-0.4,4.5v28.3h-9.6V-362.9z"/>
</g>
<g opacity="0.9">
	<linearGradient id="SVGID_1_" gradientUnits="userSpaceOnUse" x1="-699.7154" y1="-245.9864" x2="-396.2613" y2="-245.9864">
		<stop  offset="5.220520e-02" style="stop-color:#F78D26"/>
		<stop  offset="0.2056" style="stop-color:#F68826"/>
		<stop  offset="0.4323" style="stop-color:#F37A25"/>
		<stop  offset="0.4766" style="stop-color:#F37625"/>
		<stop  offset="0.6159" style="stop-color:#E76623"/>
		<stop  offset="0.8356" style="stop-color:#DC5221"/>
		<stop  offset="0.9873" style="stop-color:#D84B21"/>
	</linearGradient>
	<path fill="url(#SVGID_1_)" d="M-548-241.1c-65.3,0-122.1-23.5-151.7-58.1c22.4,62.1,81.9,106.6,151.7,106.6
		s129.3-44.4,151.7-106.6C-425.9-264.6-482.7-241.1-548-241.1z"/>
	<linearGradient id="SVGID_2_" gradientUnits="userSpaceOnUse" x1="-699.7154" y1="-461.9041" x2="-396.2613" y2="-461.9041">
		<stop  offset="5.220520e-02" style="stop-color:#F78D26"/>
		<stop  offset="0.2056" style="stop-color:#F68826"/>
		<stop  offset="0.4323" style="stop-color:#F37A25"/>
		<stop  offset="0.4766" style="stop-color:#F37625"/>
		<stop  offset="0.6159" style="stop-color:#E76623"/>
		<stop  offset="0.8356" style="stop-color:#DC5221"/>
		<stop  offset="0.9873" style="stop-color:#D84B21"/>
	</linearGradient>
	<path fill="url(#SVGID_2_)" d="M-548-466.7c65.3,0,122.1,23.5,151.7,58.1c-22.4-62.1-81.9-106.6-151.7-106.6
		s-129.3,44.4-151.7,106.6C-670.1-443.3-613.3-466.7-548-466.7z"/>
</g>
<linearGradient id="SVGID_3_" gradientUnits="userSpaceOnUse" x1="-708.3557" y1="-464.0728" x2="-691.0751" y2="-464.0728">
	<stop  offset="0" style="stop-color:#6D6E71"/>
	<stop  offset="0.39" style="stop-color:#555658"/>
	<stop  offset="0.752" style="stop-color:#434244"/>
	<stop  offset="0.9969" style="stop-color:#383839"/>
</linearGradient>
<circle fill="url(#SVGID_3_)" cx="-699.7" cy="-464.1" r="8.6"/>
<linearGradient id="SVGID_4_" gradientUnits="userSpaceOnUse" x1="-457.0023" y1="-525.92" x2="-420.2271" y2="-525.92">
	<stop  offset="0" style="stop-color:#808285"/>
	<stop  offset="9.314537e-02" style="stop-color:#797B7E"/>
	<stop  offset="0.4706" style="stop-color:#606163"/>
	<stop  offset="0.7864" style="stop-color:#4F4F51"/>
	<stop  offset="1" style="stop-color:#48484A"/>
</linearGradient>
<circle fill="url(#SVGID_4_)" cx="-438.6" cy="-525.9" r="18.4"/>
<linearGradient id="SVGID_5_" gradientUnits="userSpaceOnUse" x1="-682.7993" y1="-173.3797" x2="-631.4247" y2="-173.3797">
	<stop  offset="1.435499e-02" style="stop-color:#BCBEC0"/>
	<stop  offset="1" style="stop-color:#6D6E71"/>
</linearGradient>
<circle fill="url(#SVGID_5_)" cx="-657.1" cy="-173.4" r="25.7"/>
<g>
	<g opacity="0.9">
		
			<linearGradient id="SVGID_6_" gradientUnits="userSpaceOnUse" x1="3230.1807" y1="1498.8456" x2="3533.6348" y2="1498.8456" gradientTransform="matrix(0.7071 -0.7071 0.7071 0.7071 -3934.7017 1705.9192)">
			<stop  offset="5.220520e-02" style="stop-color:#F78D26"/>
			<stop  offset="0.2056" style="stop-color:#F68826"/>
			<stop  offset="0.4323" style="stop-color:#F37A25"/>
			<stop  offset="0.4766" style="stop-color:#F37625"/>
			<stop  offset="0.6159" style="stop-color:#E76623"/>
			<stop  offset="0.8356" style="stop-color:#DC5221"/>
			<stop  offset="0.9873" style="stop-color:#D84B21"/>
		</linearGradient>
		<path fill="url(#SVGID_6_)" d="M-480.1,377.8c-46.2,46.2-103,69.8-148.4,66.2c59.8,28.1,133.2,17.5,182.6-31.9
			s60-122.9,31.9-182.6C-410.3,274.9-433.9,331.7-480.1,377.8z"/>
		
			<linearGradient id="SVGID_7_" gradientUnits="userSpaceOnUse" x1="3230.1807" y1="1282.9279" x2="3533.6348" y2="1282.9279" gradientTransform="matrix(0.7071 -0.7071 0.7071 0.7071 -3934.7017 1705.9192)">
			<stop  offset="5.220520e-02" style="stop-color:#F78D26"/>
			<stop  offset="0.2056" style="stop-color:#F68826"/>
			<stop  offset="0.4323" style="stop-color:#F37A25"/>
			<stop  offset="0.4766" style="stop-color:#F37625"/>
			<stop  offset="0.6159" style="stop-color:#E76623"/>
			<stop  offset="0.8356" style="stop-color:#DC5221"/>
			<stop  offset="0.9873" style="stop-color:#D84B21"/>
		</linearGradient>
		<path fill="url(#SVGID_7_)" d="M-639.6,218.3c46.2-46.2,103-69.8,148.4-66.2C-551,124-624.4,134.6-673.8,184
			c-49.4,49.4-60,122.9-31.9,182.6C-709.4,321.2-685.7,264.5-639.6,218.3z"/>
	</g>
	<linearGradient id="SVGID_8_" gradientUnits="userSpaceOnUse" x1="-720.1939" y1="187.9272" x2="-702.9132" y2="187.9272">
		<stop  offset="0" style="stop-color:#6D6E71"/>
		<stop  offset="0.39" style="stop-color:#555658"/>
		<stop  offset="0.752" style="stop-color:#434244"/>
		<stop  offset="0.9969" style="stop-color:#383839"/>
	</linearGradient>
	<circle fill="url(#SVGID_8_)" cx="-711.6" cy="187.9" r="8.6"/>
	<linearGradient id="SVGID_9_" gradientUnits="userSpaceOnUse" x1="-468.8405" y1="126.08" x2="-432.0653" y2="126.08">
		<stop  offset="0" style="stop-color:#808285"/>
		<stop  offset="9.314537e-02" style="stop-color:#797B7E"/>
		<stop  offset="0.4706" style="stop-color:#606163"/>
		<stop  offset="0.7864" style="stop-color:#4F4F51"/>
		<stop  offset="1" style="stop-color:#48484A"/>
	</linearGradient>
	<circle fill="url(#SVGID_9_)" cx="-450.5" cy="126.1" r="18.4"/>
	<linearGradient id="SVGID_10_" gradientUnits="userSpaceOnUse" x1="-694.6375" y1="478.6203" x2="-643.2629" y2="478.6203">
		<stop  offset="1.435499e-02" style="stop-color:#BCBEC0"/>
		<stop  offset="1" style="stop-color:#6D6E71"/>
	</linearGradient>
	<circle fill="url(#SVGID_10_)" cx="-669" cy="478.6" r="25.7"/>
</g>
<path fill="#414042" d="M-566.4,318.6c0,34.4-2.7,45.7-9.8,54c-6.2,6.8-16.6,10.1-28.5,11l2.7,20.5c13.9,0,32.9-4.7,44.5-16.3
	c12.8-13,17.2-31.1,17.2-59V198.5h-26.1V318.6z"/>
<g>
	<g opacity="0.9">
		
			<linearGradient id="SVGID_11_" gradientUnits="userSpaceOnUse" x1="2679.8955" y1="1695.85" x2="2771.8894" y2="1695.85" gradientTransform="matrix(0.7071 -0.7071 0.7071 0.7071 -3934.7017 1705.9192)">
			<stop  offset="5.220520e-02" style="stop-color:#F78D26"/>
			<stop  offset="0.2056" style="stop-color:#F68826"/>
			<stop  offset="0.4323" style="stop-color:#F37A25"/>
			<stop  offset="0.4766" style="stop-color:#F37625"/>
			<stop  offset="0.6159" style="stop-color:#E76623"/>
			<stop  offset="0.8356" style="stop-color:#DC5221"/>
			<stop  offset="0.9873" style="stop-color:#D84B21"/>
		</linearGradient>
		<path fill="url(#SVGID_11_)" d="M-807,978.6c-14,14-31.2,21.2-45,20.1c18.1,8.5,40.4,5.3,55.4-9.7s18.2-37.2,9.7-55.4
			C-785.9,947.4-793,964.6-807,978.6z"/>
		
			<linearGradient id="SVGID_12_" gradientUnits="userSpaceOnUse" x1="2679.8955" y1="1630.3932" x2="2771.8894" y2="1630.3932" gradientTransform="matrix(0.7071 -0.7071 0.7071 0.7071 -3934.7017 1705.9192)">
			<stop  offset="5.220520e-02" style="stop-color:#F78D26"/>
			<stop  offset="0.2056" style="stop-color:#F68826"/>
			<stop  offset="0.4323" style="stop-color:#F37A25"/>
			<stop  offset="0.4766" style="stop-color:#F37625"/>
			<stop  offset="0.6159" style="stop-color:#E76623"/>
			<stop  offset="0.8356" style="stop-color:#DC5221"/>
			<stop  offset="0.9873" style="stop-color:#D84B21"/>
		</linearGradient>
		<path fill="url(#SVGID_12_)" d="M-855.4,930.2c14-14,31.2-21.2,45-20.1c-18.1-8.5-40.4-5.3-55.4,9.7s-18.2,37.2-9.7,55.4
			C-876.5,961.5-869.4,944.2-855.4,930.2z"/>
	</g>
	<linearGradient id="SVGID_13_" gradientUnits="userSpaceOnUse" x1="-879.8165" y1="921.0408" x2="-874.5777" y2="921.0408">
		<stop  offset="0" style="stop-color:#6D6E71"/>
		<stop  offset="0.39" style="stop-color:#555658"/>
		<stop  offset="0.752" style="stop-color:#434244"/>
		<stop  offset="0.9969" style="stop-color:#383839"/>
	</linearGradient>
	<circle fill="url(#SVGID_13_)" cx="-877.2" cy="921" r="2.6"/>
	<linearGradient id="SVGID_14_" gradientUnits="userSpaceOnUse" x1="-803.6171" y1="902.2915" x2="-792.4685" y2="902.2915">
		<stop  offset="0" style="stop-color:#808285"/>
		<stop  offset="9.314537e-02" style="stop-color:#797B7E"/>
		<stop  offset="0.4706" style="stop-color:#606163"/>
		<stop  offset="0.7864" style="stop-color:#4F4F51"/>
		<stop  offset="1" style="stop-color:#48484A"/>
	</linearGradient>
	<circle fill="url(#SVGID_14_)" cx="-798" cy="902.3" r="5.6"/>
	<linearGradient id="SVGID_15_" gradientUnits="userSpaceOnUse" x1="-872.0688" y1="1009.1663" x2="-856.4943" y2="1009.1663">
		<stop  offset="1.435499e-02" style="stop-color:#BCBEC0"/>
		<stop  offset="1" style="stop-color:#6D6E71"/>
	</linearGradient>
	<circle fill="url(#SVGID_15_)" cx="-864.3" cy="1009.2" r="7.8"/>
</g>
<g>
	<path fill="#414042" d="M-709.4,982.8c0,19.2-1.5,25.4-5.4,30c-3.5,3.8-9.2,5.6-15.8,6.1l1.5,11.4c7.8,0,18.3-2.6,24.8-9.1
		c7.1-7.3,9.6-17.3,9.6-32.9V916h-14.5V982.8z"/>
	<path fill="#414042" d="M-600.9,974.1c0,8.3,0.2,15.5,0.7,21.8h-12.9l-0.8-13h-0.3c-3.8,6.4-12.2,14.9-26.4,14.9
		c-12.5,0-27.6-6.9-27.6-35V916h14.5v44.2c0,15.2,4.6,25.4,17.8,25.4c9.7,0,16.5-6.8,19.2-13.2c0.8-2.1,1.3-4.8,1.3-7.4v-49h14.5
		V974.1z"/>
	<path fill="#414042" d="M-573.5,942.1c0-10.2-0.3-18.5-0.7-26.1h13l0.7,13.7h0.3c5.9-9.7,15.4-15.5,28.4-15.5
		c19.3,0,33.8,16.3,33.8,40.6c0,28.7-17.5,42.9-36.3,42.9c-10.6,0-19.8-4.6-24.6-12.5h-0.3v43.4h-14.4V942.1z M-559.1,963.4
		c0,2.1,0.3,4.1,0.7,5.9c2.6,10.1,11.4,17,21.8,17c15.4,0,24.3-12.5,24.3-30.9c0-16-8.4-29.7-23.8-29.7c-9.9,0-19.2,7.1-22,18
		c-0.5,1.8-1,4-1,5.9V963.4z"/>
	<path fill="#414042" d="M-472.1,916l17.5,47.2c1.8,5.3,3.8,11.6,5.1,16.3h0.3c1.5-4.8,3.1-10.9,5.1-16.7l15.8-46.9h15.4l-21.8,57
		c-10.4,27.4-17.5,41.4-27.4,50c-7.1,6.3-14.2,8.8-17.8,9.4l-3.6-12.2c3.6-1.2,8.4-3.5,12.7-7.1c4-3.1,8.9-8.8,12.2-16.2
		c0.7-1.5,1.2-2.6,1.2-3.5c0-0.8-0.3-2-1-3.8L-488,916H-472.1z"/>
	<path fill="#414042" d="M-374.6,893V916h20.8V927h-20.8v43.1c0,9.9,2.8,15.5,10.9,15.5c3.8,0,6.6-0.5,8.4-1l0.7,10.9
		c-2.8,1.2-7.3,2-12.9,2c-6.8,0-12.2-2.1-15.7-6.1c-4.1-4.3-5.6-11.4-5.6-20.8V927h-12.4V916h12.4v-19.2L-374.6,893z"/>
	<path fill="#414042" d="M-327.1,958.6c0.3,19.6,12.9,27.7,27.4,27.7c10.4,0,16.7-1.8,22.1-4.1l2.5,10.4c-5.1,2.3-13.9,5-26.6,5
		c-24.6,0-39.3-16.2-39.3-40.3s14.2-43.1,37.5-43.1c26.1,0,33,22.9,33,37.6c0,3-0.3,5.3-0.5,6.8H-327.1z M-284.5,948.2
		c0.2-9.2-3.8-23.6-20.1-23.6c-14.7,0-21.1,13.5-22.3,23.6H-284.5z"/>
	<path fill="#414042" d="M-249.2,940.9c0-9.4-0.2-17.5-0.7-24.9h12.7l0.5,15.7h0.7c3.6-10.7,12.4-17.5,22.1-17.5
		c1.7,0,2.8,0.2,4.1,0.5v13.7c-1.5-0.3-3-0.5-5-0.5c-10.2,0-17.5,7.8-19.5,18.7c-0.3,2-0.7,4.3-0.7,6.8v42.6h-14.4V940.9z"/>
</g>
<g>
	<path fill="#414042" d="M241.4-331.6c0,12.7-1,16.9-3.6,20c-2.3,2.5-6.1,3.7-10.5,4.1l1,7.6c5.2,0,12.2-1.8,16.5-6
		c4.7-4.8,6.4-11.5,6.4-21.9v-48.2h-9.7V-331.6z"/>
	<path fill="#414042" d="M313.5-337.4c0,5.5,0.1,10.3,0.4,14.5h-8.6l-0.5-8.7h-0.2c-2.5,4.3-8.1,9.9-17.6,9.9
		c-8.3,0-18.3-4.6-18.3-23.3v-31.1h9.7v29.4c0,10.1,3.1,16.9,11.9,16.9c6.5,0,11-4.5,12.7-8.8c0.5-1.4,0.9-3.2,0.9-4.9v-32.6h9.7
		V-337.4z"/>
	<path fill="#414042" d="M331.8-358.7c0-6.8-0.2-12.3-0.4-17.3h8.7l0.4,9.1h0.2c4-6.5,10.2-10.3,18.9-10.3c12.8,0,22.5,10.9,22.5,27
		c0,19.1-11.6,28.5-24.2,28.5c-7,0-13.2-3.1-16.4-8.3h-0.2v28.9h-9.6V-358.7z M341.3-344.5c0,1.4,0.2,2.7,0.4,4
		c1.8,6.7,7.6,11.3,14.5,11.3c10.2,0,16.1-8.3,16.1-20.5c0-10.7-5.6-19.8-15.8-19.8c-6.6,0-12.7,4.7-14.6,12c-0.3,1.2-0.7,2.6-0.7,4
		V-344.5z"/>
	<path fill="#414042" d="M399.2-376.1l11.6,31.4c1.2,3.5,2.5,7.7,3.4,10.9h0.2c1-3.2,2.1-7.2,3.4-11.1l10.5-31.2h10.2l-14.5,37.9
		c-6.9,18.2-11.6,27.6-18.2,33.3c-4.7,4.2-9.4,5.8-11.9,6.3l-2.4-8.1c2.4-0.8,5.6-2.3,8.5-4.7c2.6-2.1,5.9-5.8,8.1-10.8
		c0.4-1,0.8-1.8,0.8-2.3c0-0.5-0.2-1.3-0.7-2.5l-19.7-49H399.2z"/>
	<path fill="#414042" d="M464-391.3v15.3h13.8v7.4H464v28.7c0,6.6,1.9,10.3,7.2,10.3c2.5,0,4.4-0.3,5.6-0.7l0.4,7.2
		c-1.9,0.8-4.8,1.3-8.6,1.3c-4.5,0-8.1-1.4-10.4-4.1c-2.7-2.9-3.7-7.6-3.7-13.8v-29h-8.2v-7.4h8.2v-12.7L464-391.3z"/>
	<path fill="#414042" d="M495.6-347.7c0.2,13.1,8.6,18.4,18.2,18.4c6.9,0,11.1-1.2,14.7-2.7l1.6,6.9c-3.4,1.5-9.2,3.3-17.7,3.3
		c-16.4,0-26.1-10.8-26.1-26.8c0-16,9.4-28.7,24.9-28.7c17.3,0,22,15.3,22,25c0,2-0.2,3.5-0.3,4.5H495.6z M524-354.6
		c0.1-6.1-2.5-15.7-13.4-15.7c-9.8,0-14.1,9-14.8,15.7H524z"/>
	<path fill="#414042" d="M547.5-359.5c0-6.3-0.1-11.6-0.4-16.6h8.5l0.3,10.4h0.4c2.4-7.1,8.2-11.6,14.7-11.6c1.1,0,1.9,0.1,2.7,0.3
		v9.1c-1-0.2-2-0.3-3.3-0.3c-6.8,0-11.6,5.2-13,12.4c-0.2,1.3-0.4,2.9-0.4,4.5v28.3h-9.6V-359.5z"/>
</g>
<g>
	<linearGradient id="SVGID_16_" gradientUnits="userSpaceOnUse" x1="248.7431" y1="-242.5949" x2="552.1973" y2="-242.5949">
		<stop  offset="7.414178e-02" style="stop-color:#BCBEC0"/>
		<stop  offset="0.3771" style="stop-color:#6D6E71"/>
		<stop  offset="0.4846" style="stop-color:#5E5F61"/>
		<stop  offset="0.697" style="stop-color:#414143"/>
		<stop  offset="0.8764" style="stop-color:#1A191A"/>
		<stop  offset="1" style="stop-color:#000000"/>
	</linearGradient>
	<path fill="url(#SVGID_16_)" d="M400.5-237.8c-65.3,0-122.1-23.5-151.7-58.1c22.4,62.1,81.9,106.6,151.7,106.6
		s129.3-44.4,151.7-106.6C522.6-261.2,465.8-237.8,400.5-237.8z"/>
	<linearGradient id="SVGID_17_" gradientUnits="userSpaceOnUse" x1="248.7431" y1="-458.5127" x2="552.1973" y2="-458.5127">
		<stop  offset="7.414178e-02" style="stop-color:#BCBEC0"/>
		<stop  offset="0.3771" style="stop-color:#6D6E71"/>
		<stop  offset="0.4846" style="stop-color:#5E5F61"/>
		<stop  offset="0.697" style="stop-color:#414143"/>
		<stop  offset="0.8764" style="stop-color:#1A191A"/>
		<stop  offset="1" style="stop-color:#000000"/>
	</linearGradient>
	<path fill="url(#SVGID_17_)" d="M400.5-463.4c65.3,0,122.1,23.5,151.7,58.1c-22.4-62.1-81.9-106.6-151.7-106.6
		s-129.3,44.4-151.7,106.6C278.3-439.9,335.2-463.4,400.5-463.4z"/>
</g>
<linearGradient id="SVGID_18_" gradientUnits="userSpaceOnUse" x1="240.1028" y1="-460.6814" x2="257.3835" y2="-460.6814">
	<stop  offset="0" style="stop-color:#6D6E71"/>
	<stop  offset="0.39" style="stop-color:#555658"/>
	<stop  offset="0.752" style="stop-color:#434244"/>
	<stop  offset="0.9969" style="stop-color:#383839"/>
</linearGradient>
<circle fill="url(#SVGID_18_)" cx="248.7" cy="-460.7" r="8.6"/>
<linearGradient id="SVGID_19_" gradientUnits="userSpaceOnUse" x1="491.4562" y1="-522.5286" x2="528.2314" y2="-522.5286">
	<stop  offset="0" style="stop-color:#808285"/>
	<stop  offset="9.314537e-02" style="stop-color:#797B7E"/>
	<stop  offset="0.4706" style="stop-color:#606163"/>
	<stop  offset="0.7864" style="stop-color:#4F4F51"/>
	<stop  offset="1" style="stop-color:#48484A"/>
</linearGradient>
<circle fill="url(#SVGID_19_)" cx="509.8" cy="-522.5" r="18.4"/>
<linearGradient id="SVGID_20_" gradientUnits="userSpaceOnUse" x1="265.6593" y1="-169.9883" x2="317.0338" y2="-169.9883">
	<stop  offset="1.435499e-02" style="stop-color:#BCBEC0"/>
	<stop  offset="1" style="stop-color:#6D6E71"/>
</linearGradient>
<circle fill="url(#SVGID_20_)" cx="291.3" cy="-170" r="25.7"/>
<g>
	
		<linearGradient id="SVGID_21_" gradientUnits="userSpaceOnUse" x1="3921.8601" y1="2183.8149" x2="4225.3145" y2="2183.8149" gradientTransform="matrix(0.7071 -0.7071 0.7071 0.7071 -3934.7017 1705.9192)">
		<stop  offset="7.414178e-02" style="stop-color:#BCBEC0"/>
		<stop  offset="0.3771" style="stop-color:#6D6E71"/>
		<stop  offset="0.4846" style="stop-color:#5E5F61"/>
		<stop  offset="0.697" style="stop-color:#414143"/>
		<stop  offset="0.8764" style="stop-color:#1A191A"/>
		<stop  offset="1" style="stop-color:#000000"/>
	</linearGradient>
	<path fill="url(#SVGID_21_)" d="M493.4,373.1c-46.2,46.2-103,69.8-148.4,66.2c59.8,28.1,133.2,17.5,182.6-31.9s60-122.9,31.9-182.6
		C563.1,270.1,539.5,326.9,493.4,373.1z"/>
	
		<linearGradient id="SVGID_22_" gradientUnits="userSpaceOnUse" x1="3921.8601" y1="1967.8971" x2="4225.3145" y2="1967.8971" gradientTransform="matrix(0.7071 -0.7071 0.7071 0.7071 -3934.7017 1705.9192)">
		<stop  offset="7.414178e-02" style="stop-color:#BCBEC0"/>
		<stop  offset="0.3771" style="stop-color:#6D6E71"/>
		<stop  offset="0.4846" style="stop-color:#5E5F61"/>
		<stop  offset="0.697" style="stop-color:#414143"/>
		<stop  offset="0.8764" style="stop-color:#1A191A"/>
		<stop  offset="1" style="stop-color:#000000"/>
	</linearGradient>
	<path fill="url(#SVGID_22_)" d="M333.9,213.5c46.2-46.2,103-69.8,148.4-66.2c-59.8-28.1-133.2-17.5-182.6,31.9
		s-60,122.9-31.9,182.6C264.1,316.5,287.7,259.7,333.9,213.5z"/>
</g>
<linearGradient id="SVGID_23_" gradientUnits="userSpaceOnUse" x1="253.2439" y1="183.1823" x2="270.5245" y2="183.1823">
	<stop  offset="0" style="stop-color:#6D6E71"/>
	<stop  offset="0.39" style="stop-color:#555658"/>
	<stop  offset="0.752" style="stop-color:#434244"/>
	<stop  offset="0.9969" style="stop-color:#383839"/>
</linearGradient>
<circle fill="url(#SVGID_23_)" cx="261.9" cy="183.2" r="8.6"/>
<linearGradient id="SVGID_24_" gradientUnits="userSpaceOnUse" x1="504.5972" y1="121.3351" x2="541.3724" y2="121.3351">
	<stop  offset="0" style="stop-color:#808285"/>
	<stop  offset="9.314537e-02" style="stop-color:#797B7E"/>
	<stop  offset="0.4706" style="stop-color:#606163"/>
	<stop  offset="0.7864" style="stop-color:#4F4F51"/>
	<stop  offset="1" style="stop-color:#48484A"/>
</linearGradient>
<circle fill="url(#SVGID_24_)" cx="523" cy="121.3" r="18.4"/>
<linearGradient id="SVGID_25_" gradientUnits="userSpaceOnUse" x1="278.8003" y1="473.8754" x2="330.1749" y2="473.8754">
	<stop  offset="1.435499e-02" style="stop-color:#BCBEC0"/>
	<stop  offset="1" style="stop-color:#6D6E71"/>
</linearGradient>
<circle fill="url(#SVGID_25_)" cx="304.5" cy="473.9" r="25.7"/>
<path fill="#414042" d="M407,313.9c0,34.4-2.7,45.7-9.8,54c-6.2,6.8-16.6,10.1-28.5,11l2.7,20.5c13.9,0,32.9-4.7,44.5-16.3
	c12.8-13,17.2-31.1,17.2-59V193.8H407V313.9z"/>
<g>
	
		<linearGradient id="SVGID_26_" gradientUnits="userSpaceOnUse" x1="3358.4121" y1="2364.979" x2="3448.8979" y2="2364.979" gradientTransform="matrix(0.7071 -0.7071 0.7071 0.7071 -3934.7017 1705.9192)">
		<stop  offset="7.414178e-02" style="stop-color:#BCBEC0"/>
		<stop  offset="0.3771" style="stop-color:#6D6E71"/>
		<stop  offset="0.4846" style="stop-color:#5E5F61"/>
		<stop  offset="0.697" style="stop-color:#414143"/>
		<stop  offset="0.8764" style="stop-color:#1A191A"/>
		<stop  offset="1" style="stop-color:#000000"/>
	</linearGradient>
	<path fill="url(#SVGID_26_)" d="M145.4,972.5c-13.8,13.8-30.7,20.8-44.2,19.7c17.8,8.4,39.7,5.2,54.5-9.5
		c14.7-14.7,17.9-36.6,9.5-54.5C166.2,941.8,159.1,958.7,145.4,972.5z"/>
	
		<linearGradient id="SVGID_27_" gradientUnits="userSpaceOnUse" x1="3358.4121" y1="2300.5955" x2="3448.8979" y2="2300.5955" gradientTransform="matrix(0.7071 -0.7071 0.7071 0.7071 -3934.7017 1705.9192)">
		<stop  offset="7.414178e-02" style="stop-color:#BCBEC0"/>
		<stop  offset="0.3771" style="stop-color:#6D6E71"/>
		<stop  offset="0.4846" style="stop-color:#5E5F61"/>
		<stop  offset="0.697" style="stop-color:#414143"/>
		<stop  offset="0.8764" style="stop-color:#1A191A"/>
		<stop  offset="1" style="stop-color:#000000"/>
	</linearGradient>
	<path fill="url(#SVGID_27_)" d="M97.8,924.9c13.8-13.8,30.7-20.8,44.2-19.7c-17.8-8.4-39.7-5.2-54.5,9.5
		c-14.7,14.7-17.9,36.6-9.5,54.5C77,955.6,84,938.7,97.8,924.9z"/>
</g>
<linearGradient id="SVGID_28_" gradientUnits="userSpaceOnUse" x1="73.7561" y1="915.8627" x2="78.909" y2="915.8627">
	<stop  offset="0" style="stop-color:#6D6E71"/>
	<stop  offset="0.39" style="stop-color:#555658"/>
	<stop  offset="0.752" style="stop-color:#434244"/>
	<stop  offset="0.9969" style="stop-color:#383839"/>
</linearGradient>
<circle fill="url(#SVGID_28_)" cx="76.3" cy="915.9" r="2.6"/>
<linearGradient id="SVGID_29_" gradientUnits="userSpaceOnUse" x1="148.7061" y1="897.4208" x2="159.672" y2="897.4208">
	<stop  offset="0" style="stop-color:#808285"/>
	<stop  offset="9.314537e-02" style="stop-color:#797B7E"/>
	<stop  offset="0.4706" style="stop-color:#606163"/>
	<stop  offset="0.7864" style="stop-color:#4F4F51"/>
	<stop  offset="1" style="stop-color:#48484A"/>
</linearGradient>
<circle fill="url(#SVGID_29_)" cx="154.2" cy="897.4" r="5.5"/>
<linearGradient id="SVGID_30_" gradientUnits="userSpaceOnUse" x1="81.3767" y1="1002.5433" x2="96.6959" y2="1002.5433">
	<stop  offset="1.435499e-02" style="stop-color:#BCBEC0"/>
	<stop  offset="1" style="stop-color:#6D6E71"/>
</linearGradient>
<circle fill="url(#SVGID_30_)" cx="89" cy="1002.5" r="7.7"/>
<g>
	<path fill="#414042" d="M241.4,976.6c0,18.8-1.5,25-5.4,29.6c-3.4,3.7-9.1,5.5-15.6,6l1.5,11.2c7.6,0,18-2.6,24.4-8.9
		c7-7.1,9.4-17.1,9.4-32.3v-71.3h-14.3V976.6z"/>
	<path fill="#414042" d="M348.1,968c0,8.1,0.2,15.3,0.6,21.4h-12.7l-0.8-12.8h-0.3c-3.7,6.3-12,14.6-26,14.6
		c-12.3,0-27.1-6.8-27.1-34.4v-46h14.3v43.5c0,14.9,4.5,25,17.5,25c9.6,0,16.2-6.7,18.8-13c0.8-2.1,1.3-4.7,1.3-7.3v-48.2h14.3V968z
		"/>
	<path fill="#414042" d="M375.1,936.5c0-10.1-0.3-18.2-0.6-25.7h12.8l0.6,13.5h0.3c5.8-9.6,15.1-15.3,27.9-15.3
		c19,0,33.3,16.1,33.3,39.9c0,28.3-17.2,42.2-35.7,42.2c-10.4,0-19.5-4.5-24.2-12.3h-0.3v42.7h-14.1V936.5z M389.2,957.5
		c0,2.1,0.3,4.1,0.6,5.8c2.6,9.9,11.2,16.7,21.4,16.7c15.1,0,23.9-12.3,23.9-30.4c0-15.8-8.3-29.2-23.4-29.2
		c-9.7,0-18.8,7-21.6,17.7c-0.5,1.8-1,3.9-1,5.8V957.5z"/>
	<path fill="#414042" d="M474.8,910.9l17.2,46.4c1.8,5.2,3.7,11.4,5,16.1h0.3c1.5-4.7,3.1-10.7,5-16.4l15.6-46.1h15.1l-21.4,56
		c-10.2,27-17.2,40.8-27,49.2c-7,6.2-14,8.6-17.5,9.3l-3.6-12c3.6-1.1,8.3-3.4,12.5-7c3.9-3.1,8.8-8.6,12-15.9
		c0.6-1.5,1.1-2.6,1.1-3.4c0-0.8-0.3-1.9-1-3.7l-29.1-72.4H474.8z"/>
	<path fill="#414042" d="M570.6,888.3v22.6h20.5v10.9h-20.5v42.4c0,9.7,2.8,15.3,10.7,15.3c3.7,0,6.5-0.5,8.3-1l0.6,10.7
		c-2.8,1.1-7.1,1.9-12.7,1.9c-6.7,0-12-2.1-15.4-6c-4.1-4.2-5.5-11.2-5.5-20.5v-42.9h-12.2v-10.9h12.2V892L570.6,888.3z"/>
	<path fill="#414042" d="M617.4,952.8c0.3,19.3,12.7,27.3,27,27.3c10.2,0,16.4-1.8,21.8-4.1l2.4,10.2c-5,2.3-13.6,4.9-26.1,4.9
		c-24.2,0-38.6-15.9-38.6-39.6c0-23.7,14-42.4,36.9-42.4c25.7,0,32.5,22.6,32.5,37c0,2.9-0.3,5.2-0.5,6.7H617.4z M659.3,942.5
		c0.2-9.1-3.7-23.2-19.8-23.2c-14.5,0-20.8,13.3-21.9,23.2H659.3z"/>
	<path fill="#414042" d="M694.1,935.4c0-9.3-0.2-17.2-0.6-24.5h12.5l0.5,15.4h0.6c3.6-10.6,12.2-17.2,21.8-17.2
		c1.6,0,2.8,0.2,4.1,0.5v13.5c-1.5-0.3-2.9-0.5-4.9-0.5c-10.1,0-17.2,7.6-19.2,18.3c-0.3,1.9-0.6,4.2-0.6,6.7v41.9h-14.1V935.4z"/>
</g>
</svg>
