<?xml version="1.0" encoding="utf-8"?>
<!-- Generator: Adobe Illustrator 22.1.0, SVG Export Plug-In . SVG Version: 6.00 Build 0)  -->
<svg version="1.1" id="Layer_1" xmlns="http://www.w3.org/2000/svg" xmlns:xlink="http://www.w3.org/1999/xlink" x="0px" y="0px"
	 viewBox="0 0 240 88.3" style="enable-background:new 0 0 240 88.3;" xml:space="preserve">
<style type="text/css">
	.st0{fill:#FFFFFF;}
	.st1{fill:#767676;}
	.st2{fill:#F37826;}
	.st3{fill:#F37726;}
	.st4{fill:#9D9D9D;}
	.st5{fill:#616262;}
	.st6{fill:#4E4E4D;}
	.st7{font-family:'MyriadPro-Bold';}
	.st8{font-size:10px;}
	.st9{letter-spacing:2;}
	.st10{letter-spacing:1;}
</style>
<path id="Rectangle_1_" class="st0" d="M8,0h224c4.4,0,8,3.6,8,7.9v72.5c0,4.4-3.6,7.9-8,7.9H8c-4.4,0-8-3.6-8-7.9V7.9
	C0,3.6,3.6,0,8,0z"/>
<g id="g_1_">
	<path id="path7_fill_1_" class="st1" d="M57.2,19.9c0,0.6-0.1,1.3-0.5,1.8c-0.3,0.5-0.8,1-1.4,1.3c-1.2,0.6-2.6,0.3-3.6-0.6
		c-1.3-1.2-1.4-3.3-0.1-4.6c0.1-0.1,0.3-0.3,0.4-0.4c1.2-0.9,3-0.8,4.1,0.2C56.8,18.2,57.2,19,57.2,19.9L57.2,19.9z"/>
	<path id="path8_fill_1_" class="st2" d="M38.4,58.3c-8.6,0-16.1-3.2-20.1-7.8c1.4,4.2,4.2,7.8,7.8,10.4c7.4,5.3,17.2,5.3,24.6,0
		c3.6-2.6,6.3-6.2,7.7-10.4C54.5,55.1,47,58.3,38.4,58.3z"/>
	<path id="path9_fill_1_" class="st3" d="M38.4,27.8c8.6,0,16.2,3.2,20.1,7.8c-1.4-4.2-4.2-7.8-7.8-10.4c-7.4-5.3-17.2-5.3-24.6,0
		c-3.6,2.6-6.3,6.2-7.8,10.4C22.3,31,29.8,27.8,38.4,27.8z"/>
	<path id="path10_fill_1_" class="st4" d="M26.5,67.3c0,0.8-0.2,1.6-0.6,2.3c-0.4,0.7-1,1.2-1.8,1.6c-1.5,0.7-3.3,0.4-4.5-0.7
		c-1.7-1.6-1.8-4.2-0.2-5.9c0.2-0.2,0.4-0.3,0.6-0.5c1.6-1.2,3.7-1,5.2,0.3C26,65.2,26.5,66.3,26.5,67.3L26.5,67.3z"/>
	<path id="path11_fill_1_" class="st5" d="M19.3,26.8c-0.5,0-0.9-0.1-1.3-0.4c-0.4-0.2-0.7-0.6-0.9-1c-0.4-0.9-0.3-1.9,0.4-2.7
		c0.9-1,2.4-1.1,3.4-0.2c0.1,0.1,0.2,0.2,0.3,0.4c0.7,0.9,0.6,2.2-0.2,3.1C20.5,26.5,19.9,26.8,19.3,26.8L19.3,26.8z"/>
	<g id="Group_1_">
		<g id="g-2_1_">
			<g id="path-6_1_">
				<g id="path0-fill_1_">
					<g id="path0_fill-link_1_">
						<path id="path0_fill_1_" class="st6" d="M76.8,62.5c-1.3,1.2-2.9,1.8-4.6,1.8l0.4,3.4c2.6,0,5.2-0.9,7.2-2.7
							c2.1-2.1,2.8-5.1,2.8-9.7V33.9h-4.2v19.7C78.4,59.3,78,61.1,76.8,62.5z"/>
					</g>
				</g>
			</g>
			<g id="path-7_1_">
				<g id="path1-fill_1_">
					<g id="path1_fill-link_1_">
						<path id="path1_fill_1_" class="st6" d="M110.1,57.5h-3.7l-0.2-3.9h-0.1c-0.8,1.3-1.9,2.5-3.2,3.2c-1.3,0.8-2.9,1.2-4.4,1.1
							c-3.6,0-8-2-8-10.3V33.9h4.2V47c0,4.5,1.3,7.5,5.2,7.5c1.2,0,2.4-0.4,3.3-1c1-0.7,1.7-1.7,2.2-2.8c0.3-0.7,0.4-1.4,0.4-2.2
							V33.9h4.2V51C109.8,53.2,109.9,55.3,110.1,57.5z"/>
					</g>
				</g>
			</g>
			<g id="path-8_1_">
				<g id="path2-fill_1_">
					<g id="path2_fill-link_1_">
						<path id="path2_fill_1_" class="st6" d="M117.8,41.6c0-3-0.1-5.5-0.2-7.7h3.8l0.2,4h0.1c0.8-1.4,2-2.6,3.5-3.4
							c1.4-0.8,3.1-1.2,4.8-1.1c5.6,0,9.8,4.8,9.8,12c0,8.5-5.1,12.7-10.5,12.7c-1.4,0.1-2.8-0.3-4-0.9c-1.3-0.7-2.3-1.6-3.1-2.8
							H122V67h-4.2V41.6L117.8,41.6z M122,47.9c0,0.6,0.1,1.2,0.2,1.8c0.3,1.4,1.2,2.7,2.3,3.6c1.1,0.9,2.5,1.4,4,1.4
							c4.4,0,7-3.7,7-9.1c0-4.7-2.4-8.8-6.9-8.8c-1.5,0-2.9,0.6-4.1,1.5c-1.2,1-2,2.3-2.3,3.8c-0.2,0.6-0.3,1.2-0.3,1.8L122,47.9
							L122,47.9z"/>
					</g>
				</g>
			</g>
			<g id="path-9_1_">
				<g id="path3-fill_1_">
					<g id="path3_fill-link_1_">
						<path id="path3_fill_1_" class="st6" d="M147.2,33.9l5.1,13.9c0.5,1.6,1.1,3.4,1.5,4.8h0.1c0.4-1.4,0.9-3.2,1.5-4.9l4.6-13.8
							h4.5l-6.3,16.8c-3,8.1-5.1,12.2-7.9,14.8c-1.4,1.4-3.2,2.3-5.2,2.8l-1.1-3.6c1.4-0.5,2.6-1.2,3.7-2.1c1.5-1.3,2.7-2.9,3.5-4.8
							c0.2-0.3,0.3-0.6,0.3-1s-0.1-0.8-0.3-1.1L142.7,34L147.2,33.9L147.2,33.9z"/>
					</g>
				</g>
			</g>
			<g id="path-10_1_">
				<g id="path4-fill_1_">
					<g id="path4_fill-link_1_">
						<path id="path4_fill_1_" class="st6" d="M175.4,33.9h6v3.3h-6v12.7c0,2.9,0.8,4.6,3.2,4.6c0.8,0,1.6-0.1,2.4-0.3l0.2,3.2
							c-1.2,0.4-2.5,0.6-3.7,0.6c-1.7,0.1-3.4-0.6-4.6-1.8c-1.2-1.3-1.6-3.4-1.6-6.1V37.2h-3.6v-3.3h3.6v-5.6l4.1-1.1L175.4,33.9
							L175.4,33.9z"/>
					</g>
				</g>
			</g>
			<g id="path-11_1_">
				<g id="path5-fill_1_">
					<g id="path5_fill-link_1_">
						<path id="path5_fill_1_" class="st6" d="M189.2,46.5c0.1,5.8,3.7,8.2,7.9,8.2c2.2,0.1,4.4-0.4,6.4-1.2l0.7,3.1
							c-2.4,1-5,1.5-7.7,1.5c-7.1,0-11.4-4.8-11.4-11.9s4.1-12.6,10.9-12.6c7.6,0,9.6,6.8,9.6,11.1c0,0.7-0.1,1.3-0.1,2L189.2,46.5
							L189.2,46.5z M201.5,43.4c0-2.7-1.1-7-5.8-7c-4.3,0-6.1,4-6.5,7H201.5L201.5,43.4z"/>
					</g>
				</g>
			</g>
			<g id="path-12_1_">
				<g id="path6-fill_1_">
					<g id="path6_fill-link_1_">
						<path id="path6_fill_1_" class="st6" d="M211.6,33.9h3.7l0.1,4.6h0.2c1.1-3.1,3.6-5.1,6.4-5.1c0.4,0,0.8,0,1.2,0.1v4
							c-0.5-0.1-1-0.1-1.4-0.1c-3,0-5.1,2.3-5.6,5.5c-0.1,0.7-0.2,1.3-0.2,2v12.6h-4.2V41.3C211.8,38.5,211.7,36.1,211.6,33.9z"/>
					</g>
				</g>
			</g>
		</g>
	</g>
</g>
<g>
	<text transform="matrix(1 0 0 1 78.3928 27.402)" class="st1 st7 st8 st9">P</text>
	<text transform="matrix(1 0 0 1 86.2028 27.402)" class="st1 st7 st8 st10">O</text>
	<text transform="matrix(1 0 0 1 95.3028 27.402)" class="st1 st7 st8 st9">WERED </text>
	<text transform="matrix(1 0 0 1 141.7728 27.402)" class="st1 st7 st8 st10">B</text>
	<text transform="matrix(1 0 0 1 149.4728 27.402)" class="st1 st7 st8 st9">Y</text>
</g>
</svg>
