<svg xmlns="http://www.w3.org/2000/svg" viewBox="0 0 99 99"><defs><style>.cls-1{fill:#4e4e4e;}.cls-2{isolation:isolate;}.cls-3{fill:#fff;}.cls-4{fill:#f37826;}</style></defs><title>Asset 6</title><g id="Layer_2" data-name="Layer 2"><g id="Layer_1-2" data-name="Layer 1"><rect class="cls-1" width="99" height="99" rx="7.92" ry="7.92"/><g id="powered-by"><g class="cls-2"><path class="cls-3" d="M11.31,11.07a12.46,12.46,0,0,1,2.06-.14,3.23,3.23,0,0,1,2.06.54A2,2,0,0,1,16.15,13a2.15,2.15,0,0,1-.62,1.6,3.13,3.13,0,0,1-2.19.71,3.92,3.92,0,0,1-.52,0v2.41H11.31Zm1.51,3.06a2.31,2.31,0,0,0,.51,0c.81,0,1.31-.41,1.31-1.1s-.43-1-1.19-1a2.64,2.64,0,0,0-.63.06Z"/><path class="cls-3" d="M25.29,14.27A3.21,3.21,0,0,1,22,17.82a3.14,3.14,0,0,1-3.17-3.43,3.26,3.26,0,0,1,3.28-3.53A3.14,3.14,0,0,1,25.29,14.27Zm-4.87.09c0,1.32.62,2.25,1.64,2.25s1.62-1,1.62-2.29-.58-2.25-1.63-2.25S20.42,13.06,20.42,14.36Z"/><path class="cls-3" d="M29.31,17.71,27.71,11h1.63l.51,2.78c.15.8.29,1.67.4,2.35h0c.11-.73.27-1.54.44-2.37L31.28,11H32.9l.54,2.84c.15.79.26,1.51.36,2.26h0c.1-.75.25-1.54.39-2.34L34.76,11h1.55l-1.74,6.74H32.92l-.57-2.9c-.13-.68-.24-1.31-.32-2.08h0c-.12.76-.23,1.4-.39,2.08L31,17.71Z"/><path class="cls-3" d="M43.11,14.86H40.63v1.6H43.4v1.25H39.1V11h4.16v1.25H40.63v1.4h2.48Z"/><path class="cls-3" d="M46.44,11.07a13.37,13.37,0,0,1,2-.14,3.44,3.44,0,0,1,2.18.53,1.71,1.71,0,0,1,.62,1.41,1.79,1.79,0,0,1-1.19,1.66v0a1.7,1.7,0,0,1,.9,1.26c.21.76.42,1.64.55,1.9H50a8.44,8.44,0,0,1-.47-1.57c-.18-.84-.47-1.07-1.09-1.08H48v2.65H46.44ZM48,14h.6c.76,0,1.21-.38,1.21-1s-.42-.93-1.12-.94a3.72,3.72,0,0,0-.69.05Z"/><path class="cls-3" d="M58.38,14.86H55.9v1.6h2.77v1.25h-4.3V11h4.16v1.25H55.9v1.4h2.48Z"/><path class="cls-3" d="M61.71,11.07a13.61,13.61,0,0,1,2.06-.14,4.33,4.33,0,0,1,2.76.72,3,3,0,0,1,1.14,2.54,3.42,3.42,0,0,1-1.12,2.73,4.84,4.84,0,0,1-3.11.87,13.2,13.2,0,0,1-1.73-.1Zm1.53,5.5a2.77,2.77,0,0,0,.53,0A2.09,2.09,0,0,0,66,14.23a1.93,1.93,0,0,0-2.12-2.14,3.14,3.14,0,0,0-.69.06Z"/><path class="cls-3" d="M74.69,11.07a12.13,12.13,0,0,1,2-.14,3.72,3.72,0,0,1,2,.38,1.47,1.47,0,0,1,.81,1.32,1.52,1.52,0,0,1-1.11,1.44v0a1.68,1.68,0,0,1,1.34,1.66,1.79,1.79,0,0,1-.7,1.43,4.25,4.25,0,0,1-2.65.61,11.79,11.79,0,0,1-1.65-.1Zm1.51,2.58h.5c.8,0,1.23-.33,1.23-.83S77.54,12,76.85,12a4.09,4.09,0,0,0-.65,0Zm0,3a4.91,4.91,0,0,0,.59,0c.69,0,1.3-.26,1.3-1s-.61-.95-1.37-.95H76.2Z"/><path class="cls-3" d="M84,17.71V15l-2.13-4h1.74l.69,1.62c.21.49.35.85.52,1.29h0c.15-.42.31-.81.51-1.29L86,11h1.71L85.47,14.9v2.81Z"/></g></g><g id="condensedlogo-blacktext-blackbody-blackmoons"><g id="Group-4.svg"><g id="Canvas"><g id="Group"><path id="path0_fill" data-name="path0 fill" class="cls-3" d="M25.19,59.9c0,1.94-.16,2.58-.56,3a2.42,2.42,0,0,1-1.62.62l.16,1.11a3.8,3.8,0,0,0,2.53-.92,4.44,4.44,0,0,0,1-3.33V53.07H25.19V59.9Z"/><path id="path1_fill" data-name="path1 fill" class="cls-3" d="M36.3,59c0,.83,0,1.58.07,2.22H35L35,59.93a3.08,3.08,0,0,1-2.7,1.51c-1.29,0-2.82-.7-2.82-3.55V53.14h1.49v4.44c0,1.54.48,2.58,1.82,2.58a2.08,2.08,0,0,0,2.1-2.1v-5h1.49V59Z"/><path id="path2_fill" data-name="path2 fill" class="cls-3" d="M39.1,55.78c0-1,0-1.88-.07-2.64h1.33l.07,1.39A3.22,3.22,0,0,1,43.34,53c2,0,3.46,1.65,3.46,4.12,0,2.91-1.79,4.35-3.72,4.35a2.88,2.88,0,0,1-2.52-1.28v4.44H39.1v-8.8Zm1.47,2.17a3.33,3.33,0,0,0,.07.6,2.29,2.29,0,0,0,2.22,1.72c1.57,0,2.49-1.28,2.49-3.13,0-1.62-.87-3-2.43-3a2.55,2.55,0,0,0-2.34,2.43v1.39Z"/><path id="path3_fill" data-name="path3 fill" class="cls-3" d="M49.47,53.13l1.79,4.79c.19.53.39,1.18.52,1.65.16-.49.32-1.11.52-1.69l1.62-4.75h1.62l-2.22,5.77c-1.11,2.78-1.79,4.21-2.81,5.07a4,4,0,0,1-1.82,1l-.37-1.24a3.94,3.94,0,0,0,1.3-.72,4.44,4.44,0,0,0,1.25-1.64A1.11,1.11,0,0,0,51,61a1.28,1.28,0,0,0-.1-.39l-3-7.47h1.62Z"/><path id="path4_fill" data-name="path4 fill" class="cls-3" d="M59.45,50.8v2.33h2.13v1.11H59.45v4.37c0,1,.29,1.58,1.11,1.58a3.33,3.33,0,0,0,.87-.1l.07,1.11a3.66,3.66,0,0,1-1.32.2,2.07,2.07,0,0,1-1.61-.62A3,3,0,0,1,58,58.68V54.23H56.72V53.12H58v-2Z"/><path id="path5_fill" data-name="path5 fill" class="cls-3" d="M64.31,57.45a2.61,2.61,0,0,0,2.81,2.81,5.42,5.42,0,0,0,2.22-.42l.26,1.11a6.66,6.66,0,0,1-2.72.5,3.78,3.78,0,0,1-4-4.09c0-2.44,1.45-4.37,3.83-4.37C69.35,53,70,55.32,70,56.81a5.55,5.55,0,0,1,0,.69H64.31Zm4.35-1.11a2.1,2.1,0,0,0-2.07-2.4,2.45,2.45,0,0,0-2.28,2.4Z"/><path id="path6_fill" data-name="path6 fill" class="cls-3" d="M72.28,55.66c0-1,0-1.78-.07-2.53h1.3v1.59h.07a2.45,2.45,0,0,1,2.22-1.78,1.62,1.62,0,0,1,.42,0v1.39a2.22,2.22,0,0,0-.51,0,2.08,2.08,0,0,0-2,1.89,4.11,4.11,0,0,0-.07.69v4.32H72.19V55.67Z"/><g id="g"><path id="path7_fill" data-name="path7 fill" class="cls-3" d="M71.62,30.83A3.76,3.76,0,1,1,67.7,27.3a3.72,3.72,0,0,1,3.92,3.53Z"/><path id="path8_fill" data-name="path8 fill" class="cls-4" d="M49.66,74.31c-10,0-18.78-3.59-23.32-8.88a24.86,24.86,0,0,0,46.63,0C68.45,70.73,59.7,74.31,49.66,74.31Z"/><path id="path9_fill" data-name="path9 fill" class="cls-4" d="M49.66,39.88c10,0,18.78,3.59,23.32,8.88a24.86,24.86,0,0,0-46.63,0C30.89,43.45,39.63,39.88,49.66,39.88Z"/><path id="path10_fill" data-name="path10 fill" class="cls-3" d="M35.91,84.62a4.7,4.7,0,1,1-.45-1.78,4.74,4.74,0,0,1,.45,1.78Z"/><path id="path11_fill" data-name="path11 fill" class="cls-3" d="M27.48,38.67a2.73,2.73,0,1,1,2.65-2.84,2.76,2.76,0,0,1-2.65,2.84Z"/></g></g></g></g></g></g></g></svg>