<svg xmlns="http://www.w3.org/2000/svg" viewBox="0 0 99 99"><defs><style>.cls-1{fill:#4e4e4e;}.cls-2{isolation:isolate;font-size:10px;fill:#767676;font-family:MyriadPro-Bold, Myriad Pro;font-weight:700;letter-spacing:0.2em;}.cls-3{letter-spacing:0.19em;}.cls-4{letter-spacing:0.17em;}.cls-5{fill:#4d4d4e;}.cls-6{fill:#777778;}.cls-7{fill:#f37826;}.cls-8{fill:#989798;}.cls-9{fill:#707171;}</style></defs><title>Asset 5</title><g id="Layer_2" data-name="Layer 2"><g id="Layer_1-2" data-name="Layer 1"><path class="cls-1" d="M91.08,2A5.93,5.93,0,0,1,97,7.92V91.08A5.93,5.93,0,0,1,91.08,97H7.92A5.93,5.93,0,0,1,2,91.08V7.92A5.93,5.93,0,0,1,7.92,2H91.08m0-2H7.92A7.92,7.92,0,0,0,0,7.92V91.08A7.92,7.92,0,0,0,7.92,99H91.08A7.92,7.92,0,0,0,99,91.08V7.92A7.92,7.92,0,0,0,91.08,0Z"/><g id="Page-1"><g id="powered-by"><text class="cls-2" transform="translate(10.56 18.39)">P<tspan class="cls-3" x="7.81" y="0">O</tspan><tspan x="16.91" y="0">WERED </tspan><tspan class="cls-4" x="63.38" y="0">B</tspan><tspan x="71.08" y="0">Y</tspan></text></g><g id="condensedlogo-blacktext-blackbody-blackmoons"><g id="Group-4.svg"><g id="Canvas"><g id="Group"><path id="path0_fill" data-name="path0 fill" class="cls-5" d="M25.14,60.84c0,1.94-.16,2.58-.56,3A2.42,2.42,0,0,1,23,64.5l.16,1.11a3.8,3.8,0,0,0,2.53-.92,4.44,4.44,0,0,0,1-3.33V54H25.14v6.83Z"/><path id="path1_fill" data-name="path1 fill" class="cls-5" d="M36.25,60c0,.83,0,1.58.07,2.22H35l-.09-1.32a3.08,3.08,0,0,1-2.7,1.51c-1.29,0-2.82-.7-2.82-3.55V54.08h1.49v4.44c0,1.54.48,2.58,1.82,2.58A2.08,2.08,0,0,0,34.8,59V54h1.49v5.9Z"/><path id="path2_fill" data-name="path2 fill" class="cls-5" d="M39,56.72c0-1,0-1.88-.07-2.64h1.33l.07,1.39a3.22,3.22,0,0,1,2.91-1.58c2,0,3.46,1.65,3.46,4.12,0,2.91-1.79,4.35-3.72,4.35a2.88,2.88,0,0,1-2.52-1.28v4.44H39v-8.8Zm1.47,2.17a3.33,3.33,0,0,0,.07.6A2.29,2.29,0,0,0,42.8,61.2c1.57,0,2.49-1.28,2.49-3.13,0-1.62-.87-3-2.43-3a2.55,2.55,0,0,0-2.34,2.43v1.39Z"/><path id="path3_fill" data-name="path3 fill" class="cls-5" d="M49.42,54.07l1.79,4.79c.19.53.39,1.18.52,1.65.16-.49.32-1.11.52-1.69l1.62-4.75h1.62l-2.22,5.77c-1.11,2.78-1.79,4.21-2.81,5.07a4,4,0,0,1-1.82,1l-.37-1.24a3.94,3.94,0,0,0,1.3-.72,4.44,4.44,0,0,0,1.25-1.64,1.11,1.11,0,0,0,.12-.36,1.28,1.28,0,0,0-.1-.39l-3-7.47h1.62Z"/><path id="path4_fill" data-name="path4 fill" class="cls-5" d="M59.39,51.74v2.33h2.13v1.11H59.39v4.37c0,1,.29,1.58,1.11,1.58a3.33,3.33,0,0,0,.87-.1l.07,1.11a3.66,3.66,0,0,1-1.32.2,2.07,2.07,0,0,1-1.61-.62,3,3,0,0,1-.58-2.11V55.17H56.66V54.06h1.27v-2Z"/><path id="path5_fill" data-name="path5 fill" class="cls-5" d="M64.25,58.38a2.61,2.61,0,0,0,2.81,2.81,5.42,5.42,0,0,0,2.22-.42l.26,1.11a6.66,6.66,0,0,1-2.72.5,3.78,3.78,0,0,1-4-4.09c0-2.44,1.45-4.37,3.83-4.37,2.66,0,3.33,2.33,3.33,3.82a5.55,5.55,0,0,1,0,.69H64.25Zm4.35-1.11a2.1,2.1,0,0,0-2.07-2.4,2.45,2.45,0,0,0-2.28,2.4Z"/><path id="path6_fill" data-name="path6 fill" class="cls-5" d="M72.23,56.59c0-1,0-1.78-.07-2.53h1.3v1.59h.07a2.45,2.45,0,0,1,2.22-1.78,1.62,1.62,0,0,1,.42,0v1.39a2.22,2.22,0,0,0-.51,0,2.08,2.08,0,0,0-2,1.89,4.11,4.11,0,0,0-.07.69v4.32H72.14V56.6Z"/><g id="g"><path id="path7_fill" data-name="path7 fill" class="cls-6" d="M71.57,31.77a3.76,3.76,0,1,1-3.92-3.53,3.72,3.72,0,0,1,3.92,3.53Z"/><path id="path8_fill" data-name="path8 fill" class="cls-7" d="M49.61,75.25c-10,0-18.78-3.59-23.32-8.88a24.86,24.86,0,0,0,46.63,0C68.4,71.66,59.65,75.25,49.61,75.25Z"/><path id="path9_fill" data-name="path9 fill" class="cls-7" d="M49.61,40.81c10,0,18.78,3.59,23.32,8.88a24.86,24.86,0,0,0-46.63,0C30.84,44.39,39.57,40.81,49.61,40.81Z"/><path id="path10_fill" data-name="path10 fill" class="cls-8" d="M35.86,85.56a4.7,4.7,0,1,1-.45-1.78,4.74,4.74,0,0,1,.45,1.78Z"/><path id="path11_fill" data-name="path11 fill" class="cls-9" d="M27.43,39.6a2.73,2.73,0,1,1,2.65-2.84,2.76,2.76,0,0,1-2.65,2.84Z"/></g></g></g></g></g></g></g></g></svg>