<svg xmlns="http://www.w3.org/2000/svg" viewBox="0 0 79.11 80.57"><defs><style>.cls-1{isolation:isolate;font-size:10px;font-family:MyriadPro-Bold, Myriad Pro;font-weight:700;letter-spacing:0.2em;}.cls-1,.cls-4{fill:#4d4d4e;}.cls-2{letter-spacing:0.19em;}.cls-3{letter-spacing:0.17em;}</style></defs><title>Asset 4</title><g id="Layer_2" data-name="Layer 2"><g id="Layer_1-2" data-name="Layer 1"><g id="Page-1"><g id="Artboard"><g id="grey_no_box" data-name="grey no box"><g id="powered-by"><text class="cls-1" transform="translate(0 8.37)">P<tspan class="cls-2" x="7.81" y="0">O</tspan><tspan x="16.91" y="0">WERED </tspan><tspan class="cls-3" x="63.38" y="0">B</tspan><tspan x="71.08" y="0">Y</tspan></text></g><g id="condensedlogo-blacktext-blackbody-blackmoons"><g id="Group-4.svg"><g id="Canvas"><g id="Group"><path id="path0_fill" data-name="path0 fill" class="cls-4" d="M14.44,50.81c0,1.94-.16,2.58-.56,3a2.42,2.42,0,0,1-1.62.62l.16,1.11a3.8,3.8,0,0,0,2.53-.92,4.44,4.44,0,0,0,1-3.33V44H14.44v6.83Z"/><path id="path1_fill" data-name="path1 fill" class="cls-4" d="M25.55,49.94c0,.83,0,1.58.07,2.22H24.29l-.09-1.32a3.08,3.08,0,0,1-2.7,1.51c-1.29,0-2.82-.7-2.82-3.55V44.05h1.49V48.5c0,1.54.48,2.58,1.82,2.58a2.08,2.08,0,0,0,2.1-2.1V44h1.49v5.9Z"/><path id="path2_fill" data-name="path2 fill" class="cls-4" d="M28.34,46.7c0-1,0-1.88-.07-2.64h1.33l.07,1.39a3.22,3.22,0,0,1,2.91-1.58c2,0,3.46,1.65,3.46,4.12,0,2.91-1.79,4.35-3.72,4.35a2.88,2.88,0,0,1-2.52-1.28V55.5H28.34V46.7Zm1.47,2.17a3.33,3.33,0,0,0,.07.6,2.29,2.29,0,0,0,2.22,1.72c1.57,0,2.49-1.28,2.49-3.13,0-1.62-.87-3-2.43-3a2.55,2.55,0,0,0-2.34,2.43v1.39Z"/><path id="path3_fill" data-name="path3 fill" class="cls-4" d="M38.72,44l1.79,4.79c.19.53.39,1.18.52,1.65.16-.49.32-1.11.52-1.69L43.17,44h1.62l-2.22,5.77c-1.11,2.78-1.79,4.21-2.81,5.07a4,4,0,0,1-1.82,1l-.37-1.24a3.94,3.94,0,0,0,1.3-.72,4.44,4.44,0,0,0,1.25-1.64,1.11,1.11,0,0,0,.12-.36,1.28,1.28,0,0,0-.1-.39l-3-7.47h1.62Z"/><path id="path4_fill" data-name="path4 fill" class="cls-4" d="M48.69,41.72V44h2.13v1.11H48.69v4.37c0,1,.29,1.58,1.11,1.58a3.33,3.33,0,0,0,.87-.1l.07,1.11a3.66,3.66,0,0,1-1.32.2,2.07,2.07,0,0,1-1.61-.62,3,3,0,0,1-.58-2.11V45.15H46V44h1.27v-2Z"/><path id="path5_fill" data-name="path5 fill" class="cls-4" d="M53.55,48.36a2.61,2.61,0,0,0,2.81,2.81,5.42,5.42,0,0,0,2.22-.42l.26,1.11a6.66,6.66,0,0,1-2.72.5,3.78,3.78,0,0,1-4-4.09c0-2.44,1.45-4.37,3.83-4.37,2.66,0,3.33,2.33,3.33,3.82a5.55,5.55,0,0,1,0,.69H53.55Zm4.35-1.11a2.1,2.1,0,0,0-2.07-2.4,2.45,2.45,0,0,0-2.28,2.4Z"/><path id="path6_fill" data-name="path6 fill" class="cls-4" d="M61.52,46.57c0-1,0-1.78-.07-2.53h1.3v1.59h.07A2.45,2.45,0,0,1,65,43.85a1.62,1.62,0,0,1,.42,0v1.39a2.22,2.22,0,0,0-.51,0,2.08,2.08,0,0,0-2,1.89,4.11,4.11,0,0,0-.07.69v4.32H61.44V46.58Z"/><g id="g"><path id="path7_fill" data-name="path7 fill" class="cls-4" d="M60.86,21.75a3.76,3.76,0,1,1-3.92-3.53,3.72,3.72,0,0,1,3.92,3.53Z"/><path id="path8_fill" data-name="path8 fill" class="cls-4" d="M38.91,65.23c-10,0-18.78-3.59-23.32-8.88a24.86,24.86,0,0,0,46.63,0C57.69,61.64,48.95,65.23,38.91,65.23Z"/><path id="path9_fill" data-name="path9 fill" class="cls-4" d="M38.91,30.79c10,0,18.78,3.59,23.32,8.88a24.86,24.86,0,0,0-46.63,0C20.13,34.36,28.87,30.79,38.91,30.79Z"/><path id="path10_fill" data-name="path10 fill" class="cls-4" d="M25.15,75.53a4.7,4.7,0,1,1-.45-1.78,4.74,4.74,0,0,1,.45,1.78Z"/><path id="path11_fill" data-name="path11 fill" class="cls-4" d="M16.73,29.58a2.73,2.73,0,1,1,2.65-2.84,2.76,2.76,0,0,1-2.65,2.84Z"/></g></g></g></g></g></g></g></g></g></g></svg>